<?xml version="1.0" encoding="UTF-8" standalone="no"?>
<!DOCTYPE svg PUBLIC "-//W3C//DTD SVG 1.1//EN"
 "http://www.w3.org/Graphics/SVG/1.1/DTD/svg11.dtd">
<!-- Generated by graphviz version 5.0.0 (20220707.1540)
 -->
<!-- Title: dependencies Pages: 1 -->
<svg width="504pt" height="174pt"
 viewBox="0.00 0.00 504.00 173.80" xmlns="http://www.w3.org/2000/svg" xmlns:xlink="http://www.w3.org/1999/xlink">
<g id="graph0" class="graph" transform="scale(1 1) rotate(0) translate(4 169.8)">
<title>dependencies</title>
<polygon fill="white" stroke="transparent" points="-4,4 -4,-169.8 500,-169.8 500,4 -4,4"/>
<text text-anchor="middle" x="248" y="-8.2" font-family="sans-serif" font-size="14.00">dependencies</text>
<g id="clust1" class="cluster">
<title>cluster_CoreModule</title>
<polygon fill="none" stroke="black" stroke-dasharray="1,5" points="8,-32.8 8,-157.8 488,-157.8 488,-32.8 8,-32.8"/>
</g>
<g id="clust6" class="cluster">
<title>cluster_CoreModule_providers</title>
<polygon fill="none" stroke="black" points="16,-40.8 16,-92.8 480,-92.8 480,-40.8 16,-40.8"/>
</g>
<!-- AppClusterService -->
<g id="node1" class="node">
<title>AppClusterService</title>
<ellipse fill="#fdb462" stroke="black" cx="387" cy="-66.8" rx="84.54" ry="18"/>
<text text-anchor="middle" x="387" y="-62.6" font-family="Times,serif" font-size="14.00">AppClusterService</text>
</g>
<!-- CoreModule -->
<g id="node4" class="node">
<title>CoreModule</title>
<polygon fill="#8dd3c7" stroke="black" points="269.27,-149.8 266.27,-153.8 245.27,-153.8 242.27,-149.8 182.73,-149.8 182.73,-113.8 269.27,-113.8 269.27,-149.8"/>
<text text-anchor="middle" x="226" y="-127.6" font-family="Times,serif" font-size="14.00">CoreModule</text>
</g>
<!-- AppClusterService&#45;&gt;CoreModule -->
<g id="edge1" class="edge">
<title>AppClusterService&#45;&gt;CoreModule</title>
<path fill="none" stroke="black" d="M387,-84.91C387,-104.14 387,-131.8 387,-131.8 387,-131.8 279.57,-131.8 279.57,-131.8"/>
<polygon fill="black" stroke="black" points="279.57,-128.3 269.57,-131.8 279.57,-135.3 279.57,-128.3"/>
</g>
<!-- FilesService -->
<g id="node2" class="node">
<title>FilesService</title>
<ellipse fill="#fdb462" stroke="black" cx="226" cy="-66.8" rx="58.55" ry="18"/>
<text text-anchor="middle" x="226" y="-62.6" font-family="Times,serif" font-size="14.00">FilesService</text>
</g>
<!-- FilesService&#45;&gt;CoreModule -->
<g id="edge2" class="edge">
<title>FilesService&#45;&gt;CoreModule</title>
<path fill="none" stroke="black" d="M226,-84.91C226,-84.91 226,-103.79 226,-103.79"/>
<polygon fill="black" stroke="black" points="222.5,-103.79 226,-113.79 229.5,-103.79 222.5,-103.79"/>
</g>
<!-- TasksService -->
<g id="node3" class="node">
<title>TasksService</title>
<ellipse fill="#fdb462" stroke="black" cx="87" cy="-66.8" rx="62.55" ry="18"/>
<text text-anchor="middle" x="87" y="-62.6" font-family="Times,serif" font-size="14.00">TasksService</text>
</g>
<!-- TasksService&#45;&gt;CoreModule -->
<g id="edge3" class="edge">
<title>TasksService&#45;&gt;CoreModule</title>
<path fill="none" stroke="black" d="M87,-84.91C87,-104.14 87,-131.8 87,-131.8 87,-131.8 172.4,-131.8 172.4,-131.8"/>
<polygon fill="black" stroke="black" points="172.4,-135.3 182.4,-131.8 172.4,-128.3 172.4,-135.3"/>
</g>
</g>
</svg>
