<?xml version="1.0" encoding="UTF-8" standalone="no"?>
<!DOCTYPE svg PUBLIC "-//W3C//DTD SVG 1.1//EN"
 "http://www.w3.org/Graphics/SVG/1.1/DTD/svg11.dtd">
<!-- Generated by graphviz version 5.0.0 (20220707.1540)
 -->
<!-- Title: dependencies Pages: 1 -->
<svg width="674pt" height="174pt"
 viewBox="0.00 0.00 674.00 173.80" xmlns="http://www.w3.org/2000/svg" xmlns:xlink="http://www.w3.org/1999/xlink">
<g id="graph0" class="graph" transform="scale(1 1) rotate(0) translate(4 169.8)">
<title>dependencies</title>
<polygon fill="white" stroke="transparent" points="-4,4 -4,-169.8 670,-169.8 670,4 -4,4"/>
<text text-anchor="middle" x="333" y="-8.2" font-family="sans-serif" font-size="14.00">dependencies</text>
<g id="clust1" class="cluster">
<title>cluster_CoreModule</title>
<polygon fill="none" stroke="black" stroke-dasharray="1,5" points="8,-32.8 8,-157.8 658,-157.8 658,-32.8 8,-32.8"/>
</g>
<g id="clust6" class="cluster">
<title>cluster_CoreModule_providers</title>
<polygon fill="none" stroke="black" points="16,-40.8 16,-92.8 650,-92.8 650,-40.8 16,-40.8"/>
</g>
<!-- AppClusterService -->
<g id="node1" class="node">
<title>AppClusterService</title>
<ellipse fill="#fdb462" stroke="black" cx="557" cy="-66.8" rx="84.54" ry="18"/>
<text text-anchor="middle" x="557" y="-62.6" font-family="Times,serif" font-size="14.00">AppClusterService</text>
</g>
<!-- CoreModule -->
<g id="node5" class="node">
<title>CoreModule</title>
<polygon fill="#8dd3c7" stroke="black" points="345.27,-149.8 342.27,-153.8 321.27,-153.8 318.27,-149.8 258.73,-149.8 258.73,-113.8 345.27,-113.8 345.27,-149.8"/>
<text text-anchor="middle" x="302" y="-127.6" font-family="Times,serif" font-size="14.00">CoreModule</text>
</g>
<!-- AppClusterService&#45;&gt;CoreModule -->
<g id="edge1" class="edge">
<title>AppClusterService&#45;&gt;CoreModule</title>
<path fill="none" stroke="black" d="M557,-84.91C557,-104.14 557,-131.8 557,-131.8 557,-131.8 355.55,-131.8 355.55,-131.8"/>
<polygon fill="black" stroke="black" points="355.55,-128.3 345.55,-131.8 355.55,-135.3 355.55,-128.3"/>
</g>
<!-- CurrencyService -->
<g id="node2" class="node">
<title>CurrencyService</title>
<ellipse fill="#fdb462" stroke="black" cx="379" cy="-66.8" rx="75.85" ry="18"/>
<text text-anchor="middle" x="379" y="-62.6" font-family="Times,serif" font-size="14.00">CurrencyService</text>
</g>
<!-- CurrencyService&#45;&gt;CoreModule -->
<g id="edge2" class="edge">
<title>CurrencyService&#45;&gt;CoreModule</title>
<path fill="none" stroke="black" d="M324.23,-79.33C324.23,-79.33 324.23,-103.65 324.23,-103.65"/>
<polygon fill="black" stroke="black" points="320.73,-103.65 324.23,-113.65 327.73,-103.65 320.73,-103.65"/>
</g>
<!-- FilesService -->
<g id="node3" class="node">
<title>FilesService</title>
<ellipse fill="#fdb462" stroke="black" cx="226" cy="-66.8" rx="58.55" ry="18"/>
<text text-anchor="middle" x="226" y="-62.6" font-family="Times,serif" font-size="14.00">FilesService</text>
</g>
<!-- FilesService&#45;&gt;CoreModule -->
<g id="edge3" class="edge">
<title>FilesService&#45;&gt;CoreModule</title>
<path fill="none" stroke="black" d="M271.7,-78.12C271.7,-78.12 271.7,-103.74 271.7,-103.74"/>
<polygon fill="black" stroke="black" points="268.2,-103.74 271.7,-113.74 275.2,-103.74 268.2,-103.74"/>
</g>
<!-- TasksService -->
<g id="node4" class="node">
<title>TasksService</title>
<ellipse fill="#fdb462" stroke="black" cx="87" cy="-66.8" rx="62.55" ry="18"/>
<text text-anchor="middle" x="87" y="-62.6" font-family="Times,serif" font-size="14.00">TasksService</text>
</g>
<!-- TasksService&#45;&gt;CoreModule -->
<g id="edge4" class="edge">
<title>TasksService&#45;&gt;CoreModule</title>
<path fill="none" stroke="black" d="M87,-84.91C87,-104.14 87,-131.8 87,-131.8 87,-131.8 248.49,-131.8 248.49,-131.8"/>
<polygon fill="black" stroke="black" points="248.49,-135.3 258.49,-131.8 248.49,-128.3 248.49,-135.3"/>
</g>
</g>
</svg>
