<?xml version="1.0" encoding="UTF-8" standalone="no"?>
<!DOCTYPE svg PUBLIC "-//W3C//DTD SVG 1.1//EN"
 "http://www.w3.org/Graphics/SVG/1.1/DTD/svg11.dtd">
<!-- Generated by graphviz version 5.0.0 (20220707.1540)
 -->
<!-- Title: dependencies Pages: 1 -->
<svg width="730pt" height="247pt"
 viewBox="0.00 0.00 730.00 246.80" xmlns="http://www.w3.org/2000/svg" xmlns:xlink="http://www.w3.org/1999/xlink">
<g id="graph0" class="graph" transform="scale(1 1) rotate(0) translate(4 242.8)">
<title>dependencies</title>
<polygon fill="white" stroke="transparent" points="-4,4 -4,-242.8 726,-242.8 726,4 -4,4"/>
<text text-anchor="middle" x="361" y="-8.2" font-family="sans-serif" font-size="14.00">dependencies</text>
<g id="clust1" class="cluster">
<title>cluster_UsersModule</title>
<polygon fill="none" stroke="black" stroke-dasharray="1,5" points="8,-32.8 8,-230.8 714,-230.8 714,-32.8 8,-32.8"/>
</g>
<g id="clust4" class="cluster">
<title>cluster_UsersModule_exports</title>
<polygon fill="none" stroke="black" points="235,-170.8 235,-222.8 549,-222.8 549,-170.8 235,-170.8"/>
</g>
<g id="clust6" class="cluster">
<title>cluster_UsersModule_providers</title>
<polygon fill="none" stroke="black" points="16,-40.8 16,-92.8 706,-92.8 706,-40.8 16,-40.8"/>
</g>
<!-- UserJwtRefreshTokenService  -->
<g id="node1" class="node">
<title>UserJwtRefreshTokenService </title>
<polygon fill="#fb8072" stroke="black" points="541.17,-214.8 354.83,-214.8 354.83,-178.8 541.17,-178.8 541.17,-214.8"/>
<text text-anchor="middle" x="448" y="-192.6" font-family="Times,serif" font-size="14.00">UserJwtRefreshTokenService </text>
</g>
<!-- UsersService  -->
<g id="node2" class="node">
<title>UsersService </title>
<polygon fill="#fb8072" stroke="black" points="336.86,-214.8 243.14,-214.8 243.14,-178.8 336.86,-178.8 336.86,-214.8"/>
<text text-anchor="middle" x="290" y="-192.6" font-family="Times,serif" font-size="14.00">UsersService </text>
</g>
<!-- UsersModule -->
<g id="node3" class="node">
<title>UsersModule</title>
<polygon fill="#8dd3c7" stroke="black" points="414.94,-149.8 411.94,-153.8 390.94,-153.8 387.94,-149.8 323.06,-149.8 323.06,-113.8 414.94,-113.8 414.94,-149.8"/>
<text text-anchor="middle" x="369" y="-127.6" font-family="Times,serif" font-size="14.00">UsersModule</text>
</g>
<!-- UsersModule&#45;&gt;UserJwtRefreshTokenService  -->
<g id="edge1" class="edge">
<title>UsersModule&#45;&gt;UserJwtRefreshTokenService </title>
<path fill="none" stroke="black" stroke-dasharray="5,2" d="M384.69,-149.91C384.69,-149.91 384.69,-168.79 384.69,-168.79"/>
<polygon fill="black" stroke="black" points="381.19,-168.79 384.69,-178.79 388.19,-168.79 381.19,-168.79"/>
</g>
<!-- UsersModule&#45;&gt;UsersService  -->
<g id="edge2" class="edge">
<title>UsersModule&#45;&gt;UsersService </title>
<path fill="none" stroke="black" stroke-dasharray="5,2" d="M329.98,-149.91C329.98,-149.91 329.98,-168.79 329.98,-168.79"/>
<polygon fill="black" stroke="black" points="326.48,-168.79 329.98,-178.79 333.48,-168.79 326.48,-168.79"/>
</g>
<!-- AuthService -->
<g id="node4" class="node">
<title>AuthService</title>
<ellipse fill="#fdb462" stroke="black" cx="639" cy="-66.8" rx="59.11" ry="18"/>
<text text-anchor="middle" x="639" y="-62.6" font-family="Times,serif" font-size="14.00">AuthService</text>
</g>
<!-- AuthService&#45;&gt;UsersModule -->
<g id="edge3" class="edge">
<title>AuthService&#45;&gt;UsersModule</title>
<path fill="none" stroke="black" d="M639,-85.08C639,-106.12 639,-137.8 639,-137.8 639,-137.8 424.8,-137.8 424.8,-137.8"/>
<polygon fill="black" stroke="black" points="424.8,-134.3 414.8,-137.8 424.8,-141.3 424.8,-134.3"/>
</g>
<!-- TasksService -->
<g id="node5" class="node">
<title>TasksService</title>
<ellipse fill="#fdb462" stroke="black" cx="499" cy="-66.8" rx="62.55" ry="18"/>
<text text-anchor="middle" x="499" y="-62.6" font-family="Times,serif" font-size="14.00">TasksService</text>
</g>
<!-- TasksService&#45;&gt;UsersModule -->
<g id="edge4" class="edge">
<title>TasksService&#45;&gt;UsersModule</title>
<path fill="none" stroke="black" d="M488.91,-84.82C488.91,-102.17 488.91,-125.8 488.91,-125.8 488.91,-125.8 425.02,-125.8 425.02,-125.8"/>
<polygon fill="black" stroke="black" points="425.02,-122.3 415.02,-125.8 425.02,-129.3 425.02,-122.3"/>
</g>
<!-- UserJwtRefreshTokenService -->
<g id="node6" class="node">
<title>UserJwtRefreshTokenService</title>
<ellipse fill="#fdb462" stroke="black" cx="292" cy="-66.8" rx="126.19" ry="18"/>
<text text-anchor="middle" x="292" y="-62.6" font-family="Times,serif" font-size="14.00">UserJwtRefreshTokenService</text>
</g>
<!-- UserJwtRefreshTokenService&#45;&gt;UsersModule -->
<g id="edge5" class="edge">
<title>UserJwtRefreshTokenService&#45;&gt;UsersModule</title>
<path fill="none" stroke="black" d="M369,-81.23C369,-81.23 369,-103.69 369,-103.69"/>
<polygon fill="black" stroke="black" points="365.5,-103.69 369,-113.69 372.5,-103.69 365.5,-103.69"/>
</g>
<!-- UsersService -->
<g id="node7" class="node">
<title>UsersService</title>
<ellipse fill="#fdb462" stroke="black" cx="86" cy="-66.8" rx="61.97" ry="18"/>
<text text-anchor="middle" x="86" y="-62.6" font-family="Times,serif" font-size="14.00">UsersService</text>
</g>
<!-- UsersService&#45;&gt;UsersModule -->
<g id="edge6" class="edge">
<title>UsersService&#45;&gt;UsersModule</title>
<path fill="none" stroke="black" d="M86,-84.91C86,-104.14 86,-131.8 86,-131.8 86,-131.8 313.22,-131.8 313.22,-131.8"/>
<polygon fill="black" stroke="black" points="313.22,-135.3 323.22,-131.8 313.22,-128.3 313.22,-135.3"/>
</g>
</g>
</svg>
