<?xml version="1.0" encoding="UTF-8" standalone="no"?>
<!DOCTYPE svg PUBLIC "-//W3C//DTD SVG 1.1//EN"
 "http://www.w3.org/Graphics/SVG/1.1/DTD/svg11.dtd">
<!-- Generated by graphviz version 5.0.0 (20220707.1540)
 -->
<!-- Title: dependencies Pages: 1 -->
<svg width="899pt" height="247pt"
 viewBox="0.00 0.00 899.00 246.80" xmlns="http://www.w3.org/2000/svg" xmlns:xlink="http://www.w3.org/1999/xlink">
<g id="graph0" class="graph" transform="scale(1 1) rotate(0) translate(4 242.8)">
<title>dependencies</title>
<polygon fill="white" stroke="transparent" points="-4,4 -4,-242.8 895,-242.8 895,4 -4,4"/>
<text text-anchor="middle" x="445.5" y="-8.2" font-family="sans-serif" font-size="14.00">dependencies</text>
<g id="clust1" class="cluster">
<title>cluster_UsersModule</title>
<polygon fill="none" stroke="black" stroke-dasharray="1,5" points="8,-32.8 8,-230.8 883,-230.8 883,-32.8 8,-32.8"/>
</g>
<g id="clust4" class="cluster">
<title>cluster_UsersModule_exports</title>
<polygon fill="none" stroke="black" points="365,-170.8 365,-222.8 679,-222.8 679,-170.8 365,-170.8"/>
</g>
<g id="clust6" class="cluster">
<title>cluster_UsersModule_providers</title>
<polygon fill="none" stroke="black" points="16,-40.8 16,-92.8 875,-92.8 875,-40.8 16,-40.8"/>
</g>
<!-- UserJwtRefreshTokenService  -->
<g id="node1" class="node">
<title>UserJwtRefreshTokenService </title>
<polygon fill="#fb8072" stroke="black" points="671.17,-214.8 484.83,-214.8 484.83,-178.8 671.17,-178.8 671.17,-214.8"/>
<text text-anchor="middle" x="578" y="-192.6" font-family="Times,serif" font-size="14.00">UserJwtRefreshTokenService </text>
</g>
<!-- UsersService  -->
<g id="node2" class="node">
<title>UsersService </title>
<polygon fill="#fb8072" stroke="black" points="466.86,-214.8 373.14,-214.8 373.14,-178.8 466.86,-178.8 466.86,-214.8"/>
<text text-anchor="middle" x="420" y="-192.6" font-family="Times,serif" font-size="14.00">UsersService </text>
</g>
<!-- UsersModule -->
<g id="node3" class="node">
<title>UsersModule</title>
<polygon fill="#8dd3c7" stroke="black" points="544.94,-149.8 541.94,-153.8 520.94,-153.8 517.94,-149.8 453.06,-149.8 453.06,-113.8 544.94,-113.8 544.94,-149.8"/>
<text text-anchor="middle" x="499" y="-127.6" font-family="Times,serif" font-size="14.00">UsersModule</text>
</g>
<!-- UsersModule&#45;&gt;UserJwtRefreshTokenService  -->
<g id="edge1" class="edge">
<title>UsersModule&#45;&gt;UserJwtRefreshTokenService </title>
<path fill="none" stroke="black" stroke-dasharray="5,2" d="M514.69,-149.91C514.69,-149.91 514.69,-168.79 514.69,-168.79"/>
<polygon fill="black" stroke="black" points="511.19,-168.79 514.69,-178.79 518.19,-168.79 511.19,-168.79"/>
</g>
<!-- UsersModule&#45;&gt;UsersService  -->
<g id="edge2" class="edge">
<title>UsersModule&#45;&gt;UsersService </title>
<path fill="none" stroke="black" stroke-dasharray="5,2" d="M459.98,-149.91C459.98,-149.91 459.98,-168.79 459.98,-168.79"/>
<polygon fill="black" stroke="black" points="456.48,-168.79 459.98,-178.79 463.48,-168.79 456.48,-168.79"/>
</g>
<!-- AuthService -->
<g id="node4" class="node">
<title>AuthService</title>
<ellipse fill="#fdb462" stroke="black" cx="808" cy="-66.8" rx="59.11" ry="18"/>
<text text-anchor="middle" x="808" y="-62.6" font-family="Times,serif" font-size="14.00">AuthService</text>
</g>
<!-- AuthService&#45;&gt;UsersModule -->
<g id="edge3" class="edge">
<title>AuthService&#45;&gt;UsersModule</title>
<path fill="none" stroke="black" d="M808,-85.08C808,-106.12 808,-137.8 808,-137.8 808,-137.8 554.93,-137.8 554.93,-137.8"/>
<polygon fill="black" stroke="black" points="554.93,-134.3 544.93,-137.8 554.93,-141.3 554.93,-134.3"/>
</g>
<!-- CurrencyService -->
<g id="node5" class="node">
<title>CurrencyService</title>
<ellipse fill="#fdb462" stroke="black" cx="655" cy="-66.8" rx="75.85" ry="18"/>
<text text-anchor="middle" x="655" y="-62.6" font-family="Times,serif" font-size="14.00">CurrencyService</text>
</g>
<!-- CurrencyService&#45;&gt;UsersModule -->
<g id="edge4" class="edge">
<title>CurrencyService&#45;&gt;UsersModule</title>
<path fill="none" stroke="black" d="M625.2,-83.55C625.2,-100.99 625.2,-125.8 625.2,-125.8 625.2,-125.8 554.92,-125.8 554.92,-125.8"/>
<polygon fill="black" stroke="black" points="554.92,-122.3 544.92,-125.8 554.92,-129.3 554.92,-122.3"/>
</g>
<!-- TasksService -->
<g id="node6" class="node">
<title>TasksService</title>
<ellipse fill="#fdb462" stroke="black" cx="499" cy="-66.8" rx="62.55" ry="18"/>
<text text-anchor="middle" x="499" y="-62.6" font-family="Times,serif" font-size="14.00">TasksService</text>
</g>
<!-- TasksService&#45;&gt;UsersModule -->
<g id="edge5" class="edge">
<title>TasksService&#45;&gt;UsersModule</title>
<path fill="none" stroke="black" d="M499,-84.91C499,-84.91 499,-103.79 499,-103.79"/>
<polygon fill="black" stroke="black" points="495.5,-103.79 499,-113.79 502.5,-103.79 495.5,-103.79"/>
</g>
<!-- UserJwtRefreshTokenService -->
<g id="node7" class="node">
<title>UserJwtRefreshTokenService</title>
<ellipse fill="#fdb462" stroke="black" cx="292" cy="-66.8" rx="126.19" ry="18"/>
<text text-anchor="middle" x="292" y="-62.6" font-family="Times,serif" font-size="14.00">UserJwtRefreshTokenService</text>
</g>
<!-- UserJwtRefreshTokenService&#45;&gt;UsersModule -->
<g id="edge6" class="edge">
<title>UserJwtRefreshTokenService&#45;&gt;UsersModule</title>
<path fill="none" stroke="black" d="M395.83,-77.08C395.83,-93.98 395.83,-125.8 395.83,-125.8 395.83,-125.8 443.15,-125.8 443.15,-125.8"/>
<polygon fill="black" stroke="black" points="443.15,-129.3 453.15,-125.8 443.15,-122.3 443.15,-129.3"/>
</g>
<!-- UsersService -->
<g id="node8" class="node">
<title>UsersService</title>
<ellipse fill="#fdb462" stroke="black" cx="86" cy="-66.8" rx="61.97" ry="18"/>
<text text-anchor="middle" x="86" y="-62.6" font-family="Times,serif" font-size="14.00">UsersService</text>
</g>
<!-- UsersService&#45;&gt;UsersModule -->
<g id="edge7" class="edge">
<title>UsersService&#45;&gt;UsersModule</title>
<path fill="none" stroke="black" d="M86,-85.08C86,-106.12 86,-137.8 86,-137.8 86,-137.8 443.22,-137.8 443.22,-137.8"/>
<polygon fill="black" stroke="black" points="443.22,-141.3 453.22,-137.8 443.22,-134.3 443.22,-141.3"/>
</g>
</g>
</svg>
