<?xml version="1.0" encoding="UTF-8" standalone="no"?>
<!DOCTYPE svg PUBLIC "-//W3C//DTD SVG 1.1//EN"
 "http://www.w3.org/Graphics/SVG/1.1/DTD/svg11.dtd">
<!-- Generated by graphviz version 5.0.0 (20220707.1540)
 -->
<!-- Title: dependencies Pages: 1 -->
<svg width="617pt" height="247pt"
 viewBox="0.00 0.00 617.00 246.80" xmlns="http://www.w3.org/2000/svg" xmlns:xlink="http://www.w3.org/1999/xlink">
<g id="graph0" class="graph" transform="scale(1 1) rotate(0) translate(4 242.8)">
<title>dependencies</title>
<polygon fill="white" stroke="transparent" points="-4,4 -4,-242.8 613,-242.8 613,4 -4,4"/>
<text text-anchor="middle" x="304.5" y="-8.2" font-family="sans-serif" font-size="14.00">dependencies</text>
<g id="clust1" class="cluster">
<title>cluster_MailModule</title>
<polygon fill="none" stroke="black" stroke-dasharray="1,5" points="8,-32.8 8,-230.8 601,-230.8 601,-32.8 8,-32.8"/>
</g>
<g id="clust6" class="cluster">
<title>cluster_MailModule_providers</title>
<polygon fill="none" stroke="black" points="16,-40.8 16,-92.8 593,-92.8 593,-40.8 16,-40.8"/>
</g>
<g id="clust4" class="cluster">
<title>cluster_MailModule_exports</title>
<polygon fill="none" stroke="black" points="251,-170.8 251,-222.8 355,-222.8 355,-170.8 251,-170.8"/>
</g>
<!-- MailService  -->
<g id="node1" class="node">
<title>MailService </title>
<polygon fill="#fb8072" stroke="black" points="346.92,-214.8 259.08,-214.8 259.08,-178.8 346.92,-178.8 346.92,-214.8"/>
<text text-anchor="middle" x="303" y="-192.6" font-family="Times,serif" font-size="14.00">MailService </text>
</g>
<!-- MailModule -->
<g id="node2" class="node">
<title>MailModule</title>
<polygon fill="#8dd3c7" stroke="black" points="345.99,-149.8 342.99,-153.8 321.99,-153.8 318.99,-149.8 260.01,-149.8 260.01,-113.8 345.99,-113.8 345.99,-149.8"/>
<text text-anchor="middle" x="303" y="-127.6" font-family="Times,serif" font-size="14.00">MailModule</text>
</g>
<!-- MailModule&#45;&gt;MailService  -->
<g id="edge1" class="edge">
<title>MailModule&#45;&gt;MailService </title>
<path fill="none" stroke="black" stroke-dasharray="5,2" d="M303,-149.91C303,-149.91 303,-168.79 303,-168.79"/>
<polygon fill="black" stroke="black" points="299.5,-168.79 303,-178.79 306.5,-168.79 299.5,-168.79"/>
</g>
<!-- AdminService -->
<g id="node3" class="node">
<title>AdminService</title>
<ellipse fill="#fdb462" stroke="black" cx="518" cy="-66.8" rx="66.64" ry="18"/>
<text text-anchor="middle" x="518" y="-62.6" font-family="Times,serif" font-size="14.00">AdminService</text>
</g>
<!-- AdminService&#45;&gt;MailModule -->
<g id="edge2" class="edge">
<title>AdminService&#45;&gt;MailModule</title>
<path fill="none" stroke="black" d="M518,-84.91C518,-104.14 518,-131.8 518,-131.8 518,-131.8 356.25,-131.8 356.25,-131.8"/>
<polygon fill="black" stroke="black" points="356.25,-128.3 346.25,-131.8 356.25,-135.3 356.25,-128.3"/>
</g>
<!-- MailService -->
<g id="node4" class="node">
<title>MailService</title>
<ellipse fill="#fdb462" stroke="black" cx="375" cy="-66.8" rx="58.46" ry="18"/>
<text text-anchor="middle" x="375" y="-62.6" font-family="Times,serif" font-size="14.00">MailService</text>
</g>
<!-- MailService&#45;&gt;MailModule -->
<g id="edge3" class="edge">
<title>MailService&#45;&gt;MailModule</title>
<path fill="none" stroke="black" d="M331.38,-79.03C331.38,-79.03 331.38,-103.48 331.38,-103.48"/>
<polygon fill="black" stroke="black" points="327.88,-103.48 331.38,-113.48 334.88,-103.48 327.88,-103.48"/>
</g>
<!-- OwnerService -->
<g id="node5" class="node">
<title>OwnerService</title>
<ellipse fill="#fdb462" stroke="black" cx="232" cy="-66.8" rx="66.04" ry="18"/>
<text text-anchor="middle" x="232" y="-62.6" font-family="Times,serif" font-size="14.00">OwnerService</text>
</g>
<!-- OwnerService&#45;&gt;MailModule -->
<g id="edge4" class="edge">
<title>OwnerService&#45;&gt;MailModule</title>
<path fill="none" stroke="black" d="M279.14,-79.64C279.14,-79.64 279.14,-103.32 279.14,-103.32"/>
<polygon fill="black" stroke="black" points="275.64,-103.32 279.14,-113.32 282.64,-103.32 275.64,-103.32"/>
</g>
<!-- UsersService -->
<g id="node6" class="node">
<title>UsersService</title>
<ellipse fill="#fdb462" stroke="black" cx="86" cy="-66.8" rx="61.97" ry="18"/>
<text text-anchor="middle" x="86" y="-62.6" font-family="Times,serif" font-size="14.00">UsersService</text>
</g>
<!-- UsersService&#45;&gt;MailModule -->
<g id="edge5" class="edge">
<title>UsersService&#45;&gt;MailModule</title>
<path fill="none" stroke="black" d="M86,-84.91C86,-104.14 86,-131.8 86,-131.8 86,-131.8 249.87,-131.8 249.87,-131.8"/>
<polygon fill="black" stroke="black" points="249.87,-135.3 259.87,-131.8 249.87,-128.3 249.87,-135.3"/>
</g>
</g>
</svg>
