<?xml version="1.0" encoding="UTF-8" standalone="no"?>
<!DOCTYPE svg PUBLIC "-//W3C//DTD SVG 1.1//EN"
 "http://www.w3.org/Graphics/SVG/1.1/DTD/svg11.dtd">
<!-- Generated by graphviz version 5.0.0 (20220707.1540)
 -->
<!-- Title: dependencies Pages: 1 -->
<svg width="1066pt" height="247pt"
 viewBox="0.00 0.00 1066.00 246.80" xmlns="http://www.w3.org/2000/svg" xmlns:xlink="http://www.w3.org/1999/xlink">
<g id="graph0" class="graph" transform="scale(1 1) rotate(0) translate(4 242.8)">
<title>dependencies</title>
<polygon fill="white" stroke="transparent" points="-4,4 -4,-242.8 1062,-242.8 1062,4 -4,4"/>
<text text-anchor="middle" x="529" y="-8.2" font-family="sans-serif" font-size="14.00">dependencies</text>
<g id="clust1" class="cluster">
<title>cluster_AuthModule</title>
<polygon fill="none" stroke="black" stroke-dasharray="1,5" points="8,-32.8 8,-230.8 1050,-230.8 1050,-32.8 8,-32.8"/>
</g>
<g id="clust4" class="cluster">
<title>cluster_AuthModule_exports</title>
<polygon fill="none" stroke="black" points="298,-170.8 298,-222.8 765,-222.8 765,-170.8 298,-170.8"/>
</g>
<g id="clust6" class="cluster">
<title>cluster_AuthModule_providers</title>
<polygon fill="none" stroke="black" points="16,-40.8 16,-92.8 1042,-92.8 1042,-40.8 16,-40.8"/>
</g>
<!-- AdminJwtRefreshService  -->
<g id="node1" class="node">
<title>AdminJwtRefreshService </title>
<polygon fill="#fb8072" stroke="black" points="756.86,-214.8 593.14,-214.8 593.14,-178.8 756.86,-178.8 756.86,-214.8"/>
<text text-anchor="middle" x="675" y="-192.6" font-family="Times,serif" font-size="14.00">AdminJwtRefreshService </text>
</g>
<!-- AuthService  -->
<g id="node2" class="node">
<title>AuthService </title>
<polygon fill="#fb8072" stroke="black" points="575.98,-214.8 486.02,-214.8 486.02,-178.8 575.98,-178.8 575.98,-214.8"/>
<text text-anchor="middle" x="531" y="-192.6" font-family="Times,serif" font-size="14.00">AuthService </text>
</g>
<!-- OwnerJwtRefreshService  -->
<g id="node3" class="node">
<title>OwnerJwtRefreshService </title>
<polygon fill="#fb8072" stroke="black" points="468.06,-214.8 305.94,-214.8 305.94,-178.8 468.06,-178.8 468.06,-214.8"/>
<text text-anchor="middle" x="387" y="-192.6" font-family="Times,serif" font-size="14.00">OwnerJwtRefreshService </text>
</g>
<!-- AuthModule -->
<g id="node4" class="node">
<title>AuthModule</title>
<polygon fill="#8dd3c7" stroke="black" points="574.55,-149.8 571.55,-153.8 550.55,-153.8 547.55,-149.8 487.45,-149.8 487.45,-113.8 574.55,-113.8 574.55,-149.8"/>
<text text-anchor="middle" x="531" y="-127.6" font-family="Times,serif" font-size="14.00">AuthModule</text>
</g>
<!-- AuthModule&#45;&gt;AdminJwtRefreshService  -->
<g id="edge1" class="edge">
<title>AuthModule&#45;&gt;AdminJwtRefreshService </title>
<path fill="none" stroke="black" stroke-dasharray="5,2" d="M574.8,-140.8C599.64,-140.8 625.81,-140.8 625.81,-140.8 625.81,-140.8 625.81,-168.77 625.81,-168.77"/>
<polygon fill="black" stroke="black" points="622.31,-168.77 625.81,-178.77 629.31,-168.77 622.31,-168.77"/>
</g>
<!-- AuthModule&#45;&gt;AuthService  -->
<g id="edge2" class="edge">
<title>AuthModule&#45;&gt;AuthService </title>
<path fill="none" stroke="black" stroke-dasharray="5,2" d="M531,-149.91C531,-149.91 531,-168.79 531,-168.79"/>
<polygon fill="black" stroke="black" points="527.5,-168.79 531,-178.79 534.5,-168.79 527.5,-168.79"/>
</g>
<!-- AuthModule&#45;&gt;OwnerJwtRefreshService  -->
<g id="edge3" class="edge">
<title>AuthModule&#45;&gt;OwnerJwtRefreshService </title>
<path fill="none" stroke="black" stroke-dasharray="5,2" d="M487.36,-140.8C462.6,-140.8 436.52,-140.8 436.52,-140.8 436.52,-140.8 436.52,-168.77 436.52,-168.77"/>
<polygon fill="black" stroke="black" points="433.02,-168.77 436.52,-178.77 440.02,-168.77 433.02,-168.77"/>
</g>
<!-- AdminJwtRefreshService -->
<g id="node5" class="node">
<title>AdminJwtRefreshService</title>
<ellipse fill="#fdb462" stroke="black" cx="924" cy="-66.8" rx="110.03" ry="18"/>
<text text-anchor="middle" x="924" y="-62.6" font-family="Times,serif" font-size="14.00">AdminJwtRefreshService</text>
</g>
<!-- AdminJwtRefreshService&#45;&gt;AuthModule -->
<g id="edge4" class="edge">
<title>AdminJwtRefreshService&#45;&gt;AuthModule</title>
<path fill="none" stroke="black" d="M924,-84.91C924,-104.14 924,-131.8 924,-131.8 924,-131.8 584.56,-131.8 584.56,-131.8"/>
<polygon fill="black" stroke="black" points="584.56,-128.3 574.56,-131.8 584.56,-135.3 584.56,-128.3"/>
</g>
<!-- AppListener -->
<g id="node6" class="node">
<title>AppListener</title>
<ellipse fill="#fdb462" stroke="black" cx="736" cy="-66.8" rx="59.11" ry="18"/>
<text text-anchor="middle" x="736" y="-62.6" font-family="Times,serif" font-size="14.00">AppListener</text>
</g>
<!-- AppListener&#45;&gt;AuthModule -->
<g id="edge5" class="edge">
<title>AppListener&#45;&gt;AuthModule</title>
<path fill="none" stroke="black" d="M716.69,-83.91C716.69,-100.37 716.69,-122.8 716.69,-122.8 716.69,-122.8 585,-122.8 585,-122.8"/>
<polygon fill="black" stroke="black" points="585,-119.3 575,-122.8 585,-126.3 585,-119.3"/>
</g>
<!-- AuthService -->
<g id="node7" class="node">
<title>AuthService</title>
<ellipse fill="#fdb462" stroke="black" cx="599" cy="-66.8" rx="59.11" ry="18"/>
<text text-anchor="middle" x="599" y="-62.6" font-family="Times,serif" font-size="14.00">AuthService</text>
</g>
<!-- AuthService&#45;&gt;AuthModule -->
<g id="edge6" class="edge">
<title>AuthService&#45;&gt;AuthModule</title>
<path fill="none" stroke="black" d="M557.23,-79.64C557.23,-79.64 557.23,-103.32 557.23,-103.32"/>
<polygon fill="black" stroke="black" points="553.73,-103.32 557.23,-113.32 560.73,-103.32 553.73,-103.32"/>
</g>
<!-- MailService -->
<g id="node8" class="node">
<title>MailService</title>
<ellipse fill="#fdb462" stroke="black" cx="463" cy="-66.8" rx="58.46" ry="18"/>
<text text-anchor="middle" x="463" y="-62.6" font-family="Times,serif" font-size="14.00">MailService</text>
</g>
<!-- MailService&#45;&gt;AuthModule -->
<g id="edge7" class="edge">
<title>MailService&#45;&gt;AuthModule</title>
<path fill="none" stroke="black" d="M504.23,-79.64C504.23,-79.64 504.23,-103.32 504.23,-103.32"/>
<polygon fill="black" stroke="black" points="500.73,-103.32 504.23,-113.32 507.73,-103.32 500.73,-103.32"/>
</g>
<!-- OwnerJwtRefreshService -->
<g id="node9" class="node">
<title>OwnerJwtRefreshService</title>
<ellipse fill="#fdb462" stroke="black" cx="277" cy="-66.8" rx="109.94" ry="18"/>
<text text-anchor="middle" x="277" y="-62.6" font-family="Times,serif" font-size="14.00">OwnerJwtRefreshService</text>
</g>
<!-- OwnerJwtRefreshService&#45;&gt;AuthModule -->
<g id="edge8" class="edge">
<title>OwnerJwtRefreshService&#45;&gt;AuthModule</title>
<path fill="none" stroke="black" d="M346.22,-80.93C346.22,-97.52 346.22,-122.8 346.22,-122.8 346.22,-122.8 477.21,-122.8 477.21,-122.8"/>
<polygon fill="black" stroke="black" points="477.21,-126.3 487.21,-122.8 477.21,-119.3 477.21,-126.3"/>
</g>
<!-- TasksService -->
<g id="node10" class="node">
<title>TasksService</title>
<ellipse fill="#fdb462" stroke="black" cx="87" cy="-66.8" rx="62.55" ry="18"/>
<text text-anchor="middle" x="87" y="-62.6" font-family="Times,serif" font-size="14.00">TasksService</text>
</g>
<!-- TasksService&#45;&gt;AuthModule -->
<g id="edge9" class="edge">
<title>TasksService&#45;&gt;AuthModule</title>
<path fill="none" stroke="black" d="M87,-84.91C87,-104.14 87,-131.8 87,-131.8 87,-131.8 477.21,-131.8 477.21,-131.8"/>
<polygon fill="black" stroke="black" points="477.21,-135.3 487.21,-131.8 477.21,-128.3 477.21,-135.3"/>
</g>
</g>
</svg>
