<?xml version="1.0" encoding="UTF-8" standalone="no"?>
<!DOCTYPE svg PUBLIC "-//W3C//DTD SVG 1.1//EN"
 "http://www.w3.org/Graphics/SVG/1.1/DTD/svg11.dtd">
<!-- Generated by graphviz version 5.0.0 (20220707.1540)
 -->
<!-- Title: dependencies Pages: 1 -->
<svg width="1235pt" height="247pt"
 viewBox="0.00 0.00 1235.00 246.80" xmlns="http://www.w3.org/2000/svg" xmlns:xlink="http://www.w3.org/1999/xlink">
<g id="graph0" class="graph" transform="scale(1 1) rotate(0) translate(4 242.8)">
<title>dependencies</title>
<polygon fill="white" stroke="transparent" points="-4,4 -4,-242.8 1231,-242.8 1231,4 -4,4"/>
<text text-anchor="middle" x="613.5" y="-8.2" font-family="sans-serif" font-size="14.00">dependencies</text>
<g id="clust1" class="cluster">
<title>cluster_AuthModule</title>
<polygon fill="none" stroke="black" stroke-dasharray="1,5" points="8,-32.8 8,-230.8 1219,-230.8 1219,-32.8 8,-32.8"/>
</g>
<g id="clust4" class="cluster">
<title>cluster_AuthModule_exports</title>
<polygon fill="none" stroke="black" points="382,-170.8 382,-222.8 849,-222.8 849,-170.8 382,-170.8"/>
</g>
<g id="clust6" class="cluster">
<title>cluster_AuthModule_providers</title>
<polygon fill="none" stroke="black" points="16,-40.8 16,-92.8 1211,-92.8 1211,-40.8 16,-40.8"/>
</g>
<!-- AdminJwtRefreshService  -->
<g id="node1" class="node">
<title>AdminJwtRefreshService </title>
<polygon fill="#fb8072" stroke="black" points="840.86,-214.8 677.14,-214.8 677.14,-178.8 840.86,-178.8 840.86,-214.8"/>
<text text-anchor="middle" x="759" y="-192.6" font-family="Times,serif" font-size="14.00">AdminJwtRefreshService </text>
</g>
<!-- AuthService  -->
<g id="node2" class="node">
<title>AuthService </title>
<polygon fill="#fb8072" stroke="black" points="659.98,-214.8 570.02,-214.8 570.02,-178.8 659.98,-178.8 659.98,-214.8"/>
<text text-anchor="middle" x="615" y="-192.6" font-family="Times,serif" font-size="14.00">AuthService </text>
</g>
<!-- OwnerJwtRefreshService  -->
<g id="node3" class="node">
<title>OwnerJwtRefreshService </title>
<polygon fill="#fb8072" stroke="black" points="552.06,-214.8 389.94,-214.8 389.94,-178.8 552.06,-178.8 552.06,-214.8"/>
<text text-anchor="middle" x="471" y="-192.6" font-family="Times,serif" font-size="14.00">OwnerJwtRefreshService </text>
</g>
<!-- AuthModule -->
<g id="node4" class="node">
<title>AuthModule</title>
<polygon fill="#8dd3c7" stroke="black" points="658.55,-149.8 655.55,-153.8 634.55,-153.8 631.55,-149.8 571.45,-149.8 571.45,-113.8 658.55,-113.8 658.55,-149.8"/>
<text text-anchor="middle" x="615" y="-127.6" font-family="Times,serif" font-size="14.00">AuthModule</text>
</g>
<!-- AuthModule&#45;&gt;AdminJwtRefreshService  -->
<g id="edge1" class="edge">
<title>AuthModule&#45;&gt;AdminJwtRefreshService </title>
<path fill="none" stroke="black" stroke-dasharray="5,2" d="M658.78,-142.8C672.49,-142.8 684.12,-142.8 684.12,-142.8 684.12,-142.8 684.12,-168.52 684.12,-168.52"/>
<polygon fill="black" stroke="black" points="680.62,-168.52 684.12,-178.52 687.62,-168.52 680.62,-168.52"/>
</g>
<!-- AuthModule&#45;&gt;AuthService  -->
<g id="edge2" class="edge">
<title>AuthModule&#45;&gt;AuthService </title>
<path fill="none" stroke="black" stroke-dasharray="5,2" d="M615,-149.91C615,-149.91 615,-168.79 615,-168.79"/>
<polygon fill="black" stroke="black" points="611.5,-168.79 615,-178.79 618.5,-168.79 611.5,-168.79"/>
</g>
<!-- AuthModule&#45;&gt;OwnerJwtRefreshService  -->
<g id="edge3" class="edge">
<title>AuthModule&#45;&gt;OwnerJwtRefreshService </title>
<path fill="none" stroke="black" stroke-dasharray="5,2" d="M571.1,-142.8C557.34,-142.8 545.68,-142.8 545.68,-142.8 545.68,-142.8 545.68,-168.52 545.68,-168.52"/>
<polygon fill="black" stroke="black" points="542.18,-168.52 545.68,-178.52 549.18,-168.52 542.18,-168.52"/>
</g>
<!-- AdminJwtRefreshService -->
<g id="node5" class="node">
<title>AdminJwtRefreshService</title>
<ellipse fill="#fdb462" stroke="black" cx="1093" cy="-66.8" rx="110.03" ry="18"/>
<text text-anchor="middle" x="1093" y="-62.6" font-family="Times,serif" font-size="14.00">AdminJwtRefreshService</text>
</g>
<!-- AdminJwtRefreshService&#45;&gt;AuthModule -->
<g id="edge4" class="edge">
<title>AdminJwtRefreshService&#45;&gt;AuthModule</title>
<path fill="none" stroke="black" d="M1093,-84.93C1093,-105.37 1093,-135.8 1093,-135.8 1093,-135.8 668.69,-135.8 668.69,-135.8"/>
<polygon fill="black" stroke="black" points="668.69,-132.3 658.69,-135.8 668.69,-139.3 668.69,-132.3"/>
</g>
<!-- AppListener -->
<g id="node6" class="node">
<title>AppListener</title>
<ellipse fill="#fdb462" stroke="black" cx="905" cy="-66.8" rx="59.11" ry="18"/>
<text text-anchor="middle" x="905" y="-62.6" font-family="Times,serif" font-size="14.00">AppListener</text>
</g>
<!-- AppListener&#45;&gt;AuthModule -->
<g id="edge5" class="edge">
<title>AppListener&#45;&gt;AuthModule</title>
<path fill="none" stroke="black" d="M905,-85.07C905,-103.36 905,-128.8 905,-128.8 905,-128.8 668.73,-128.8 668.73,-128.8"/>
<polygon fill="black" stroke="black" points="668.73,-125.3 658.73,-128.8 668.73,-132.3 668.73,-125.3"/>
</g>
<!-- AuthService -->
<g id="node7" class="node">
<title>AuthService</title>
<ellipse fill="#fdb462" stroke="black" cx="768" cy="-66.8" rx="59.11" ry="18"/>
<text text-anchor="middle" x="768" y="-62.6" font-family="Times,serif" font-size="14.00">AuthService</text>
</g>
<!-- AuthService&#45;&gt;AuthModule -->
<g id="edge6" class="edge">
<title>AuthService&#45;&gt;AuthModule</title>
<path fill="none" stroke="black" d="M768,-84.81C768,-100.85 768,-121.8 768,-121.8 768,-121.8 668.84,-121.8 668.84,-121.8"/>
<polygon fill="black" stroke="black" points="668.84,-118.3 658.84,-121.8 668.84,-125.3 668.84,-118.3"/>
</g>
<!-- CurrencyService -->
<g id="node8" class="node">
<title>CurrencyService</title>
<ellipse fill="#fdb462" stroke="black" cx="615" cy="-66.8" rx="75.85" ry="18"/>
<text text-anchor="middle" x="615" y="-62.6" font-family="Times,serif" font-size="14.00">CurrencyService</text>
</g>
<!-- CurrencyService&#45;&gt;AuthModule -->
<g id="edge7" class="edge">
<title>CurrencyService&#45;&gt;AuthModule</title>
<path fill="none" stroke="black" d="M615,-84.91C615,-84.91 615,-103.79 615,-103.79"/>
<polygon fill="black" stroke="black" points="611.5,-103.79 615,-113.79 618.5,-103.79 611.5,-103.79"/>
</g>
<!-- MailService -->
<g id="node9" class="node">
<title>MailService</title>
<ellipse fill="#fdb462" stroke="black" cx="463" cy="-66.8" rx="58.46" ry="18"/>
<text text-anchor="middle" x="463" y="-62.6" font-family="Times,serif" font-size="14.00">MailService</text>
</g>
<!-- MailService&#45;&gt;AuthModule -->
<g id="edge8" class="edge">
<title>MailService&#45;&gt;AuthModule</title>
<path fill="none" stroke="black" d="M463,-84.81C463,-100.85 463,-121.8 463,-121.8 463,-121.8 561.44,-121.8 561.44,-121.8"/>
<polygon fill="black" stroke="black" points="561.44,-125.3 571.44,-121.8 561.44,-118.3 561.44,-125.3"/>
</g>
<!-- OwnerJwtRefreshService -->
<g id="node10" class="node">
<title>OwnerJwtRefreshService</title>
<ellipse fill="#fdb462" stroke="black" cx="277" cy="-66.8" rx="109.94" ry="18"/>
<text text-anchor="middle" x="277" y="-62.6" font-family="Times,serif" font-size="14.00">OwnerJwtRefreshService</text>
</g>
<!-- OwnerJwtRefreshService&#45;&gt;AuthModule -->
<g id="edge9" class="edge">
<title>OwnerJwtRefreshService&#45;&gt;AuthModule</title>
<path fill="none" stroke="black" d="M277,-85.07C277,-103.36 277,-128.8 277,-128.8 277,-128.8 561.16,-128.8 561.16,-128.8"/>
<polygon fill="black" stroke="black" points="561.16,-132.3 571.16,-128.8 561.16,-125.3 561.16,-132.3"/>
</g>
<!-- TasksService -->
<g id="node11" class="node">
<title>TasksService</title>
<ellipse fill="#fdb462" stroke="black" cx="87" cy="-66.8" rx="62.55" ry="18"/>
<text text-anchor="middle" x="87" y="-62.6" font-family="Times,serif" font-size="14.00">TasksService</text>
</g>
<!-- TasksService&#45;&gt;AuthModule -->
<g id="edge10" class="edge">
<title>TasksService&#45;&gt;AuthModule</title>
<path fill="none" stroke="black" d="M87,-84.93C87,-105.37 87,-135.8 87,-135.8 87,-135.8 561.34,-135.8 561.34,-135.8"/>
<polygon fill="black" stroke="black" points="561.34,-139.3 571.34,-135.8 561.34,-132.3 561.34,-139.3"/>
</g>
</g>
</svg>
