<svg width="24" height="25" viewBox="0 0 24 25" fill="none" xmlns="http://www.w3.org/2000/svg">
<path d="M12 15.5C14.0711 15.5 15.75 13.8211 15.75 11.75C15.75 9.67893 14.0711 8 12 8C9.92893 8 8.25 9.67893 8.25 11.75C8.25 13.8211 9.92893 15.5 12 15.5Z" stroke="white" stroke-width="1.5" stroke-miterlimit="10"/>
<path d="M5.98145 19.1913C6.54639 18.0806 7.40768 17.1478 8.46997 16.4963C9.53226 15.8448 10.7541 15.5 12.0003 15.5C13.2464 15.5 14.4683 15.8448 15.5306 16.4963C16.5929 17.1478 17.4542 18.0806 18.0191 19.1913" stroke="white" stroke-width="1.5" stroke-linecap="round" stroke-linejoin="round"/>
<path d="M18.75 7.25C19.5784 7.25 20.25 6.57843 20.25 5.75C20.25 4.92157 19.5784 4.25 18.75 4.25C17.9216 4.25 17.25 4.92157 17.25 5.75C17.25 6.57843 17.9216 7.25 18.75 7.25Z" stroke="white" stroke-width="1.5" stroke-linecap="round" stroke-linejoin="round"/>
<path d="M18.75 4.25V3.125" stroke="white" stroke-width="1.5" stroke-linecap="round" stroke-linejoin="round"/>
<path d="M17.4508 5L16.4766 4.4375" stroke="white" stroke-width="1.5" stroke-linecap="round" stroke-linejoin="round"/>
<path d="M17.4508 6.5L16.4766 7.0625" stroke="white" stroke-width="1.5" stroke-linecap="round" stroke-linejoin="round"/>
<path d="M18.75 7.25V8.375" stroke="white" stroke-width="1.5" stroke-linecap="round" stroke-linejoin="round"/>
<path d="M20.0488 6.5L21.0231 7.0625" stroke="white" stroke-width="1.5" stroke-linecap="round" stroke-linejoin="round"/>
<path d="M20.0488 5L21.0231 4.4375" stroke="white" stroke-width="1.5" stroke-linecap="round" stroke-linejoin="round"/>
<path d="M20.9361 11.4219C20.9787 11.7797 21.0001 12.1397 21 12.5C21 14.28 20.4722 16.0201 19.4832 17.5001C18.4943 18.9802 17.0887 20.1337 15.4442 20.8149C13.7996 21.4961 11.99 21.6743 10.2442 21.3271C8.49836 20.9798 6.89472 20.1226 5.63604 18.864C4.37737 17.6053 3.5202 16.0016 3.17294 14.2558C2.82567 12.51 3.0039 10.7004 3.68509 9.05585C4.36628 7.41131 5.51983 6.00571 6.99987 5.01677C8.47991 4.02784 10.22 3.5 12 3.5C12.2816 3.5 12.56 3.51275 12.8352 3.53824" stroke="white" stroke-width="1.5" stroke-linecap="round" stroke-linejoin="round"/>
</svg>
