<svg width="24" height="25" viewBox="0 0 24 25" fill="none" xmlns="http://www.w3.org/2000/svg">
<path d="M12 17.75C14.8995 17.75 17.25 15.3995 17.25 12.5C17.25 9.60051 14.8995 7.25 12 7.25C9.10051 7.25 6.75 9.60051 6.75 12.5C6.75 15.3995 9.10051 17.75 12 17.75Z" stroke="white" stroke-width="1.5" stroke-linecap="round" stroke-linejoin="round"/>
<path d="M20.2498 11.75L21.2161 10.3006C21.279 10.2072 21.3207 10.1011 21.338 9.98984C21.3554 9.87856 21.348 9.76483 21.3165 9.65671C21.1342 9.05644 20.8939 8.47532 20.5991 7.92156C20.5451 7.82299 20.47 7.73755 20.3791 7.67135C20.2883 7.60515 20.184 7.55983 20.0736 7.53861L18.3638 7.19662L17.3031 6.13598L16.9611 4.42611C16.9399 4.31572 16.8946 4.21138 16.8284 4.12054C16.7622 4.02969 16.6767 3.95458 16.5782 3.90058C16.0244 3.60581 15.4432 3.36559 14.843 3.18331C14.7348 3.15176 14.6211 3.1444 14.5098 3.16174C14.3985 3.17909 14.2925 3.22073 14.1991 3.28369L12.7498 4.2499H11.2498L9.80045 3.28369C9.70707 3.22073 9.60097 3.17909 9.4897 3.16175C9.37842 3.1444 9.26468 3.15176 9.15657 3.18331C8.55629 3.36558 7.97516 3.6058 7.42138 3.90057C7.32279 3.95458 7.23734 4.02969 7.17113 4.12054C7.10493 4.21139 7.0596 4.31573 7.03839 4.42613L6.69648 6.13589L5.63575 7.19662L3.92597 7.53852C3.81558 7.55974 3.71124 7.60506 3.6204 7.67126C3.52955 7.73746 3.45444 7.8229 3.40044 7.92149C3.10562 8.47527 2.86536 9.05642 2.68306 9.65672C2.65151 9.76483 2.64415 9.87856 2.6615 9.98984C2.67886 10.1011 2.72049 10.2072 2.78346 10.3006L3.74967 11.7499V13.2499L2.78345 14.6992C2.72049 14.7926 2.67886 14.8987 2.66151 15.01C2.64416 15.1212 2.65152 15.235 2.68307 15.3431C2.86532 15.9434 3.10554 16.5245 3.40033 17.0783C3.45434 17.1769 3.52945 17.2623 3.62029 17.3285C3.71114 17.3947 3.81547 17.4401 3.92586 17.4613L5.63575 17.8033L6.69639 18.8639L7.0383 20.5738C7.05951 20.6842 7.10484 20.7885 7.17103 20.8794C7.23723 20.9702 7.32267 21.0453 7.42125 21.0993C7.975 21.3941 8.55613 21.6344 9.15642 21.8166C9.26452 21.8482 9.37825 21.8555 9.48952 21.8382C9.60079 21.8208 9.70687 21.7792 9.80024 21.7162L11.2497 20.75H12.7497L14.1991 21.7163C14.2925 21.7793 14.3985 21.8209 14.5098 21.8382C14.6211 21.8556 14.7348 21.8482 14.8429 21.8167C15.4432 21.6344 16.0243 21.3942 16.5781 21.0994C16.6767 21.0454 16.7621 20.9703 16.8283 20.8795C16.8945 20.7886 16.9398 20.6843 16.961 20.5739L17.303 18.864L18.3637 17.8033L20.0736 17.4614C20.1839 17.4402 20.2883 17.3948 20.3791 17.3286C20.47 17.2624 20.5451 17.177 20.5991 17.0784C20.8939 16.5247 21.1342 15.9435 21.3165 15.3433C21.348 15.2352 21.3554 15.1214 21.338 15.0101C21.3207 14.8989 21.279 14.7928 21.2161 14.6994L20.2498 13.25V11.75Z" stroke="white" stroke-width="1.5" stroke-linecap="round" stroke-linejoin="round"/>
</svg>
