<?xml version="1.0" encoding="UTF-8" standalone="no"?>
<!DOCTYPE svg PUBLIC "-//W3C//DTD SVG 1.1//EN"
 "http://www.w3.org/Graphics/SVG/1.1/DTD/svg11.dtd">
<!-- Generated by graphviz version 5.0.0 (20220707.1540)
 -->
<!-- Title: dependencies Pages: 1 -->
<svg width="378pt" height="247pt"
 viewBox="0.00 0.00 378.00 246.80" xmlns="http://www.w3.org/2000/svg" xmlns:xlink="http://www.w3.org/1999/xlink">
<g id="graph0" class="graph" transform="scale(1 1) rotate(0) translate(4 242.8)">
<title>dependencies</title>
<polygon fill="white" stroke="transparent" points="-4,4 -4,-242.8 374,-242.8 374,4 -4,4"/>
<text text-anchor="middle" x="185" y="-8.2" font-family="sans-serif" font-size="14.00">dependencies</text>
<g id="clust1" class="cluster">
<title>cluster_CategoriesColoursModule</title>
<polygon fill="none" stroke="black" stroke-dasharray="1,5" points="8,-32.8 8,-230.8 362,-230.8 362,-32.8 8,-32.8"/>
</g>
<g id="clust4" class="cluster">
<title>cluster_CategoriesColoursModule_exports</title>
<polygon fill="none" stroke="black" points="54,-170.8 54,-222.8 316,-222.8 316,-170.8 54,-170.8"/>
</g>
<g id="clust6" class="cluster">
<title>cluster_CategoriesColoursModule_providers</title>
<polygon fill="none" stroke="black" points="16,-40.8 16,-92.8 354,-92.8 354,-40.8 16,-40.8"/>
</g>
<!-- CategoriesService  -->
<g id="node1" class="node">
<title>CategoriesService </title>
<polygon fill="#fb8072" stroke="black" points="307.85,-214.8 186.15,-214.8 186.15,-178.8 307.85,-178.8 307.85,-214.8"/>
<text text-anchor="middle" x="247" y="-192.6" font-family="Times,serif" font-size="14.00">CategoriesService </text>
</g>
<!-- ColoursService  -->
<g id="node2" class="node">
<title>ColoursService </title>
<polygon fill="#fb8072" stroke="black" points="167.82,-214.8 62.18,-214.8 62.18,-178.8 167.82,-178.8 167.82,-214.8"/>
<text text-anchor="middle" x="115" y="-192.6" font-family="Times,serif" font-size="14.00">ColoursService </text>
</g>
<!-- CategoriesColoursModule -->
<g id="node3" class="node">
<title>CategoriesColoursModule</title>
<polygon fill="#8dd3c7" stroke="black" points="234.76,-149.8 231.76,-153.8 210.76,-153.8 207.76,-149.8 71.24,-149.8 71.24,-113.8 234.76,-113.8 234.76,-149.8"/>
<text text-anchor="middle" x="153" y="-127.6" font-family="Times,serif" font-size="14.00">CategoriesColoursModule</text>
</g>
<!-- CategoriesColoursModule&#45;&gt;CategoriesService  -->
<g id="edge1" class="edge">
<title>CategoriesColoursModule&#45;&gt;CategoriesService </title>
<path fill="none" stroke="black" stroke-dasharray="5,2" d="M210.6,-149.91C210.6,-149.91 210.6,-168.79 210.6,-168.79"/>
<polygon fill="black" stroke="black" points="207.1,-168.79 210.6,-178.79 214.1,-168.79 207.1,-168.79"/>
</g>
<!-- CategoriesColoursModule&#45;&gt;ColoursService  -->
<g id="edge2" class="edge">
<title>CategoriesColoursModule&#45;&gt;ColoursService </title>
<path fill="none" stroke="black" stroke-dasharray="5,2" d="M119.51,-149.91C119.51,-149.91 119.51,-168.79 119.51,-168.79"/>
<polygon fill="black" stroke="black" points="116.01,-168.79 119.51,-178.79 123.01,-168.79 116.01,-168.79"/>
</g>
<!-- CategoriesService -->
<g id="node4" class="node">
<title>CategoriesService</title>
<ellipse fill="#fdb462" stroke="black" cx="265" cy="-66.8" rx="81.08" ry="18"/>
<text text-anchor="middle" x="265" y="-62.6" font-family="Times,serif" font-size="14.00">CategoriesService</text>
</g>
<!-- CategoriesService&#45;&gt;CategoriesColoursModule -->
<g id="edge3" class="edge">
<title>CategoriesService&#45;&gt;CategoriesColoursModule</title>
<path fill="none" stroke="black" d="M209.29,-79.95C209.29,-79.95 209.29,-103.49 209.29,-103.49"/>
<polygon fill="black" stroke="black" points="205.79,-103.49 209.29,-113.49 212.79,-103.49 205.79,-103.49"/>
</g>
<!-- ColoursService -->
<g id="node5" class="node">
<title>ColoursService</title>
<ellipse fill="#fdb462" stroke="black" cx="95" cy="-66.8" rx="70.65" ry="18"/>
<text text-anchor="middle" x="95" y="-62.6" font-family="Times,serif" font-size="14.00">ColoursService</text>
</g>
<!-- ColoursService&#45;&gt;CategoriesColoursModule -->
<g id="edge4" class="edge">
<title>ColoursService&#45;&gt;CategoriesColoursModule</title>
<path fill="none" stroke="black" d="M118.35,-83.88C118.35,-83.88 118.35,-103.7 118.35,-103.7"/>
<polygon fill="black" stroke="black" points="114.85,-103.7 118.35,-113.7 121.85,-103.7 114.85,-103.7"/>
</g>
</g>
</svg>
