<?xml version="1.0" encoding="UTF-8" standalone="no"?>
<!DOCTYPE svg PUBLIC "-//W3C//DTD SVG 1.1//EN"
 "http://www.w3.org/Graphics/SVG/1.1/DTD/svg11.dtd">
<!-- Generated by graphviz version 5.0.0 (20220707.1540)
 -->
<!-- Title: dependencies Pages: 1 -->
<svg width="1114pt" height="247pt"
 viewBox="0.00 0.00 1114.00 246.80" xmlns="http://www.w3.org/2000/svg" xmlns:xlink="http://www.w3.org/1999/xlink">
<g id="graph0" class="graph" transform="scale(1 1) rotate(0) translate(4 242.8)">
<title>dependencies</title>
<polygon fill="white" stroke="transparent" points="-4,4 -4,-242.8 1110,-242.8 1110,4 -4,4"/>
<text text-anchor="middle" x="553" y="-8.2" font-family="sans-serif" font-size="14.00">dependencies</text>
<g id="clust1" class="cluster">
<title>cluster_OwnerModule</title>
<polygon fill="none" stroke="black" stroke-dasharray="1,5" points="8,-32.8 8,-230.8 1098,-230.8 1098,-32.8 8,-32.8"/>
</g>
<g id="clust4" class="cluster">
<title>cluster_OwnerModule_exports</title>
<polygon fill="none" stroke="black" points="360,-170.8 360,-222.8 656,-222.8 656,-170.8 360,-170.8"/>
</g>
<g id="clust6" class="cluster">
<title>cluster_OwnerModule_providers</title>
<polygon fill="none" stroke="black" points="132,-40.8 132,-92.8 1090,-92.8 1090,-40.8 132,-40.8"/>
</g>
<g id="clust3" class="cluster">
<title>cluster_OwnerModule_imports</title>
<polygon fill="none" stroke="black" points="16,-40.8 16,-92.8 124,-92.8 124,-40.8 16,-40.8"/>
</g>
<!-- RolesModule -->
<g id="node1" class="node">
<title>RolesModule</title>
<polygon fill="#8dd3c7" stroke="black" points="115.94,-84.8 112.94,-88.8 91.94,-88.8 88.94,-84.8 24.06,-84.8 24.06,-48.8 115.94,-48.8 115.94,-84.8"/>
<text text-anchor="middle" x="70" y="-62.6" font-family="Times,serif" font-size="14.00">RolesModule</text>
</g>
<!-- OwnerModule -->
<g id="node2" class="node">
<title>OwnerModule</title>
<polygon fill="#8dd3c7" stroke="black" points="540.65,-149.8 537.65,-153.8 516.65,-153.8 513.65,-149.8 443.35,-149.8 443.35,-113.8 540.65,-113.8 540.65,-149.8"/>
<text text-anchor="middle" x="492" y="-127.6" font-family="Times,serif" font-size="14.00">OwnerModule</text>
</g>
<!-- RolesModule&#45;&gt;OwnerModule -->
<g id="edge1" class="edge">
<title>RolesModule&#45;&gt;OwnerModule</title>
<path fill="none" stroke="black" d="M70,-85.09C70,-107.01 70,-140.8 70,-140.8 70,-140.8 433.18,-140.8 433.18,-140.8"/>
<polygon fill="black" stroke="black" points="433.18,-144.3 443.18,-140.8 433.18,-137.3 433.18,-144.3"/>
</g>
<!-- OwnerJwtRefreshService  -->
<g id="node3" class="node">
<title>OwnerJwtRefreshService </title>
<polygon fill="#fb8072" stroke="black" points="648.06,-214.8 485.94,-214.8 485.94,-178.8 648.06,-178.8 648.06,-214.8"/>
<text text-anchor="middle" x="567" y="-192.6" font-family="Times,serif" font-size="14.00">OwnerJwtRefreshService </text>
</g>
<!-- OwnerModule&#45;&gt;OwnerJwtRefreshService  -->
<g id="edge2" class="edge">
<title>OwnerModule&#45;&gt;OwnerJwtRefreshService </title>
<path fill="none" stroke="black" stroke-dasharray="5,2" d="M513.27,-149.91C513.27,-149.91 513.27,-168.79 513.27,-168.79"/>
<polygon fill="black" stroke="black" points="509.77,-168.79 513.27,-178.79 516.77,-168.79 509.77,-168.79"/>
</g>
<!-- OwnerService  -->
<g id="node4" class="node">
<title>OwnerService </title>
<polygon fill="#fb8072" stroke="black" points="467.58,-214.8 368.42,-214.8 368.42,-178.8 467.58,-178.8 467.58,-214.8"/>
<text text-anchor="middle" x="418" y="-192.6" font-family="Times,serif" font-size="14.00">OwnerService </text>
</g>
<!-- OwnerModule&#45;&gt;OwnerService  -->
<g id="edge3" class="edge">
<title>OwnerModule&#45;&gt;OwnerService </title>
<path fill="none" stroke="black" stroke-dasharray="5,2" d="M455.48,-149.91C455.48,-149.91 455.48,-168.79 455.48,-168.79"/>
<polygon fill="black" stroke="black" points="451.98,-168.79 455.48,-178.79 458.98,-168.79 451.98,-168.79"/>
</g>
<!-- AdminService -->
<g id="node5" class="node">
<title>AdminService</title>
<ellipse fill="#fdb462" stroke="black" cx="1015" cy="-66.8" rx="66.64" ry="18"/>
<text text-anchor="middle" x="1015" y="-62.6" font-family="Times,serif" font-size="14.00">AdminService</text>
</g>
<!-- AdminService&#45;&gt;OwnerModule -->
<g id="edge4" class="edge">
<title>AdminService&#45;&gt;OwnerModule</title>
<path fill="none" stroke="black" d="M1015,-85.09C1015,-107.01 1015,-140.8 1015,-140.8 1015,-140.8 550.73,-140.8 550.73,-140.8"/>
<polygon fill="black" stroke="black" points="550.73,-137.3 540.73,-140.8 550.73,-144.3 550.73,-137.3"/>
</g>
<!-- MailService -->
<g id="node6" class="node">
<title>MailService</title>
<ellipse fill="#fdb462" stroke="black" cx="872" cy="-66.8" rx="58.46" ry="18"/>
<text text-anchor="middle" x="872" y="-62.6" font-family="Times,serif" font-size="14.00">MailService</text>
</g>
<!-- MailService&#45;&gt;OwnerModule -->
<g id="edge5" class="edge">
<title>MailService&#45;&gt;OwnerModule</title>
<path fill="none" stroke="black" d="M872,-84.91C872,-104.14 872,-131.8 872,-131.8 872,-131.8 550.9,-131.8 550.9,-131.8"/>
<polygon fill="black" stroke="black" points="550.9,-128.3 540.9,-131.8 550.9,-135.3 550.9,-128.3"/>
</g>
<!-- OwnerJwtRefreshService -->
<g id="node7" class="node">
<title>OwnerJwtRefreshService</title>
<ellipse fill="#fdb462" stroke="black" cx="686" cy="-66.8" rx="109.94" ry="18"/>
<text text-anchor="middle" x="686" y="-62.6" font-family="Times,serif" font-size="14.00">OwnerJwtRefreshService</text>
</g>
<!-- OwnerJwtRefreshService&#45;&gt;OwnerModule -->
<g id="edge6" class="edge">
<title>OwnerJwtRefreshService&#45;&gt;OwnerModule</title>
<path fill="none" stroke="black" d="M612.28,-80.36C612.28,-96.93 612.28,-122.8 612.28,-122.8 612.28,-122.8 550.92,-122.8 550.92,-122.8"/>
<polygon fill="black" stroke="black" points="550.92,-119.3 540.92,-122.8 550.92,-126.3 550.92,-119.3"/>
</g>
<!-- OwnerService -->
<g id="node8" class="node">
<title>OwnerService</title>
<ellipse fill="#fdb462" stroke="black" cx="492" cy="-66.8" rx="66.04" ry="18"/>
<text text-anchor="middle" x="492" y="-62.6" font-family="Times,serif" font-size="14.00">OwnerService</text>
</g>
<!-- OwnerService&#45;&gt;OwnerModule -->
<g id="edge7" class="edge">
<title>OwnerService&#45;&gt;OwnerModule</title>
<path fill="none" stroke="black" d="M492,-84.91C492,-84.91 492,-103.79 492,-103.79"/>
<polygon fill="black" stroke="black" points="488.5,-103.79 492,-113.79 495.5,-103.79 488.5,-103.79"/>
</g>
<!-- TasksService -->
<g id="node9" class="node">
<title>TasksService</title>
<ellipse fill="#fdb462" stroke="black" cx="345" cy="-66.8" rx="62.55" ry="18"/>
<text text-anchor="middle" x="345" y="-62.6" font-family="Times,serif" font-size="14.00">TasksService</text>
</g>
<!-- TasksService&#45;&gt;OwnerModule -->
<g id="edge8" class="edge">
<title>TasksService&#45;&gt;OwnerModule</title>
<path fill="none" stroke="black" d="M387.87,-80.07C387.87,-96.63 387.87,-122.8 387.87,-122.8 387.87,-122.8 433.29,-122.8 433.29,-122.8"/>
<polygon fill="black" stroke="black" points="433.29,-126.3 443.29,-122.8 433.29,-119.3 433.29,-126.3"/>
</g>
<!-- UsersService -->
<g id="node10" class="node">
<title>UsersService</title>
<ellipse fill="#fdb462" stroke="black" cx="202" cy="-66.8" rx="61.97" ry="18"/>
<text text-anchor="middle" x="202" y="-62.6" font-family="Times,serif" font-size="14.00">UsersService</text>
</g>
<!-- UsersService&#45;&gt;OwnerModule -->
<g id="edge9" class="edge">
<title>UsersService&#45;&gt;OwnerModule</title>
<path fill="none" stroke="black" d="M202,-84.91C202,-104.14 202,-131.8 202,-131.8 202,-131.8 433.13,-131.8 433.13,-131.8"/>
<polygon fill="black" stroke="black" points="433.13,-135.3 443.13,-131.8 433.13,-128.3 433.13,-135.3"/>
</g>
</g>
</svg>
