<?xml version="1.0" encoding="UTF-8" standalone="no"?>
<!DOCTYPE svg PUBLIC "-//W3C//DTD SVG 1.1//EN"
 "http://www.w3.org/Graphics/SVG/1.1/DTD/svg11.dtd">
<!-- Generated by graphviz version 5.0.0 (20220707.1540)
 -->
<!-- Title: dependencies Pages: 1 -->
<svg width="1284pt" height="247pt"
 viewBox="0.00 0.00 1284.00 246.80" xmlns="http://www.w3.org/2000/svg" xmlns:xlink="http://www.w3.org/1999/xlink">
<g id="graph0" class="graph" transform="scale(1 1) rotate(0) translate(4 242.8)">
<title>dependencies</title>
<polygon fill="white" stroke="transparent" points="-4,4 -4,-242.8 1280,-242.8 1280,4 -4,4"/>
<text text-anchor="middle" x="638" y="-8.2" font-family="sans-serif" font-size="14.00">dependencies</text>
<g id="clust1" class="cluster">
<title>cluster_OwnerModule</title>
<polygon fill="none" stroke="black" stroke-dasharray="1,5" points="8,-32.8 8,-230.8 1268,-230.8 1268,-32.8 8,-32.8"/>
</g>
<g id="clust4" class="cluster">
<title>cluster_OwnerModule_exports</title>
<polygon fill="none" stroke="black" points="382,-170.8 382,-222.8 810,-222.8 810,-170.8 382,-170.8"/>
</g>
<g id="clust6" class="cluster">
<title>cluster_OwnerModule_providers</title>
<polygon fill="none" stroke="black" points="132,-40.8 132,-92.8 1260,-92.8 1260,-40.8 132,-40.8"/>
</g>
<g id="clust3" class="cluster">
<title>cluster_OwnerModule_imports</title>
<polygon fill="none" stroke="black" points="16,-40.8 16,-92.8 124,-92.8 124,-40.8 16,-40.8"/>
</g>
<!-- RolesModule -->
<g id="node1" class="node">
<title>RolesModule</title>
<polygon fill="#8dd3c7" stroke="black" points="115.94,-84.8 112.94,-88.8 91.94,-88.8 88.94,-84.8 24.06,-84.8 24.06,-48.8 115.94,-48.8 115.94,-84.8"/>
<text text-anchor="middle" x="70" y="-62.6" font-family="Times,serif" font-size="14.00">RolesModule</text>
</g>
<!-- OwnerModule -->
<g id="node2" class="node">
<title>OwnerModule</title>
<polygon fill="#8dd3c7" stroke="black" points="637.65,-149.8 634.65,-153.8 613.65,-153.8 610.65,-149.8 540.35,-149.8 540.35,-113.8 637.65,-113.8 637.65,-149.8"/>
<text text-anchor="middle" x="589" y="-127.6" font-family="Times,serif" font-size="14.00">OwnerModule</text>
</g>
<!-- RolesModule&#45;&gt;OwnerModule -->
<g id="edge1" class="edge">
<title>RolesModule&#45;&gt;OwnerModule</title>
<path fill="none" stroke="black" d="M70,-84.93C70,-105.37 70,-135.8 70,-135.8 70,-135.8 530.17,-135.8 530.17,-135.8"/>
<polygon fill="black" stroke="black" points="530.17,-139.3 540.17,-135.8 530.17,-132.3 530.17,-139.3"/>
</g>
<!-- CurrencyService  -->
<g id="node3" class="node">
<title>CurrencyService </title>
<polygon fill="#fb8072" stroke="black" points="801.57,-214.8 688.43,-214.8 688.43,-178.8 801.57,-178.8 801.57,-214.8"/>
<text text-anchor="middle" x="745" y="-192.6" font-family="Times,serif" font-size="14.00">CurrencyService </text>
</g>
<!-- OwnerModule&#45;&gt;CurrencyService  -->
<g id="edge2" class="edge">
<title>OwnerModule&#45;&gt;CurrencyService </title>
<path fill="none" stroke="black" stroke-dasharray="5,2" d="M637.82,-142.8C682.59,-142.8 741.97,-142.8 741.97,-142.8 741.97,-142.8 741.97,-168.52 741.97,-168.52"/>
<polygon fill="black" stroke="black" points="738.47,-168.52 741.97,-178.52 745.47,-168.52 738.47,-168.52"/>
</g>
<!-- OwnerJwtRefreshService  -->
<g id="node4" class="node">
<title>OwnerJwtRefreshService </title>
<polygon fill="#fb8072" stroke="black" points="670.06,-214.8 507.94,-214.8 507.94,-178.8 670.06,-178.8 670.06,-214.8"/>
<text text-anchor="middle" x="589" y="-192.6" font-family="Times,serif" font-size="14.00">OwnerJwtRefreshService </text>
</g>
<!-- OwnerModule&#45;&gt;OwnerJwtRefreshService  -->
<g id="edge3" class="edge">
<title>OwnerModule&#45;&gt;OwnerJwtRefreshService </title>
<path fill="none" stroke="black" stroke-dasharray="5,2" d="M589,-149.91C589,-149.91 589,-168.79 589,-168.79"/>
<polygon fill="black" stroke="black" points="585.5,-168.79 589,-178.79 592.5,-168.79 585.5,-168.79"/>
</g>
<!-- OwnerService  -->
<g id="node5" class="node">
<title>OwnerService </title>
<polygon fill="#fb8072" stroke="black" points="489.58,-214.8 390.42,-214.8 390.42,-178.8 489.58,-178.8 489.58,-214.8"/>
<text text-anchor="middle" x="440" y="-192.6" font-family="Times,serif" font-size="14.00">OwnerService </text>
</g>
<!-- OwnerModule&#45;&gt;OwnerService  -->
<g id="edge4" class="edge">
<title>OwnerModule&#45;&gt;OwnerService </title>
<path fill="none" stroke="black" stroke-dasharray="5,2" d="M540.13,-142.8C502.82,-142.8 457.76,-142.8 457.76,-142.8 457.76,-142.8 457.76,-168.52 457.76,-168.52"/>
<polygon fill="black" stroke="black" points="454.26,-168.52 457.76,-178.52 461.26,-168.52 454.26,-168.52"/>
</g>
<!-- AdminService -->
<g id="node6" class="node">
<title>AdminService</title>
<ellipse fill="#fdb462" stroke="black" cx="1185" cy="-66.8" rx="66.64" ry="18"/>
<text text-anchor="middle" x="1185" y="-62.6" font-family="Times,serif" font-size="14.00">AdminService</text>
</g>
<!-- AdminService&#45;&gt;OwnerModule -->
<g id="edge5" class="edge">
<title>AdminService&#45;&gt;OwnerModule</title>
<path fill="none" stroke="black" d="M1185,-84.93C1185,-105.37 1185,-135.8 1185,-135.8 1185,-135.8 647.77,-135.8 647.77,-135.8"/>
<polygon fill="black" stroke="black" points="647.77,-132.3 637.77,-135.8 647.77,-139.3 647.77,-132.3"/>
</g>
<!-- CurrencyService -->
<g id="node7" class="node">
<title>CurrencyService</title>
<ellipse fill="#fdb462" stroke="black" cx="1024" cy="-66.8" rx="75.85" ry="18"/>
<text text-anchor="middle" x="1024" y="-62.6" font-family="Times,serif" font-size="14.00">CurrencyService</text>
</g>
<!-- CurrencyService&#45;&gt;OwnerModule -->
<g id="edge6" class="edge">
<title>CurrencyService&#45;&gt;OwnerModule</title>
<path fill="none" stroke="black" d="M1024,-85.07C1024,-103.36 1024,-128.8 1024,-128.8 1024,-128.8 648.05,-128.8 648.05,-128.8"/>
<polygon fill="black" stroke="black" points="648.05,-125.3 638.05,-128.8 648.05,-132.3 648.05,-125.3"/>
</g>
<!-- MailService -->
<g id="node8" class="node">
<title>MailService</title>
<ellipse fill="#fdb462" stroke="black" cx="872" cy="-66.8" rx="58.46" ry="18"/>
<text text-anchor="middle" x="872" y="-62.6" font-family="Times,serif" font-size="14.00">MailService</text>
</g>
<!-- MailService&#45;&gt;OwnerModule -->
<g id="edge7" class="edge">
<title>MailService&#45;&gt;OwnerModule</title>
<path fill="none" stroke="black" d="M872,-84.81C872,-100.85 872,-121.8 872,-121.8 872,-121.8 647.65,-121.8 647.65,-121.8"/>
<polygon fill="black" stroke="black" points="647.65,-118.3 637.65,-121.8 647.65,-125.3 647.65,-118.3"/>
</g>
<!-- OwnerJwtRefreshService -->
<g id="node9" class="node">
<title>OwnerJwtRefreshService</title>
<ellipse fill="#fdb462" stroke="black" cx="686" cy="-66.8" rx="109.94" ry="18"/>
<text text-anchor="middle" x="686" y="-62.6" font-family="Times,serif" font-size="14.00">OwnerJwtRefreshService</text>
</g>
<!-- OwnerJwtRefreshService&#45;&gt;OwnerModule -->
<g id="edge8" class="edge">
<title>OwnerJwtRefreshService&#45;&gt;OwnerModule</title>
<path fill="none" stroke="black" d="M607.05,-79.33C607.05,-79.33 607.05,-103.65 607.05,-103.65"/>
<polygon fill="black" stroke="black" points="603.55,-103.65 607.05,-113.65 610.55,-103.65 603.55,-103.65"/>
</g>
<!-- OwnerService -->
<g id="node10" class="node">
<title>OwnerService</title>
<ellipse fill="#fdb462" stroke="black" cx="492" cy="-66.8" rx="66.04" ry="18"/>
<text text-anchor="middle" x="492" y="-62.6" font-family="Times,serif" font-size="14.00">OwnerService</text>
</g>
<!-- OwnerService&#45;&gt;OwnerModule -->
<g id="edge9" class="edge">
<title>OwnerService&#45;&gt;OwnerModule</title>
<path fill="none" stroke="black" d="M549.22,-76.11C549.22,-76.11 549.22,-103.65 549.22,-103.65"/>
<polygon fill="black" stroke="black" points="545.72,-103.65 549.22,-113.65 552.72,-103.65 545.72,-103.65"/>
</g>
<!-- TasksService -->
<g id="node11" class="node">
<title>TasksService</title>
<ellipse fill="#fdb462" stroke="black" cx="345" cy="-66.8" rx="62.55" ry="18"/>
<text text-anchor="middle" x="345" y="-62.6" font-family="Times,serif" font-size="14.00">TasksService</text>
</g>
<!-- TasksService&#45;&gt;OwnerModule -->
<g id="edge10" class="edge">
<title>TasksService&#45;&gt;OwnerModule</title>
<path fill="none" stroke="black" d="M398.87,-76.38C398.87,-92.14 398.87,-121.8 398.87,-121.8 398.87,-121.8 530.04,-121.8 530.04,-121.8"/>
<polygon fill="black" stroke="black" points="530.04,-125.3 540.04,-121.8 530.04,-118.3 530.04,-125.3"/>
</g>
<!-- UsersService -->
<g id="node12" class="node">
<title>UsersService</title>
<ellipse fill="#fdb462" stroke="black" cx="202" cy="-66.8" rx="61.97" ry="18"/>
<text text-anchor="middle" x="202" y="-62.6" font-family="Times,serif" font-size="14.00">UsersService</text>
</g>
<!-- UsersService&#45;&gt;OwnerModule -->
<g id="edge11" class="edge">
<title>UsersService&#45;&gt;OwnerModule</title>
<path fill="none" stroke="black" d="M202,-85.07C202,-103.36 202,-128.8 202,-128.8 202,-128.8 529.99,-128.8 529.99,-128.8"/>
<polygon fill="black" stroke="black" points="529.99,-132.3 539.99,-128.8 529.99,-125.3 529.99,-132.3"/>
</g>
</g>
</svg>
