<?xml version="1.0" standalone="no"?>
<!DOCTYPE svg PUBLIC "-//W3C//DTD SVG 20010904//EN"
 "http://www.w3.org/TR/2001/REC-SVG-20010904/DTD/svg10.dtd">
<svg version="1.0" xmlns="http://www.w3.org/2000/svg"
 width="4160.000000pt" height="4160.000000pt" viewBox="0 0 4160.000000 4160.000000"
 preserveAspectRatio="xMidYMid meet">
<metadata>
Created by potrace 1.14, written by Peter Selinger 2001-2017
</metadata>
<g transform="translate(0.000000,4160.000000) scale(0.100000,-0.100000)"
fill="#000000" stroke="none">
<path d="M144 24249 c-2 -4 -4 -33 -4 -65 0 -179 0 -261 -1 -274 0 -8 0 -24 1
-35 0 -11 0 -28 0 -37 0 -10 0 -24 1 -30 0 -7 1 -47 0 -88 -1 -107 -2 -281 -1
-305 1 -11 1 -26 1 -32 -1 -19 -1 -41 0 -55 0 -7 1 -47 0 -88 0 -41 -1 -120
-1 -175 0 -55 0 -107 -1 -115 0 -8 0 -24 1 -35 0 -11 0 -28 0 -37 0 -10 0 -24
1 -30 0 -7 1 -47 0 -88 -1 -107 -2 -281 -1 -305 1 -11 1 -26 1 -32 -1 -19 -1
-41 0 -55 0 -7 1 -47 0 -88 -1 -107 -2 -281 -1 -305 1 -11 1 -26 1 -32 -1 -19
-1 -41 0 -55 0 -7 1 -47 0 -88 -1 -107 -2 -281 -1 -305 1 -11 1 -26 1 -32 -1
-19 -1 -41 0 -55 0 -7 1 -47 0 -88 -1 -107 -2 -281 -1 -305 1 -11 1 -26 1 -32
-1 -19 -1 -41 0 -55 0 -7 1 -47 0 -88 -1 -107 -2 -281 -1 -305 1 -11 1 -26 1
-32 -1 -19 -1 -41 0 -55 0 -7 1 -47 0 -88 -1 -107 -2 -281 -1 -305 1 -11 1
-26 1 -32 -1 -19 -1 -41 0 -55 0 -7 1 -47 0 -88 -1 -107 -2 -281 -1 -305 1
-11 1 -26 1 -32 -1 -19 -1 -41 0 -55 0 -7 1 -47 0 -88 -1 -107 -2 -281 -1
-305 1 -11 1 -26 1 -32 -5 -89 4 -178 17 -176 6 2 12 -1 12 -6 0 -6 12 -6 30
-1 16 5 32 5 35 0 3 -4 21 -4 40 0 19 4 35 4 35 0 0 -5 13 -5 30 0 17 5 30 5
30 0 0 -5 13 -5 30 0 17 5 30 6 30 2 0 -4 29 -7 65 -7 36 0 65 4 65 8 0 5 5 5
10 2 14 -9 103 -10 116 -2 5 3 16 2 24 -3 7 -4 23 -4 36 0 12 5 25 6 28 3 8
-8 76 -9 76 -1 0 4 13 3 29 -2 16 -4 32 -5 36 -2 7 8 102 5 115 -3 6 -3 10 -2
10 4 0 6 11 6 30 1 17 -5 30 -5 30 0 0 5 13 5 30 0 17 -5 30 -5 30 0 0 5 13 5
30 0 17 -5 30 -5 30 0 0 5 13 5 30 0 17 -5 32 -5 35 0 3 5 15 6 28 1 13 -5 30
-5 38 -1 8 5 21 5 29 0 7 -4 24 -4 36 0 14 6 26 5 29 0 3 -6 15 -6 30 0 16 6
27 6 31 -1 4 -8 9 -8 13 -1 3 6 6 501 6 1100 l-1 1091 344 0 343 -1 20 -31
c10 -18 29 -52 41 -77 13 -25 25 -47 28 -50 3 -3 18 -30 34 -60 16 -30 40 -75
54 -100 45 -81 68 -124 117 -215 27 -49 56 -104 66 -121 10 -18 32 -59 49 -93
18 -34 36 -64 41 -67 5 -3 7 -10 4 -15 -4 -5 -1 -9 4 -9 6 0 11 -9 11 -19 0
-11 4 -21 8 -23 8 -3 35 -51 137 -243 26 -49 55 -103 65 -120 9 -16 33 -59 52
-95 44 -80 88 -162 129 -237 18 -32 45 -83 62 -113 16 -30 42 -77 57 -105 15
-27 45 -81 65 -120 21 -38 52 -95 68 -125 17 -30 41 -75 54 -100 23 -44 35
-51 93 -50 8 0 36 0 62 1 26 0 52 -2 58 -6 5 -3 10 -2 10 4 0 6 11 6 30 1 17
-5 30 -5 30 0 0 5 13 5 30 0 17 -5 30 -5 30 0 0 5 13 5 30 0 17 -5 30 -5 30 0
0 5 13 5 30 0 17 -5 30 -5 30 0 0 5 13 5 30 0 17 -5 30 -5 30 0 0 5 13 5 30 0
17 -5 30 -5 30 0 0 5 13 5 30 0 17 -5 30 -5 30 0 0 5 13 5 30 0 19 -5 30 -5
30 1 0 6 5 7 10 4 14 -9 103 -10 116 -2 5 3 16 2 24 -3 7 -4 23 -4 36 0 12 5
25 6 28 3 8 -8 76 -9 76 -1 0 4 13 3 29 -2 16 -4 32 -6 35 -3 3 4 29 5 58 4
29 -1 59 -1 66 -1 6 0 18 0 25 0 6 0 45 -1 85 -2 39 -2 72 0 72 4 0 4 13 3 29
-2 15 -4 34 -4 42 0 7 5 21 4 31 -1 30 -16 28 -12 -59 151 -41 76 -57 104 -63
110 -3 3 -16 28 -30 55 -23 46 -65 123 -129 235 -14 25 -24 48 -23 53 1 4 -2
7 -8 7 -5 0 -10 4 -10 10 0 5 -34 69 -75 143 -41 74 -75 140 -75 146 0 6 -4
11 -9 11 -5 0 -14 12 -20 28 -7 15 -24 50 -40 77 -15 28 -44 81 -63 118 -20
37 -40 73 -46 80 -5 7 -35 62 -67 122 -32 61 -61 115 -65 120 -4 6 -26 44 -48
85 -22 41 -59 109 -82 150 -23 41 -46 84 -51 95 -5 11 -18 35 -29 53 -19 32
-72 128 -121 222 -13 25 -26 47 -29 50 -3 3 -18 30 -34 60 -16 30 -37 69 -46
85 -47 84 -109 198 -175 320 -21 39 -47 84 -57 100 -10 17 -18 35 -18 40 0 6
22 47 49 92 27 45 46 85 43 88 -3 3 0 5 6 5 6 0 14 9 17 21 4 11 27 55 52 97
25 42 56 95 68 117 12 22 31 56 42 75 11 19 49 87 85 150 36 63 76 133 89 155
12 22 34 61 48 86 14 26 44 78 65 115 22 38 47 83 56 99 9 17 45 79 78 138 34
60 62 112 62 117 0 5 4 10 8 12 5 2 22 28 38 58 39 71 78 139 124 220 21 36
47 82 59 103 11 20 31 54 42 75 37 63 93 162 115 201 51 91 75 133 134 236 34
61 71 124 81 142 10 18 35 63 55 100 20 37 45 79 54 93 40 60 96 56 -699 56
l-726 0 -37 -64 c-21 -35 -38 -68 -38 -73 0 -5 -4 -9 -10 -9 -5 0 -10 -4 -10
-10 0 -5 -20 -44 -45 -86 -25 -41 -45 -78 -45 -80 0 -2 -18 -34 -40 -70 -22
-36 -40 -68 -40 -70 0 -2 -14 -27 -31 -56 -17 -29 -47 -82 -66 -118 -20 -36
-41 -72 -48 -80 -7 -8 -16 -25 -19 -37 -4 -13 -12 -23 -18 -23 -6 0 -9 -3 -5
-6 3 -4 -7 -26 -23 -49 -16 -23 -27 -45 -24 -47 2 -3 -2 -11 -11 -18 -8 -7
-15 -16 -15 -20 0 -4 -37 -72 -83 -151 -45 -80 -91 -161 -102 -182 -11 -20
-23 -37 -27 -37 -5 0 -8 -5 -8 -11 0 -6 -31 -66 -69 -133 -38 -66 -78 -138
-90 -158 -11 -21 -31 -55 -42 -75 -12 -21 -33 -58 -48 -83 -45 -77 -71 -124
-89 -160 -9 -19 -21 -39 -25 -45 -5 -5 -27 -44 -50 -85 l-43 -75 -344 0 -345
0 -1 1050 c-1 578 -2 1052 -3 1055 -2 8 -1372 7 -1377 -1z"/>
<path d="M38913 23872 c-27 -3 -33 -8 -34 -28 -1 -13 -2 -27 -3 -31 -1 -5 -5
-29 -9 -54 -4 -25 -10 -57 -12 -70 -2 -13 -7 -40 -10 -59 -9 -61 -34 -213 -45
-270 -5 -30 -12 -71 -15 -90 -3 -19 -10 -60 -15 -90 -11 -64 -17 -100 -25
-155 -13 -82 10 -75 -246 -75 l-229 0 0 -518 0 -519 230 1 230 1 0 -95 c1 -52
2 -531 4 -1065 3 -918 5 -1014 19 -1061 4 -10 9 -33 12 -50 17 -106 80 -254
154 -369 46 -71 208 -245 228 -245 6 0 16 -7 23 -15 20 -24 160 -100 235 -128
101 -37 108 -39 125 -42 8 -2 40 -8 70 -15 94 -20 157 -24 410 -23 298 0 534
9 805 29 44 3 106 8 138 10 31 2 83 6 115 8 31 2 84 7 117 10 33 4 79 8 103
10 24 2 46 7 49 10 7 6 11 949 5 977 -3 15 -50 17 -515 17 -282 0 -527 3 -546
6 -72 14 -149 78 -183 154 -21 47 -21 56 -22 960 -1 804 1 912 14 913 8 1 224
2 480 3 l465 1 0 518 1 517 -477 0 c-373 0 -478 3 -481 13 -2 6 -4 213 -3 460
l0 447 -25 1 c-99 2 -1112 3 -1137 1z"/>
<path d="M7567 23024 c-1 -1 -92 -5 -202 -8 -219 -7 -305 -12 -630 -30 -103
-6 -268 -18 -305 -21 -19 -2 -75 -6 -125 -10 -49 -4 -103 -8 -120 -10 -16 -1
-70 -6 -120 -9 -49 -4 -101 -9 -114 -11 -13 -2 -58 -7 -100 -10 -42 -3 -89 -8
-106 -10 -61 -8 -171 -18 -197 -19 -16 -1 -28 -3 -28 -6 0 -3 -17 -5 -37 -5
l-37 0 -1 -470 c0 -258 1 -475 3 -482 2 -7 20 -10 50 -7 46 5 101 9 257 19 44
3 109 7 145 10 36 2 106 7 155 11 50 3 104 7 120 9 17 1 77 6 135 10 58 4 125
9 150 11 25 1 90 6 145 9 55 3 120 8 145 10 131 10 392 18 605 19 230 1 242 0
282 -21 72 -38 117 -92 141 -169 5 -17 10 -110 11 -206 l0 -175 -837 -1 c-460
-1 -857 -3 -882 -6 -88 -9 -142 -18 -205 -35 -22 -6 -43 -11 -47 -11 -17 -2
-87 -30 -158 -63 -233 -109 -430 -325 -519 -569 -67 -181 -76 -260 -75 -648 0
-300 3 -351 28 -477 11 -54 40 -144 47 -149 5 -3 9 -12 9 -21 0 -36 89 -196
148 -267 83 -99 219 -214 312 -264 50 -27 192 -82 253 -97 107 -27 152 -33
284 -39 45 -3 87 -7 93 -11 5 -3 10 -3 10 2 0 4 78 8 173 9 94 0 201 4 237 8
36 5 76 10 90 11 14 2 26 4 28 5 3 3 8 4 67 15 28 5 55 10 60 11 6 1 12 3 15
4 3 1 14 3 24 5 90 17 266 72 405 127 66 26 292 134 331 158 124 76 183 111
185 108 2 -2 5 -16 8 -33 3 -16 12 -64 21 -105 8 -41 17 -88 20 -105 2 -16 5
-30 6 -30 1 0 4 -16 7 -35 7 -51 21 -73 44 -67 10 3 19 1 19 -3 0 -5 14 -5 30
0 17 5 30 5 30 0 0 -5 13 -5 30 0 17 5 30 6 30 2 0 -4 29 -7 65 -7 36 0 65 4
65 8 0 5 5 5 10 2 14 -9 103 -10 116 -2 5 3 16 2 24 -3 7 -4 23 -4 36 0 12 5
25 6 28 3 8 -8 76 -9 76 -1 0 4 13 3 29 -2 16 -4 32 -5 36 -2 7 8 102 5 115
-3 6 -3 10 -2 10 4 0 6 11 6 30 1 17 -5 30 -5 30 0 0 5 13 5 30 0 17 -5 30 -5
30 0 0 5 13 5 30 0 17 -5 30 -5 30 0 0 5 13 5 30 0 17 -5 32 -5 35 0 3 5 15 6
28 1 13 -5 30 -5 38 -1 8 5 20 5 27 1 17 -11 72 -1 73 13 2 45 -2 3116 -5
3136 -3 27 -17 114 -22 144 -4 24 -33 126 -41 146 -3 8 -7 20 -8 26 -2 7 -22
50 -45 96 -77 156 -196 293 -341 392 -92 64 -256 136 -341 151 -17 3 -35 8
-40 11 -4 3 -22 7 -40 9 -18 2 -46 7 -63 10 -26 6 -613 14 -618 9z m190 -2533
l32 -1 0 -224 c1 -184 -2 -226 -14 -236 -8 -6 -19 -9 -25 -5 -5 3 -10 2 -10
-3 0 -5 -6 -9 -12 -9 -7 -1 -40 -8 -73 -18 -33 -9 -64 -18 -70 -19 -5 -2 -28
-6 -50 -11 -22 -4 -44 -10 -50 -13 -5 -3 -16 -7 -25 -7 -12 -2 -92 -16 -110
-20 -3 -1 -30 -5 -60 -9 -30 -5 -62 -10 -70 -11 -121 -23 -512 -36 -600 -20
-50 8 -90 29 -131 67 -38 36 -84 121 -74 138 3 5 2 10 -2 10 -5 0 -7 43 -6 95
2 110 20 162 77 218 47 47 83 65 147 75 40 5 939 8 1126 3z"/>
<path d="M14955 23023 c-206 -18 -349 -55 -500 -129 -145 -71 -284 -186 -371
-307 -24 -34 -48 -66 -52 -72 -32 -41 -142 -305 -127 -305 2 0 0 -11 -5 -25
-14 -36 -18 -58 -39 -225 -9 -73 -6 -2108 3 -2183 8 -62 9 -66 25 -142 81
-361 333 -645 681 -765 36 -12 74 -24 85 -26 11 -2 40 -8 65 -13 25 -6 77 -14
115 -18 119 -13 854 -5 1110 12 39 2 126 7 195 10 69 3 154 7 190 10 36 2 106
7 155 10 97 5 223 14 295 20 25 2 83 7 130 10 47 3 105 7 130 10 92 9 196 18
232 19 21 1 38 3 38 6 0 3 21 6 48 6 26 1 74 4 107 8 33 3 89 8 125 11 119 9
105 -53 104 477 -1 255 -2 471 -3 480 -1 14 -8 16 -38 12 -21 -3 -67 -7 -103
-9 -36 -2 -96 -6 -135 -9 -38 -3 -101 -8 -140 -11 -38 -2 -99 -6 -135 -9 -92
-7 -220 -16 -324 -22 -148 -8 -187 -12 -192 -17 -3 -3 -18 -1 -34 3 -16 4 -31
6 -34 3 -3 -3 -36 -7 -73 -9 -38 -2 -124 -6 -193 -9 -69 -3 -177 -8 -240 -10
-282 -13 -633 -13 -669 0 -94 33 -169 121 -174 203 -1 23 -4 42 -7 42 -3 0 -4
28 -2 62 3 73 3 61 1 161 -1 42 1 80 5 85 4 4 598 8 1319 9 722 1 1315 2 1319
2 8 1 3 1574 -5 1636 -4 34 -31 167 -40 200 -1 6 -6 16 -10 23 -5 6 -6 12 -3
12 17 0 -103 254 -136 290 -10 11 -16 20 -13 20 13 0 -171 192 -216 225 -8 6
-30 22 -49 36 -84 63 -293 154 -375 164 -5 1 -35 7 -65 13 -30 7 -71 15 -90
18 -34 6 -1824 12 -1885 7z m1350 -968 c99 -20 167 -95 192 -210 7 -32 10
-399 4 -490 -1 -20 -8 -20 -646 -19 -355 1 -648 4 -652 7 -5 5 -7 246 -3 272
2 6 1 15 0 20 -4 17 0 154 5 188 15 93 22 110 65 160 27 32 96 67 150 77 52 9
838 5 885 -5z"/>
<path d="M27838 23024 c-2 -1 -30 -5 -63 -8 -81 -9 -160 -21 -160 -26 0 -1
-14 -3 -30 -5 -17 -2 -51 -9 -75 -16 -25 -7 -54 -14 -65 -16 -36 -8 -98 -25
-175 -50 -25 -8 -52 -16 -60 -18 -35 -9 -144 -52 -260 -102 -41 -18 -140 -68
-190 -96 -19 -11 -44 -25 -55 -31 -11 -6 -39 -24 -62 -39 -24 -15 -47 -27 -53
-27 -5 0 -10 -5 -10 -11 0 -21 -23 -2 -27 22 -3 21 -13 73 -28 149 -11 50 -26
126 -31 155 -3 17 -8 33 -12 37 -11 10 -30 10 -627 9 l-561 -1 1 -2687 0
-2688 670 0 670 0 1 131 c0 72 4 136 8 142 4 7 4 12 -1 12 -4 0 -8 94 -8 210
0 115 4 210 8 210 5 0 5 5 1 12 -6 9 -8 408 -3 513 0 6 -2 23 -4 38 -3 19 1
31 13 37 10 5 19 7 22 5 8 -8 128 -10 128 -2 0 5 5 5 10 2 14 -9 103 -10 116
-2 5 3 16 2 24 -3 7 -4 23 -4 36 0 12 5 25 6 28 3 8 -8 76 -9 76 -1 0 4 13 3
29 -2 16 -4 32 -5 36 -2 7 8 102 5 115 -3 6 -3 10 -2 10 4 0 6 11 6 30 1 17
-5 30 -5 30 0 0 5 13 5 30 0 17 -5 30 -5 30 0 0 5 13 5 30 0 17 -5 30 -5 30 0
0 5 13 5 30 0 17 -5 30 -5 30 0 0 5 13 5 30 0 17 -5 30 -5 30 0 0 5 13 5 30 0
17 -5 30 -5 30 0 0 5 13 5 30 0 17 -5 30 -5 30 0 0 5 13 5 30 0 19 -5 30 -5
30 1 0 6 5 7 10 4 14 -9 103 -10 116 -2 5 3 16 2 24 -3 7 -4 23 -4 36 0 12 5
25 6 28 3 8 -8 76 -9 76 -1 0 4 13 3 29 -2 16 -4 32 -5 36 -2 3 3 29 5 58 3
29 -1 57 -2 62 -2 27 -1 193 11 212 15 48 10 118 20 126 18 4 -1 7 3 7 9 0 5
4 8 9 5 16 -10 193 53 281 101 159 85 275 190 368 333 23 36 46 70 52 77 5 7
10 16 10 21 0 5 10 29 23 53 21 40 63 156 73 204 26 117 38 207 38 297 1 32 3
58 6 58 8 0 4 136 -4 149 -4 6 -4 11 1 11 10 0 9 133 -1 149 -4 6 -4 11 1 11
10 0 9 133 -1 149 -4 6 -4 11 1 11 10 0 9 133 -1 149 -4 6 -4 11 1 11 10 0 9
133 -1 149 -4 6 -4 11 1 11 10 0 9 133 -1 149 -4 6 -4 11 1 11 10 0 9 133 -1
149 -4 6 -4 11 1 11 10 0 9 133 -1 149 -4 6 -4 11 1 11 10 0 9 133 -1 149 -4
6 -4 11 1 11 10 0 9 133 -1 149 -4 6 -4 11 1 11 4 0 8 38 8 85 0 47 -3 85 -7
85 -4 0 -4 8 -1 17 4 10 6 31 6 48 -2 47 -13 169 -18 196 -3 13 -10 50 -16 83
-13 73 -51 180 -95 268 -136 270 -395 470 -699 540 -39 9 -50 10 -130 24 -38
6 -642 14 -647 8z m73 -1123 c59 -16 130 -78 160 -138 l23 -48 2 -775 c1 -798
0 -821 -39 -896 -18 -34 -69 -82 -102 -94 -49 -20 -62 -23 -90 -27 -56 -7
-1207 -8 -1218 -1 -12 7 -16 118 -4 118 5 0 5 5 1 12 -10 16 -11 388 -1 388 5
0 5 5 1 12 -10 16 -11 388 -1 388 5 0 5 5 1 12 -9 14 -12 878 -3 878 4 0 6 7
5 16 -1 19 83 45 277 89 37 8 82 17 100 20 18 3 39 8 47 10 15 4 71 13 120 20
79 11 115 15 205 21 55 4 101 7 102 8 1 0 84 1 185 0 116 0 200 -5 229 -13z"/>
<path d="M31097 23019 c-27 -4 -69 -10 -93 -14 -24 -3 -49 -8 -56 -10 -7 -2
-24 -6 -38 -9 -14 -3 -46 -11 -72 -19 -26 -8 -49 -12 -52 -9 -4 3 -6 0 -6 -6
0 -7 -7 -12 -16 -12 -29 0 -197 -89 -264 -139 -258 -194 -396 -452 -437 -821
-9 -84 -10 -2010 0 -2115 4 -44 9 -91 12 -105 6 -29 17 -88 20 -110 1 -8 5
-22 8 -30 3 -8 13 -40 22 -70 16 -50 43 -116 67 -163 39 -77 51 -97 64 -108 8
-6 14 -15 14 -20 0 -40 275 -289 319 -289 5 0 11 -3 13 -8 3 -7 111 -58 173
-80 34 -13 137 -41 175 -48 14 -2 34 -6 45 -9 60 -13 187 -19 417 -19 142 -1
258 -5 258 -9 0 -5 5 -5 12 -1 19 12 462 11 471 -1 5 -7 9 -7 15 0 9 12 462
14 462 2 0 -5 5 -5 11 -1 7 4 141 8 298 10 317 4 350 6 369 18 7 4 16 6 18 3
4 -4 39 3 139 27 84 21 256 91 263 108 2 5 8 8 14 8 19 0 143 94 204 155 109
110 183 223 237 365 96 253 95 237 92 1455 -1 572 -5 1058 -9 1080 -3 22 -11
65 -18 95 -6 30 -13 61 -14 67 -18 96 -114 308 -166 367 -10 11 -18 24 -18 29
0 28 -268 267 -300 267 -4 0 -10 4 -12 8 -6 15 -186 96 -238 107 -3 1 -25 7
-50 14 -48 14 -52 15 -118 26 -23 4 -54 9 -70 12 -44 8 -2112 10 -2165 2z
m1647 -1042 c99 -26 169 -109 183 -215 8 -61 8 -1633 0 -1692 -18 -134 -105
-212 -251 -226 -94 -9 -136 -10 -136 -2 0 4 -13 3 -30 -2 -17 -5 -30 -5 -30 0
0 5 -13 5 -30 0 -17 -5 -30 -5 -30 0 0 5 -13 5 -30 0 -17 -5 -30 -5 -30 0 0 5
-12 5 -28 1 -15 -5 -37 -5 -49 0 -13 5 -25 4 -28 -1 -3 -6 -15 -6 -30 0 -15 6
-27 6 -30 0 -3 -6 -15 -6 -30 0 -15 6 -27 6 -30 0 -3 -6 -15 -6 -30 0 -15 6
-27 6 -30 0 -3 -5 -16 -6 -28 -2 -12 5 -38 5 -57 2 -19 -3 -50 -3 -67 1 -18 4
-33 3 -33 -1 0 -5 -12 -5 -28 -1 -15 5 -37 5 -49 0 -13 -5 -25 -4 -28 1 -3 6
-15 6 -29 0 -13 -5 -26 -7 -29 -4 -2 3 -34 7 -70 9 -74 4 -126 25 -174 69 -62
55 -86 139 -84 286 1 84 1 1 2 825 0 396 1 729 3 740 9 58 42 118 85 158 23
21 41 36 41 34 0 -2 24 4 53 14 48 17 90 18 592 16 297 -2 553 -6 569 -10z"/>
<path d="M37487 23024 c-1 -1 -31 -5 -67 -8 -36 -3 -76 -9 -90 -12 -14 -3 -34
-6 -45 -8 -11 -2 -29 -6 -40 -9 -11 -3 -31 -8 -45 -11 -53 -10 -69 -15 -158
-45 -50 -16 -120 -44 -156 -60 -36 -16 -66 -27 -66 -23 0 4 -4 3 -8 -3 -4 -5
-29 -21 -57 -35 -27 -14 -58 -31 -67 -39 -10 -8 -18 -10 -18 -5 0 5 -4 4 -8
-1 -4 -6 -43 -33 -87 -60 -44 -27 -84 -53 -90 -57 -5 -5 -45 -35 -88 -68 -44
-32 -95 -73 -114 -90 -19 -18 -38 -28 -43 -24 -4 5 -11 29 -14 54 -6 44 -11
76 -21 135 -3 17 -8 48 -11 70 -3 22 -7 51 -9 64 -3 13 -7 43 -10 65 -4 23 -8
50 -10 61 -2 11 -4 23 -4 28 -1 4 -269 7 -596 7 l-595 0 0 -22 c-1 -13 -1
-925 -1 -2027 0 -1296 3 -2007 10 -2014 10 -10 85 -12 101 -2 5 3 10 2 10 -4
0 -6 11 -6 30 -1 17 5 32 5 35 0 3 -5 16 -5 28 -1 12 5 34 5 49 0 16 -4 28 -4
28 1 0 5 13 5 30 0 17 -5 30 -5 30 0 0 5 13 5 30 0 17 -5 30 -5 30 0 0 5 13 5
30 0 19 -5 30 -5 30 1 0 6 5 7 10 4 14 -9 103 -10 116 -2 5 3 16 2 24 -3 7 -4
23 -4 36 0 12 5 25 6 28 3 8 -8 76 -9 76 -1 0 4 13 3 29 -2 16 -4 32 -5 36 -2
7 7 91 6 104 -2 5 -4 12 -2 16 3 3 7 15 7 30 1 13 -5 27 -5 30 -1 3 5 20 6 37
2 18 -4 48 -4 66 0 17 3 32 3 32 -2 0 -4 14 -4 30 1 17 5 30 5 30 0 0 -5 13
-5 30 0 16 5 32 5 34 1 3 -3 22 -5 43 -3 l38 4 -1 1363 0 1363 55 22 c72 28
88 35 131 53 34 15 75 29 95 33 6 1 30 9 55 17 25 9 56 18 70 21 14 2 52 11
85 20 33 8 72 17 88 20 15 3 35 7 45 10 9 3 42 8 72 11 30 2 66 8 80 11 14 3
214 7 445 9 231 2 422 4 425 4 3 1 5 268 5 593 l0 593 -238 1 c-130 0 -238 -1
-240 -2z"/>
<path d="M9590 22432 l0 -518 1038 0 c570 1 1044 0 1053 -2 12 -3 -1 -20 -45
-62 -33 -32 -101 -96 -151 -143 -49 -47 -112 -107 -140 -132 -78 -74 -323
-305 -376 -355 -26 -25 -104 -99 -174 -165 -70 -66 -158 -149 -196 -185 -37
-36 -116 -110 -174 -165 -59 -55 -137 -129 -175 -165 -37 -36 -109 -103 -159
-150 -50 -47 -136 -128 -190 -180 -55 -52 -147 -140 -205 -194 l-106 -99 0
-519 0 -519 35 3 c19 1 37 -1 41 -5 4 -3 14 -2 23 3 10 5 23 5 31 0 8 -5 21
-5 30 0 9 5 22 5 30 0 8 -5 21 -5 30 0 9 5 22 5 29 0 8 -4 27 -4 42 0 16 5 29
5 29 0 0 -5 13 -5 30 0 17 5 30 5 30 0 0 -5 13 -5 30 0 17 5 30 6 30 2 0 -4
29 -7 65 -7 36 0 65 3 65 7 0 3 12 3 27 -1 16 -4 44 -4 65 -1 20 4 42 4 49 -1
7 -4 20 -4 29 1 9 5 22 5 30 0 8 -5 21 -5 30 0 9 5 22 5 30 0 8 -5 21 -5 30 0
9 5 22 5 29 0 8 -4 27 -4 42 0 16 5 29 5 29 0 0 -5 13 -5 30 0 17 5 30 5 30 0
0 -5 13 -5 30 0 17 5 30 6 30 2 0 -4 29 -7 65 -7 36 0 65 4 65 8 0 5 5 5 10 2
14 -9 103 -10 116 -2 5 3 16 2 24 -3 7 -4 23 -4 36 0 12 5 25 6 28 3 8 -8 76
-9 76 -1 0 4 13 3 29 -2 16 -4 32 -5 36 -2 7 8 102 5 115 -3 6 -3 10 -2 10 4
0 6 11 6 30 1 17 -5 30 -5 30 0 0 5 13 5 30 0 17 -5 30 -5 30 0 0 5 13 5 30 0
17 -5 30 -5 30 0 0 5 13 5 30 0 17 -5 30 -5 30 0 0 5 13 5 30 0 17 -5 30 -5
30 0 0 5 13 5 30 0 17 -5 30 -5 30 0 0 5 13 5 30 0 17 -5 30 -5 30 0 0 5 13 5
30 0 19 -5 30 -5 30 1 0 6 5 7 10 4 14 -9 103 -10 116 -2 5 3 16 2 24 -3 7 -4
23 -4 36 0 12 5 25 6 28 3 8 -8 76 -9 76 -1 0 4 13 3 29 -2 16 -4 32 -6 35 -3
7 8 105 7 113 -1 3 -3 13 -1 22 4 10 5 23 5 31 0 8 -5 21 -5 30 0 9 5 22 5 30
0 8 -5 21 -5 30 0 9 5 22 5 29 0 8 -4 27 -4 42 0 16 5 29 5 29 0 0 -5 13 -5
30 0 17 5 30 5 30 0 0 -5 13 -5 30 0 17 5 30 6 30 2 0 -4 29 -7 65 -7 36 0 65
3 65 7 0 3 12 3 27 -1 16 -4 44 -4 65 -1 20 4 42 4 49 -1 7 -4 20 -4 29 1 9 5
22 5 30 0 8 -5 21 -5 30 0 9 5 22 5 30 0 8 -5 21 -5 30 0 9 5 22 5 29 0 8 -4
27 -4 42 0 16 5 29 5 29 0 0 -5 13 -5 30 0 17 5 30 5 30 0 0 -5 13 -5 30 0 17
5 30 6 30 2 0 -8 62 -8 76 0 5 3 18 2 29 -2 28 -10 55 -1 56 19 1 22 1 971 0
997 -1 20 -5 20 -261 20 -143 -1 -260 3 -260 7 0 5 -6 5 -12 0 -17 -10 -308
-10 -308 0 0 5 -6 5 -12 0 -14 -8 -1248 -11 -1248 -3 0 3 45 48 101 100 55 52
124 118 153 145 192 182 374 355 455 431 150 142 182 172 322 304 214 203 255
242 321 304 35 32 128 120 207 195 78 75 167 159 196 186 29 28 115 109 190
180 76 72 142 133 148 137 7 4 10 175 9 515 0 279 -1 514 -1 521 -1 9 -388 12
-1901 12 l-1900 0 0 -518z"/>
<path d="M21575 22940 c-27 -4 -68 -11 -90 -15 -22 -4 -47 -8 -55 -9 -9 -1
-20 -4 -25 -8 -8 -4 -57 -19 -75 -22 -20 -4 -115 -45 -160 -69 -97 -53 -170
-107 -244 -181 -67 -68 -176 -213 -176 -234 0 -6 -3 -12 -7 -14 -5 -1 -19 -30
-31 -63 -13 -33 -28 -69 -33 -80 -15 -33 -47 -170 -55 -232 -3 -32 -8 -67 -10
-78 -6 -26 -5 -486 1 -545 5 -56 13 -119 19 -145 55 -237 140 -398 285 -544
42 -42 85 -83 96 -91 38 -29 158 -105 164 -103 3 1 20 -7 36 -17 34 -21 194
-75 246 -83 18 -3 45 -8 58 -11 69 -15 258 -19 1038 -19 l852 0 3 -56 c2 -31
0 -110 -3 -176 -4 -96 -10 -128 -27 -162 -43 -82 -118 -131 -210 -138 -31 -2
-59 -5 -62 -6 -3 -1 -9 0 -15 1 -30 6 -115 4 -115 -3 0 -5 -5 -5 -11 -1 -7 4
-93 8 -193 10 -100 1 -260 5 -356 9 -96 4 -215 8 -265 10 -49 2 -137 6 -195 9
-58 3 -150 8 -205 11 -55 3 -131 8 -170 11 -38 2 -113 6 -165 9 -52 3 -122 7
-155 10 -33 3 -102 7 -153 10 -50 3 -113 7 -140 10 -26 2 -91 7 -146 10 -54 4
-107 8 -117 10 -11 2 -19 1 -20 -3 -1 -4 -2 -227 -3 -495 -1 -316 3 -492 9
-497 6 -4 48 -10 95 -14 113 -8 184 -15 245 -22 28 -3 77 -7 110 -10 33 -2 87
-7 120 -9 33 -3 89 -8 125 -11 36 -2 97 -7 135 -10 39 -2 99 -6 135 -9 36 -2
103 -6 150 -9 534 -38 1085 -58 1605 -59 281 -1 356 2 450 19 61 10 161 37
210 56 56 22 187 87 195 97 3 3 25 20 50 36 68 46 190 172 243 252 69 105 134
252 152 346 3 10 6 26 9 35 3 9 8 32 11 50 3 17 8 47 11 65 9 45 11 580 3 647
-17 140 -27 184 -62 290 -11 36 -20 68 -19 73 1 4 -2 7 -7 7 -5 0 -11 10 -15
23 -16 64 -132 226 -231 320 -108 104 -345 232 -462 250 -17 3 -35 7 -40 10
-4 2 -30 7 -58 11 -27 3 -61 9 -75 12 -14 3 -383 7 -820 9 -437 1 -804 5 -815
8 -67 17 -134 77 -168 148 -18 39 -23 64 -21 117 3 114 56 196 153 239 l54 24
1104 1 1103 0 0 92 c1 50 1 273 1 496 l1 405 -1374 1 c-755 1 -1395 -2 -1423
-6z"/>
</g>
</svg>
