<?xml version="1.0" encoding="UTF-8" standalone="no"?>
<!DOCTYPE svg PUBLIC "-//W3C//DTD SVG 1.1//EN"
 "http://www.w3.org/Graphics/SVG/1.1/DTD/svg11.dtd">
<!-- Generated by graphviz version 5.0.0 (20220707.1540)
 -->
<!-- Title: dependencies Pages: 1 -->
<svg width="999pt" height="247pt"
 viewBox="0.00 0.00 999.00 246.80" xmlns="http://www.w3.org/2000/svg" xmlns:xlink="http://www.w3.org/1999/xlink">
<g id="graph0" class="graph" transform="scale(1 1) rotate(0) translate(4 242.8)">
<title>dependencies</title>
<polygon fill="white" stroke="transparent" points="-4,4 -4,-242.8 995,-242.8 995,4 -4,4"/>
<text text-anchor="middle" x="495.5" y="-8.2" font-family="sans-serif" font-size="14.00">dependencies</text>
<g id="clust1" class="cluster">
<title>cluster_AdminModule</title>
<polygon fill="none" stroke="black" stroke-dasharray="1,5" points="8,-32.8 8,-230.8 983,-230.8 983,-32.8 8,-32.8"/>
</g>
<g id="clust4" class="cluster">
<title>cluster_AdminModule_exports</title>
<polygon fill="none" stroke="black" points="386,-170.8 386,-222.8 684,-222.8 684,-170.8 386,-170.8"/>
</g>
<g id="clust6" class="cluster">
<title>cluster_AdminModule_providers</title>
<polygon fill="none" stroke="black" points="16,-40.8 16,-92.8 975,-92.8 975,-40.8 16,-40.8"/>
</g>
<!-- AdminJwtRefreshService  -->
<g id="node1" class="node">
<title>AdminJwtRefreshService </title>
<polygon fill="#fb8072" stroke="black" points="675.86,-214.8 512.14,-214.8 512.14,-178.8 675.86,-178.8 675.86,-214.8"/>
<text text-anchor="middle" x="594" y="-192.6" font-family="Times,serif" font-size="14.00">AdminJwtRefreshService </text>
</g>
<!-- AdminService  -->
<g id="node2" class="node">
<title>AdminService </title>
<polygon fill="#fb8072" stroke="black" points="494.37,-214.8 393.63,-214.8 393.63,-178.8 494.37,-178.8 494.37,-214.8"/>
<text text-anchor="middle" x="444" y="-192.6" font-family="Times,serif" font-size="14.00">AdminService </text>
</g>
<!-- AdminModule -->
<g id="node3" class="node">
<title>AdminModule</title>
<polygon fill="#8dd3c7" stroke="black" points="568.44,-149.8 565.44,-153.8 544.44,-153.8 541.44,-149.8 469.56,-149.8 469.56,-113.8 568.44,-113.8 568.44,-149.8"/>
<text text-anchor="middle" x="519" y="-127.6" font-family="Times,serif" font-size="14.00">AdminModule</text>
</g>
<!-- AdminModule&#45;&gt;AdminJwtRefreshService  -->
<g id="edge1" class="edge">
<title>AdminModule&#45;&gt;AdminJwtRefreshService </title>
<path fill="none" stroke="black" stroke-dasharray="5,2" d="M540.27,-149.91C540.27,-149.91 540.27,-168.79 540.27,-168.79"/>
<polygon fill="black" stroke="black" points="536.77,-168.79 540.27,-178.79 543.77,-168.79 536.77,-168.79"/>
</g>
<!-- AdminModule&#45;&gt;AdminService  -->
<g id="edge2" class="edge">
<title>AdminModule&#45;&gt;AdminService </title>
<path fill="none" stroke="black" stroke-dasharray="5,2" d="M481.98,-149.91C481.98,-149.91 481.98,-168.79 481.98,-168.79"/>
<polygon fill="black" stroke="black" points="478.48,-168.79 481.98,-178.79 485.48,-168.79 478.48,-168.79"/>
</g>
<!-- AdminJwtRefreshService -->
<g id="node4" class="node">
<title>AdminJwtRefreshService</title>
<ellipse fill="#fdb462" stroke="black" cx="857" cy="-66.8" rx="110.03" ry="18"/>
<text text-anchor="middle" x="857" y="-62.6" font-family="Times,serif" font-size="14.00">AdminJwtRefreshService</text>
</g>
<!-- AdminJwtRefreshService&#45;&gt;AdminModule -->
<g id="edge3" class="edge">
<title>AdminJwtRefreshService&#45;&gt;AdminModule</title>
<path fill="none" stroke="black" d="M857,-85.09C857,-107.01 857,-140.8 857,-140.8 857,-140.8 578.51,-140.8 578.51,-140.8"/>
<polygon fill="black" stroke="black" points="578.51,-137.3 568.51,-140.8 578.51,-144.3 578.51,-137.3"/>
</g>
<!-- AdminService -->
<g id="node5" class="node">
<title>AdminService</title>
<ellipse fill="#fdb462" stroke="black" cx="662" cy="-66.8" rx="66.64" ry="18"/>
<text text-anchor="middle" x="662" y="-62.6" font-family="Times,serif" font-size="14.00">AdminService</text>
</g>
<!-- AdminService&#45;&gt;AdminModule -->
<g id="edge4" class="edge">
<title>AdminService&#45;&gt;AdminModule</title>
<path fill="none" stroke="black" d="M622.01,-81.22C622.01,-97.81 622.01,-122.8 622.01,-122.8 622.01,-122.8 578.39,-122.8 578.39,-122.8"/>
<polygon fill="black" stroke="black" points="578.39,-119.3 568.39,-122.8 578.39,-126.3 578.39,-119.3"/>
</g>
<!-- AdminService&#45;&gt;AdminModule -->
<g id="edge5" class="edge">
<title>AdminService&#45;&gt;AdminModule</title>
<path fill="none" stroke="black" d="M648.85,-84.56C648.85,-103.81 648.85,-131.8 648.85,-131.8 648.85,-131.8 578.46,-131.8 578.46,-131.8"/>
<polygon fill="black" stroke="black" points="578.46,-128.3 568.46,-131.8 578.46,-135.3 578.46,-128.3"/>
</g>
<!-- MailService -->
<g id="node6" class="node">
<title>MailService</title>
<ellipse fill="#fdb462" stroke="black" cx="519" cy="-66.8" rx="58.46" ry="18"/>
<text text-anchor="middle" x="519" y="-62.6" font-family="Times,serif" font-size="14.00">MailService</text>
</g>
<!-- MailService&#45;&gt;AdminModule -->
<g id="edge6" class="edge">
<title>MailService&#45;&gt;AdminModule</title>
<path fill="none" stroke="black" d="M519,-84.91C519,-84.91 519,-103.79 519,-103.79"/>
<polygon fill="black" stroke="black" points="515.5,-103.79 519,-113.79 522.5,-103.79 515.5,-103.79"/>
</g>
<!-- OwnerService -->
<g id="node7" class="node">
<title>OwnerService</title>
<ellipse fill="#fdb462" stroke="black" cx="376" cy="-66.8" rx="66.04" ry="18"/>
<text text-anchor="middle" x="376" y="-62.6" font-family="Times,serif" font-size="14.00">OwnerService</text>
</g>
<!-- OwnerService&#45;&gt;AdminModule -->
<g id="edge7" class="edge">
<title>OwnerService&#45;&gt;AdminModule</title>
<path fill="none" stroke="black" d="M418.04,-80.93C418.04,-97.52 418.04,-122.8 418.04,-122.8 418.04,-122.8 459.7,-122.8 459.7,-122.8"/>
<polygon fill="black" stroke="black" points="459.7,-126.3 469.7,-122.8 459.7,-119.3 459.7,-126.3"/>
</g>
<!-- TasksService -->
<g id="node8" class="node">
<title>TasksService</title>
<ellipse fill="#fdb462" stroke="black" cx="229" cy="-66.8" rx="62.55" ry="18"/>
<text text-anchor="middle" x="229" y="-62.6" font-family="Times,serif" font-size="14.00">TasksService</text>
</g>
<!-- TasksService&#45;&gt;AdminModule -->
<g id="edge8" class="edge">
<title>TasksService&#45;&gt;AdminModule</title>
<path fill="none" stroke="black" d="M229,-84.91C229,-104.14 229,-131.8 229,-131.8 229,-131.8 459.48,-131.8 459.48,-131.8"/>
<polygon fill="black" stroke="black" points="459.48,-135.3 469.48,-131.8 459.48,-128.3 459.48,-135.3"/>
</g>
<!-- UsersService -->
<g id="node9" class="node">
<title>UsersService</title>
<ellipse fill="#fdb462" stroke="black" cx="86" cy="-66.8" rx="61.97" ry="18"/>
<text text-anchor="middle" x="86" y="-62.6" font-family="Times,serif" font-size="14.00">UsersService</text>
</g>
<!-- UsersService&#45;&gt;AdminModule -->
<g id="edge9" class="edge">
<title>UsersService&#45;&gt;AdminModule</title>
<path fill="none" stroke="black" d="M86,-85.09C86,-107.01 86,-140.8 86,-140.8 86,-140.8 459.75,-140.8 459.75,-140.8"/>
<polygon fill="black" stroke="black" points="459.75,-144.3 469.75,-140.8 459.75,-137.3 459.75,-144.3"/>
</g>
</g>
</svg>
