<?xml version="1.0" encoding="UTF-8" standalone="no"?>
<!DOCTYPE svg PUBLIC "-//W3C//DTD SVG 1.1//EN"
 "http://www.w3.org/Graphics/SVG/1.1/DTD/svg11.dtd">
<!-- Generated by graphviz version 5.0.0 (20220707.1540)
 -->
<!-- Title: dependencies Pages: 1 -->
<svg width="1169pt" height="247pt"
 viewBox="0.00 0.00 1169.00 246.80" xmlns="http://www.w3.org/2000/svg" xmlns:xlink="http://www.w3.org/1999/xlink">
<g id="graph0" class="graph" transform="scale(1 1) rotate(0) translate(4 242.8)">
<title>dependencies</title>
<polygon fill="white" stroke="transparent" points="-4,4 -4,-242.8 1165,-242.8 1165,4 -4,4"/>
<text text-anchor="middle" x="580.5" y="-8.2" font-family="sans-serif" font-size="14.00">dependencies</text>
<g id="clust1" class="cluster">
<title>cluster_AdminModule</title>
<polygon fill="none" stroke="black" stroke-dasharray="1,5" points="8,-32.8 8,-230.8 1153,-230.8 1153,-32.8 8,-32.8"/>
</g>
<g id="clust4" class="cluster">
<title>cluster_AdminModule_exports</title>
<polygon fill="none" stroke="black" points="462,-170.8 462,-222.8 760,-222.8 760,-170.8 462,-170.8"/>
</g>
<g id="clust6" class="cluster">
<title>cluster_AdminModule_providers</title>
<polygon fill="none" stroke="black" points="16,-40.8 16,-92.8 1145,-92.8 1145,-40.8 16,-40.8"/>
</g>
<!-- AdminJwtRefreshService  -->
<g id="node1" class="node">
<title>AdminJwtRefreshService </title>
<polygon fill="#fb8072" stroke="black" points="751.86,-214.8 588.14,-214.8 588.14,-178.8 751.86,-178.8 751.86,-214.8"/>
<text text-anchor="middle" x="670" y="-192.6" font-family="Times,serif" font-size="14.00">AdminJwtRefreshService </text>
</g>
<!-- AdminService  -->
<g id="node2" class="node">
<title>AdminService </title>
<polygon fill="#fb8072" stroke="black" points="570.37,-214.8 469.63,-214.8 469.63,-178.8 570.37,-178.8 570.37,-214.8"/>
<text text-anchor="middle" x="520" y="-192.6" font-family="Times,serif" font-size="14.00">AdminService </text>
</g>
<!-- AdminModule -->
<g id="node3" class="node">
<title>AdminModule</title>
<polygon fill="#8dd3c7" stroke="black" points="644.44,-149.8 641.44,-153.8 620.44,-153.8 617.44,-149.8 545.56,-149.8 545.56,-113.8 644.44,-113.8 644.44,-149.8"/>
<text text-anchor="middle" x="595" y="-127.6" font-family="Times,serif" font-size="14.00">AdminModule</text>
</g>
<!-- AdminModule&#45;&gt;AdminJwtRefreshService  -->
<g id="edge1" class="edge">
<title>AdminModule&#45;&gt;AdminJwtRefreshService </title>
<path fill="none" stroke="black" stroke-dasharray="5,2" d="M616.27,-149.91C616.27,-149.91 616.27,-168.79 616.27,-168.79"/>
<polygon fill="black" stroke="black" points="612.77,-168.79 616.27,-178.79 619.77,-168.79 612.77,-168.79"/>
</g>
<!-- AdminModule&#45;&gt;AdminService  -->
<g id="edge2" class="edge">
<title>AdminModule&#45;&gt;AdminService </title>
<path fill="none" stroke="black" stroke-dasharray="5,2" d="M557.98,-149.91C557.98,-149.91 557.98,-168.79 557.98,-168.79"/>
<polygon fill="black" stroke="black" points="554.48,-168.79 557.98,-178.79 561.48,-168.79 554.48,-168.79"/>
</g>
<!-- AdminJwtRefreshService -->
<g id="node4" class="node">
<title>AdminJwtRefreshService</title>
<ellipse fill="#fdb462" stroke="black" cx="1027" cy="-66.8" rx="110.03" ry="18"/>
<text text-anchor="middle" x="1027" y="-62.6" font-family="Times,serif" font-size="14.00">AdminJwtRefreshService</text>
</g>
<!-- AdminJwtRefreshService&#45;&gt;AdminModule -->
<g id="edge3" class="edge">
<title>AdminJwtRefreshService&#45;&gt;AdminModule</title>
<path fill="none" stroke="black" d="M1027,-85.09C1027,-107.01 1027,-140.8 1027,-140.8 1027,-140.8 654.56,-140.8 654.56,-140.8"/>
<polygon fill="black" stroke="black" points="654.56,-137.3 644.56,-140.8 654.56,-144.3 654.56,-137.3"/>
</g>
<!-- AdminService -->
<g id="node5" class="node">
<title>AdminService</title>
<ellipse fill="#fdb462" stroke="black" cx="832" cy="-66.8" rx="66.64" ry="18"/>
<text text-anchor="middle" x="832" y="-62.6" font-family="Times,serif" font-size="14.00">AdminService</text>
</g>
<!-- AdminService&#45;&gt;AdminModule -->
<g id="edge4" class="edge">
<title>AdminService&#45;&gt;AdminModule</title>
<path fill="none" stroke="black" d="M809.73,-83.91C809.73,-100.37 809.73,-122.8 809.73,-122.8 809.73,-122.8 654.26,-122.8 654.26,-122.8"/>
<polygon fill="black" stroke="black" points="654.26,-119.3 644.26,-122.8 654.26,-126.3 654.26,-119.3"/>
</g>
<!-- AdminService&#45;&gt;AdminModule -->
<g id="edge5" class="edge">
<title>AdminService&#45;&gt;AdminModule</title>
<path fill="none" stroke="black" d="M854.27,-83.88C854.27,-103.14 854.27,-131.8 854.27,-131.8 854.27,-131.8 654.38,-131.8 654.38,-131.8"/>
<polygon fill="black" stroke="black" points="654.38,-128.3 644.38,-131.8 654.38,-135.3 654.38,-128.3"/>
</g>
<!-- CurrencyService -->
<g id="node6" class="node">
<title>CurrencyService</title>
<ellipse fill="#fdb462" stroke="black" cx="671" cy="-66.8" rx="75.85" ry="18"/>
<text text-anchor="middle" x="671" y="-62.6" font-family="Times,serif" font-size="14.00">CurrencyService</text>
</g>
<!-- CurrencyService&#45;&gt;AdminModule -->
<g id="edge6" class="edge">
<title>CurrencyService&#45;&gt;AdminModule</title>
<path fill="none" stroke="black" d="M619.65,-80.27C619.65,-80.27 619.65,-103.66 619.65,-103.66"/>
<polygon fill="black" stroke="black" points="616.15,-103.66 619.65,-113.66 623.15,-103.66 616.15,-103.66"/>
</g>
<!-- MailService -->
<g id="node7" class="node">
<title>MailService</title>
<ellipse fill="#fdb462" stroke="black" cx="519" cy="-66.8" rx="58.46" ry="18"/>
<text text-anchor="middle" x="519" y="-62.6" font-family="Times,serif" font-size="14.00">MailService</text>
</g>
<!-- MailService&#45;&gt;AdminModule -->
<g id="edge7" class="edge">
<title>MailService&#45;&gt;AdminModule</title>
<path fill="none" stroke="black" d="M561.51,-79.33C561.51,-79.33 561.51,-103.65 561.51,-103.65"/>
<polygon fill="black" stroke="black" points="558.01,-103.65 561.51,-113.65 565.01,-103.65 558.01,-103.65"/>
</g>
<!-- OwnerService -->
<g id="node8" class="node">
<title>OwnerService</title>
<ellipse fill="#fdb462" stroke="black" cx="376" cy="-66.8" rx="66.04" ry="18"/>
<text text-anchor="middle" x="376" y="-62.6" font-family="Times,serif" font-size="14.00">OwnerService</text>
</g>
<!-- OwnerService&#45;&gt;AdminModule -->
<g id="edge8" class="edge">
<title>OwnerService&#45;&gt;AdminModule</title>
<path fill="none" stroke="black" d="M376,-84.83C376,-101.2 376,-122.8 376,-122.8 376,-122.8 535.58,-122.8 535.58,-122.8"/>
<polygon fill="black" stroke="black" points="535.58,-126.3 545.58,-122.8 535.58,-119.3 535.58,-126.3"/>
</g>
<!-- TasksService -->
<g id="node9" class="node">
<title>TasksService</title>
<ellipse fill="#fdb462" stroke="black" cx="229" cy="-66.8" rx="62.55" ry="18"/>
<text text-anchor="middle" x="229" y="-62.6" font-family="Times,serif" font-size="14.00">TasksService</text>
</g>
<!-- TasksService&#45;&gt;AdminModule -->
<g id="edge9" class="edge">
<title>TasksService&#45;&gt;AdminModule</title>
<path fill="none" stroke="black" d="M229,-84.91C229,-104.14 229,-131.8 229,-131.8 229,-131.8 535.64,-131.8 535.64,-131.8"/>
<polygon fill="black" stroke="black" points="535.64,-135.3 545.64,-131.8 535.64,-128.3 535.64,-135.3"/>
</g>
<!-- UsersService -->
<g id="node10" class="node">
<title>UsersService</title>
<ellipse fill="#fdb462" stroke="black" cx="86" cy="-66.8" rx="61.97" ry="18"/>
<text text-anchor="middle" x="86" y="-62.6" font-family="Times,serif" font-size="14.00">UsersService</text>
</g>
<!-- UsersService&#45;&gt;AdminModule -->
<g id="edge10" class="edge">
<title>UsersService&#45;&gt;AdminModule</title>
<path fill="none" stroke="black" d="M86,-85.09C86,-107.01 86,-140.8 86,-140.8 86,-140.8 535.73,-140.8 535.73,-140.8"/>
<polygon fill="black" stroke="black" points="535.73,-144.3 545.73,-140.8 535.73,-137.3 535.73,-144.3"/>
</g>
</g>
</svg>
