<?xml version="1.0" encoding="UTF-8" standalone="no"?>
<!DOCTYPE svg PUBLIC "-//W3C//DTD SVG 1.1//EN"
 "http://www.w3.org/Graphics/SVG/1.1/DTD/svg11.dtd">
<!-- Generated by graphviz version 5.0.0 (20220707.1540)
 -->
<!-- Title: dependencies Pages: 1 -->
<svg width="872pt" height="247pt"
 viewBox="0.00 0.00 872.00 246.80" xmlns="http://www.w3.org/2000/svg" xmlns:xlink="http://www.w3.org/1999/xlink">
<g id="graph0" class="graph" transform="scale(1 1) rotate(0) translate(4 242.8)">
<title>dependencies</title>
<polygon fill="white" stroke="transparent" points="-4,4 -4,-242.8 868,-242.8 868,4 -4,4"/>
<text text-anchor="middle" x="432" y="-8.2" font-family="sans-serif" font-size="14.00">dependencies</text>
<g id="clust1" class="cluster">
<title>cluster_RolesModule</title>
<polygon fill="none" stroke="black" stroke-dasharray="1,5" points="8,-32.8 8,-230.8 856,-230.8 856,-32.8 8,-32.8"/>
</g>
<g id="clust6" class="cluster">
<title>cluster_RolesModule_providers</title>
<polygon fill="none" stroke="black" points="16,-40.8 16,-92.8 848,-92.8 848,-40.8 16,-40.8"/>
</g>
<g id="clust4" class="cluster">
<title>cluster_RolesModule_exports</title>
<polygon fill="none" stroke="black" points="444,-170.8 444,-222.8 554,-222.8 554,-170.8 444,-170.8"/>
</g>
<!-- RolesService  -->
<g id="node1" class="node">
<title>RolesService </title>
<polygon fill="#fb8072" stroke="black" points="545.87,-214.8 452.13,-214.8 452.13,-178.8 545.87,-178.8 545.87,-214.8"/>
<text text-anchor="middle" x="499" y="-192.6" font-family="Times,serif" font-size="14.00">RolesService </text>
</g>
<!-- RolesModule -->
<g id="node2" class="node">
<title>RolesModule</title>
<polygon fill="#8dd3c7" stroke="black" points="544.94,-149.8 541.94,-153.8 520.94,-153.8 517.94,-149.8 453.06,-149.8 453.06,-113.8 544.94,-113.8 544.94,-149.8"/>
<text text-anchor="middle" x="499" y="-127.6" font-family="Times,serif" font-size="14.00">RolesModule</text>
</g>
<!-- RolesModule&#45;&gt;RolesService  -->
<g id="edge1" class="edge">
<title>RolesModule&#45;&gt;RolesService </title>
<path fill="none" stroke="black" stroke-dasharray="5,2" d="M499,-149.91C499,-149.91 499,-168.79 499,-168.79"/>
<polygon fill="black" stroke="black" points="495.5,-168.79 499,-178.79 502.5,-168.79 495.5,-168.79"/>
</g>
<!-- AuthService -->
<g id="node3" class="node">
<title>AuthService</title>
<ellipse fill="#fdb462" stroke="black" cx="781" cy="-66.8" rx="59.11" ry="18"/>
<text text-anchor="middle" x="781" y="-62.6" font-family="Times,serif" font-size="14.00">AuthService</text>
</g>
<!-- AuthService&#45;&gt;RolesModule -->
<g id="edge2" class="edge">
<title>AuthService&#45;&gt;RolesModule</title>
<path fill="none" stroke="black" d="M781,-85.08C781,-106.12 781,-137.8 781,-137.8 781,-137.8 554.94,-137.8 554.94,-137.8"/>
<polygon fill="black" stroke="black" points="554.94,-134.3 544.94,-137.8 554.94,-141.3 554.94,-134.3"/>
</g>
<!-- RolesService -->
<g id="node4" class="node">
<title>RolesService</title>
<ellipse fill="#fdb462" stroke="black" cx="642" cy="-66.8" rx="61.98" ry="18"/>
<text text-anchor="middle" x="642" y="-62.6" font-family="Times,serif" font-size="14.00">RolesService</text>
</g>
<!-- RolesService&#45;&gt;RolesModule -->
<g id="edge3" class="edge">
<title>RolesService&#45;&gt;RolesModule</title>
<path fill="none" stroke="black" d="M642,-84.82C642,-102.17 642,-125.8 642,-125.8 642,-125.8 555.03,-125.8 555.03,-125.8"/>
<polygon fill="black" stroke="black" points="555.03,-122.3 545.03,-125.8 555.03,-129.3 555.03,-122.3"/>
</g>
<!-- TasksService -->
<g id="node5" class="node">
<title>TasksService</title>
<ellipse fill="#fdb462" stroke="black" cx="499" cy="-66.8" rx="62.55" ry="18"/>
<text text-anchor="middle" x="499" y="-62.6" font-family="Times,serif" font-size="14.00">TasksService</text>
</g>
<!-- TasksService&#45;&gt;RolesModule -->
<g id="edge4" class="edge">
<title>TasksService&#45;&gt;RolesModule</title>
<path fill="none" stroke="black" d="M499,-84.91C499,-84.91 499,-103.79 499,-103.79"/>
<polygon fill="black" stroke="black" points="495.5,-103.79 499,-113.79 502.5,-103.79 495.5,-103.79"/>
</g>
<!-- UserJwtRefreshTokenService -->
<g id="node6" class="node">
<title>UserJwtRefreshTokenService</title>
<ellipse fill="#fdb462" stroke="black" cx="292" cy="-66.8" rx="126.19" ry="18"/>
<text text-anchor="middle" x="292" y="-62.6" font-family="Times,serif" font-size="14.00">UserJwtRefreshTokenService</text>
</g>
<!-- UserJwtRefreshTokenService&#45;&gt;RolesModule -->
<g id="edge5" class="edge">
<title>UserJwtRefreshTokenService&#45;&gt;RolesModule</title>
<path fill="none" stroke="black" d="M292,-84.82C292,-102.17 292,-125.8 292,-125.8 292,-125.8 443.06,-125.8 443.06,-125.8"/>
<polygon fill="black" stroke="black" points="443.06,-129.3 453.06,-125.8 443.06,-122.3 443.06,-129.3"/>
</g>
<!-- UsersService -->
<g id="node7" class="node">
<title>UsersService</title>
<ellipse fill="#fdb462" stroke="black" cx="86" cy="-66.8" rx="61.97" ry="18"/>
<text text-anchor="middle" x="86" y="-62.6" font-family="Times,serif" font-size="14.00">UsersService</text>
</g>
<!-- UsersService&#45;&gt;RolesModule -->
<g id="edge6" class="edge">
<title>UsersService&#45;&gt;RolesModule</title>
<path fill="none" stroke="black" d="M86,-85.08C86,-106.12 86,-137.8 86,-137.8 86,-137.8 443.22,-137.8 443.22,-137.8"/>
<polygon fill="black" stroke="black" points="443.22,-141.3 453.22,-137.8 443.22,-134.3 443.22,-141.3"/>
</g>
</g>
</svg>
