<?xml version="1.0" encoding="UTF-8" standalone="no"?>
<!DOCTYPE svg PUBLIC "-//W3C//DTD SVG 1.1//EN"
 "http://www.w3.org/Graphics/SVG/1.1/DTD/svg11.dtd">
<!-- Generated by graphviz version 5.0.0 (20220707.1540)
 -->
<!-- Title: dependencies Pages: 1 -->
<svg width="1042pt" height="247pt"
 viewBox="0.00 0.00 1042.00 246.80" xmlns="http://www.w3.org/2000/svg" xmlns:xlink="http://www.w3.org/1999/xlink">
<g id="graph0" class="graph" transform="scale(1 1) rotate(0) translate(4 242.8)">
<title>dependencies</title>
<polygon fill="white" stroke="transparent" points="-4,4 -4,-242.8 1038,-242.8 1038,4 -4,4"/>
<text text-anchor="middle" x="517" y="-8.2" font-family="sans-serif" font-size="14.00">dependencies</text>
<g id="clust1" class="cluster">
<title>cluster_RolesModule</title>
<polygon fill="none" stroke="black" stroke-dasharray="1,5" points="8,-32.8 8,-230.8 1026,-230.8 1026,-32.8 8,-32.8"/>
</g>
<g id="clust4" class="cluster">
<title>cluster_RolesModule_exports</title>
<polygon fill="none" stroke="black" points="515,-170.8 515,-222.8 625,-222.8 625,-170.8 515,-170.8"/>
</g>
<g id="clust6" class="cluster">
<title>cluster_RolesModule_providers</title>
<polygon fill="none" stroke="black" points="16,-40.8 16,-92.8 1018,-92.8 1018,-40.8 16,-40.8"/>
</g>
<!-- RolesService  -->
<g id="node1" class="node">
<title>RolesService </title>
<polygon fill="#fb8072" stroke="black" points="616.87,-214.8 523.13,-214.8 523.13,-178.8 616.87,-178.8 616.87,-214.8"/>
<text text-anchor="middle" x="570" y="-192.6" font-family="Times,serif" font-size="14.00">RolesService </text>
</g>
<!-- RolesModule -->
<g id="node2" class="node">
<title>RolesModule</title>
<polygon fill="#8dd3c7" stroke="black" points="615.94,-149.8 612.94,-153.8 591.94,-153.8 588.94,-149.8 524.06,-149.8 524.06,-113.8 615.94,-113.8 615.94,-149.8"/>
<text text-anchor="middle" x="570" y="-127.6" font-family="Times,serif" font-size="14.00">RolesModule</text>
</g>
<!-- RolesModule&#45;&gt;RolesService  -->
<g id="edge1" class="edge">
<title>RolesModule&#45;&gt;RolesService </title>
<path fill="none" stroke="black" stroke-dasharray="5,2" d="M570,-149.91C570,-149.91 570,-168.79 570,-168.79"/>
<polygon fill="black" stroke="black" points="566.5,-168.79 570,-178.79 573.5,-168.79 566.5,-168.79"/>
</g>
<!-- AuthService -->
<g id="node3" class="node">
<title>AuthService</title>
<ellipse fill="#fdb462" stroke="black" cx="951" cy="-66.8" rx="59.11" ry="18"/>
<text text-anchor="middle" x="951" y="-62.6" font-family="Times,serif" font-size="14.00">AuthService</text>
</g>
<!-- AuthService&#45;&gt;RolesModule -->
<g id="edge2" class="edge">
<title>AuthService&#45;&gt;RolesModule</title>
<path fill="none" stroke="black" d="M951,-85.08C951,-106.12 951,-137.8 951,-137.8 951,-137.8 625.96,-137.8 625.96,-137.8"/>
<polygon fill="black" stroke="black" points="625.96,-134.3 615.96,-137.8 625.96,-141.3 625.96,-134.3"/>
</g>
<!-- CurrencyService -->
<g id="node4" class="node">
<title>CurrencyService</title>
<ellipse fill="#fdb462" stroke="black" cx="798" cy="-66.8" rx="75.85" ry="18"/>
<text text-anchor="middle" x="798" y="-62.6" font-family="Times,serif" font-size="14.00">CurrencyService</text>
</g>
<!-- CurrencyService&#45;&gt;RolesModule -->
<g id="edge3" class="edge">
<title>CurrencyService&#45;&gt;RolesModule</title>
<path fill="none" stroke="black" d="M798,-84.82C798,-102.17 798,-125.8 798,-125.8 798,-125.8 625.86,-125.8 625.86,-125.8"/>
<polygon fill="black" stroke="black" points="625.86,-122.3 615.86,-125.8 625.86,-129.3 625.86,-122.3"/>
</g>
<!-- RolesService -->
<g id="node5" class="node">
<title>RolesService</title>
<ellipse fill="#fdb462" stroke="black" cx="642" cy="-66.8" rx="61.98" ry="18"/>
<text text-anchor="middle" x="642" y="-62.6" font-family="Times,serif" font-size="14.00">RolesService</text>
</g>
<!-- RolesService&#45;&gt;RolesModule -->
<g id="edge4" class="edge">
<title>RolesService&#45;&gt;RolesModule</title>
<path fill="none" stroke="black" d="M597.87,-79.64C597.87,-79.64 597.87,-103.32 597.87,-103.32"/>
<polygon fill="black" stroke="black" points="594.37,-103.32 597.87,-113.32 601.37,-103.32 594.37,-103.32"/>
</g>
<!-- TasksService -->
<g id="node6" class="node">
<title>TasksService</title>
<ellipse fill="#fdb462" stroke="black" cx="499" cy="-66.8" rx="62.55" ry="18"/>
<text text-anchor="middle" x="499" y="-62.6" font-family="Times,serif" font-size="14.00">TasksService</text>
</g>
<!-- TasksService&#45;&gt;RolesModule -->
<g id="edge5" class="edge">
<title>TasksService&#45;&gt;RolesModule</title>
<path fill="none" stroke="black" d="M542.9,-79.64C542.9,-79.64 542.9,-103.32 542.9,-103.32"/>
<polygon fill="black" stroke="black" points="539.4,-103.32 542.9,-113.32 546.4,-103.32 539.4,-103.32"/>
</g>
<!-- UserJwtRefreshTokenService -->
<g id="node7" class="node">
<title>UserJwtRefreshTokenService</title>
<ellipse fill="#fdb462" stroke="black" cx="292" cy="-66.8" rx="126.19" ry="18"/>
<text text-anchor="middle" x="292" y="-62.6" font-family="Times,serif" font-size="14.00">UserJwtRefreshTokenService</text>
</g>
<!-- UserJwtRefreshTokenService&#45;&gt;RolesModule -->
<g id="edge6" class="edge">
<title>UserJwtRefreshTokenService&#45;&gt;RolesModule</title>
<path fill="none" stroke="black" d="M292,-84.82C292,-102.17 292,-125.8 292,-125.8 292,-125.8 514.09,-125.8 514.09,-125.8"/>
<polygon fill="black" stroke="black" points="514.09,-129.3 524.09,-125.8 514.09,-122.3 514.09,-129.3"/>
</g>
<!-- UsersService -->
<g id="node8" class="node">
<title>UsersService</title>
<ellipse fill="#fdb462" stroke="black" cx="86" cy="-66.8" rx="61.97" ry="18"/>
<text text-anchor="middle" x="86" y="-62.6" font-family="Times,serif" font-size="14.00">UsersService</text>
</g>
<!-- UsersService&#45;&gt;RolesModule -->
<g id="edge7" class="edge">
<title>UsersService&#45;&gt;RolesModule</title>
<path fill="none" stroke="black" d="M86,-85.08C86,-106.12 86,-137.8 86,-137.8 86,-137.8 514.03,-137.8 514.03,-137.8"/>
<polygon fill="black" stroke="black" points="514.03,-141.3 524.03,-137.8 514.03,-134.3 514.03,-141.3"/>
</g>
</g>
</svg>
