<?xml version="1.0" encoding="UTF-8" standalone="no"?>
<!DOCTYPE svg PUBLIC "-//W3C//DTD SVG 1.1//EN"
 "http://www.w3.org/Graphics/SVG/1.1/DTD/svg11.dtd">
<!-- Generated by graphviz version 5.0.0 (20220707.1540)
 -->
<!-- Title: dependencies Pages: 1 -->
<svg width="1807pt" height="174pt"
 viewBox="0.00 0.00 1807.00 173.80" xmlns="http://www.w3.org/2000/svg" xmlns:xlink="http://www.w3.org/1999/xlink">
<g id="graph0" class="graph" transform="scale(1 1) rotate(0) translate(4 169.8)">
<title>dependencies</title>
<polygon fill="white" stroke="transparent" points="-4,4 -4,-169.8 1803,-169.8 1803,4 -4,4"/>
<text text-anchor="middle" x="899.5" y="-8.2" font-family="sans-serif" font-size="14.00">dependencies</text>
<g id="clust1" class="cluster">
<title>cluster_AppModule</title>
<polygon fill="none" stroke="black" stroke-dasharray="1,5" points="8,-32.8 8,-157.8 1791,-157.8 1791,-32.8 8,-32.8"/>
</g>
<g id="clust3" class="cluster">
<title>cluster_AppModule_imports</title>
<polygon fill="none" stroke="black" points="353,-40.8 353,-92.8 1783,-92.8 1783,-40.8 353,-40.8"/>
</g>
<g id="clust6" class="cluster">
<title>cluster_AppModule_providers</title>
<polygon fill="none" stroke="black" points="16,-40.8 16,-92.8 345,-92.8 345,-40.8 16,-40.8"/>
</g>
<!-- AdminModule -->
<g id="node1" class="node">
<title>AdminModule</title>
<polygon fill="#8dd3c7" stroke="black" points="1775.44,-84.8 1772.44,-88.8 1751.44,-88.8 1748.44,-84.8 1676.56,-84.8 1676.56,-48.8 1775.44,-48.8 1775.44,-84.8"/>
<text text-anchor="middle" x="1726" y="-62.6" font-family="Times,serif" font-size="14.00">AdminModule</text>
</g>
<!-- AppModule -->
<g id="node13" class="node">
<title>AppModule</title>
<polygon fill="#8dd3c7" stroke="black" points="995.66,-149.8 992.66,-153.8 971.66,-153.8 968.66,-149.8 912.34,-149.8 912.34,-113.8 995.66,-113.8 995.66,-149.8"/>
<text text-anchor="middle" x="954" y="-127.6" font-family="Times,serif" font-size="14.00">AppModule</text>
</g>
<!-- AdminModule&#45;&gt;AppModule -->
<g id="edge1" class="edge">
<title>AdminModule&#45;&gt;AppModule</title>
<path fill="none" stroke="black" d="M1726,-84.89C1726,-107.93 1726,-144.8 1726,-144.8 1726,-144.8 1005.78,-144.8 1005.78,-144.8"/>
<polygon fill="black" stroke="black" points="1005.78,-141.3 995.78,-144.8 1005.78,-148.3 1005.78,-141.3"/>
</g>
<!-- AuthModule -->
<g id="node2" class="node">
<title>AuthModule</title>
<polygon fill="#8dd3c7" stroke="black" points="1658.55,-84.8 1655.55,-88.8 1634.55,-88.8 1631.55,-84.8 1571.45,-84.8 1571.45,-48.8 1658.55,-48.8 1658.55,-84.8"/>
<text text-anchor="middle" x="1615" y="-62.6" font-family="Times,serif" font-size="14.00">AuthModule</text>
</g>
<!-- AuthModule&#45;&gt;AppModule -->
<g id="edge2" class="edge">
<title>AuthModule&#45;&gt;AppModule</title>
<path fill="none" stroke="black" d="M1615,-84.84C1615,-106.46 1615,-139.8 1615,-139.8 1615,-139.8 1005.85,-139.8 1005.85,-139.8"/>
<polygon fill="black" stroke="black" points="1005.85,-136.3 995.85,-139.8 1005.85,-143.3 1005.85,-136.3"/>
</g>
<!-- CartModule -->
<g id="node3" class="node">
<title>CartModule</title>
<polygon fill="#8dd3c7" stroke="black" points="1552.66,-84.8 1549.66,-88.8 1528.66,-88.8 1525.66,-84.8 1469.34,-84.8 1469.34,-48.8 1552.66,-48.8 1552.66,-84.8"/>
<text text-anchor="middle" x="1511" y="-62.6" font-family="Times,serif" font-size="14.00">CartModule</text>
</g>
<!-- CartModule&#45;&gt;AppModule -->
<g id="edge3" class="edge">
<title>CartModule&#45;&gt;AppModule</title>
<path fill="none" stroke="black" d="M1511,-85.02C1511,-105.17 1511,-134.8 1511,-134.8 1511,-134.8 1005.87,-134.8 1005.87,-134.8"/>
<polygon fill="black" stroke="black" points="1005.87,-131.3 995.87,-134.8 1005.87,-138.3 1005.87,-131.3"/>
</g>
<!-- CategoriesColoursModule -->
<g id="node4" class="node">
<title>CategoriesColoursModule</title>
<polygon fill="#8dd3c7" stroke="black" points="1450.76,-84.8 1447.76,-88.8 1426.76,-88.8 1423.76,-84.8 1287.24,-84.8 1287.24,-48.8 1450.76,-48.8 1450.76,-84.8"/>
<text text-anchor="middle" x="1369" y="-62.6" font-family="Times,serif" font-size="14.00">CategoriesColoursModule</text>
</g>
<!-- CategoriesColoursModule&#45;&gt;AppModule -->
<g id="edge4" class="edge">
<title>CategoriesColoursModule&#45;&gt;AppModule</title>
<path fill="none" stroke="black" d="M1369,-85.02C1369,-103.63 1369,-129.8 1369,-129.8 1369,-129.8 1005.69,-129.8 1005.69,-129.8"/>
<polygon fill="black" stroke="black" points="1005.69,-126.3 995.69,-129.8 1005.69,-133.3 1005.69,-126.3"/>
</g>
<!-- CoreModule -->
<g id="node5" class="node">
<title>CoreModule</title>
<polygon fill="#8dd3c7" stroke="black" points="1269.27,-84.8 1266.27,-88.8 1245.27,-88.8 1242.27,-84.8 1182.73,-84.8 1182.73,-48.8 1269.27,-48.8 1269.27,-84.8"/>
<text text-anchor="middle" x="1226" y="-62.6" font-family="Times,serif" font-size="14.00">CoreModule</text>
</g>
<!-- CoreModule&#45;&gt;AppModule -->
<g id="edge5" class="edge">
<title>CoreModule&#45;&gt;AppModule</title>
<path fill="none" stroke="black" d="M1226,-84.83C1226,-101.86 1226,-124.8 1226,-124.8 1226,-124.8 1005.9,-124.8 1005.9,-124.8"/>
<polygon fill="black" stroke="black" points="1005.9,-121.3 995.9,-124.8 1005.9,-128.3 1005.9,-121.3"/>
</g>
<!-- MailModule -->
<g id="node6" class="node">
<title>MailModule</title>
<polygon fill="#8dd3c7" stroke="black" points="1164.99,-84.8 1161.99,-88.8 1140.99,-88.8 1137.99,-84.8 1079.01,-84.8 1079.01,-48.8 1164.99,-48.8 1164.99,-84.8"/>
<text text-anchor="middle" x="1122" y="-62.6" font-family="Times,serif" font-size="14.00">MailModule</text>
</g>
<!-- MailModule&#45;&gt;AppModule -->
<g id="edge6" class="edge">
<title>MailModule&#45;&gt;AppModule</title>
<path fill="none" stroke="black" d="M1122,-85.04C1122,-100.37 1122,-119.8 1122,-119.8 1122,-119.8 1005.96,-119.8 1005.96,-119.8"/>
<polygon fill="black" stroke="black" points="1005.96,-116.3 995.96,-119.8 1005.96,-123.3 1005.96,-116.3"/>
</g>
<!-- OrdersModule -->
<g id="node7" class="node">
<title>OrdersModule</title>
<polygon fill="#8dd3c7" stroke="black" points="1060.65,-84.8 1057.65,-88.8 1036.65,-88.8 1033.65,-84.8 963.35,-84.8 963.35,-48.8 1060.65,-48.8 1060.65,-84.8"/>
<text text-anchor="middle" x="1012" y="-62.6" font-family="Times,serif" font-size="14.00">OrdersModule</text>
</g>
<!-- OrdersModule&#45;&gt;AppModule -->
<g id="edge7" class="edge">
<title>OrdersModule&#45;&gt;AppModule</title>
<path fill="none" stroke="black" d="M979.5,-84.91C979.5,-84.91 979.5,-103.79 979.5,-103.79"/>
<polygon fill="black" stroke="black" points="976,-103.79 979.5,-113.79 983,-103.79 976,-103.79"/>
</g>
<!-- OwnerModule -->
<g id="node8" class="node">
<title>OwnerModule</title>
<polygon fill="#8dd3c7" stroke="black" points="944.65,-84.8 941.65,-88.8 920.65,-88.8 917.65,-84.8 847.35,-84.8 847.35,-48.8 944.65,-48.8 944.65,-84.8"/>
<text text-anchor="middle" x="896" y="-62.6" font-family="Times,serif" font-size="14.00">OwnerModule</text>
</g>
<!-- OwnerModule&#45;&gt;AppModule -->
<g id="edge8" class="edge">
<title>OwnerModule&#45;&gt;AppModule</title>
<path fill="none" stroke="black" d="M928.5,-84.91C928.5,-84.91 928.5,-103.79 928.5,-103.79"/>
<polygon fill="black" stroke="black" points="925,-103.79 928.5,-113.79 932,-103.79 925,-103.79"/>
</g>
<!-- ProductModule -->
<g id="node9" class="node">
<title>ProductModule</title>
<polygon fill="#8dd3c7" stroke="black" points="829.6,-84.8 826.6,-88.8 805.6,-88.8 802.6,-84.8 726.4,-84.8 726.4,-48.8 829.6,-48.8 829.6,-84.8"/>
<text text-anchor="middle" x="778" y="-62.6" font-family="Times,serif" font-size="14.00">ProductModule</text>
</g>
<!-- ProductModule&#45;&gt;AppModule -->
<g id="edge9" class="edge">
<title>ProductModule&#45;&gt;AppModule</title>
<path fill="none" stroke="black" d="M778,-85.04C778,-100.37 778,-119.8 778,-119.8 778,-119.8 902.29,-119.8 902.29,-119.8"/>
<polygon fill="black" stroke="black" points="902.29,-123.3 912.29,-119.8 902.29,-116.3 902.29,-123.3"/>
</g>
<!-- ReviewsModule -->
<g id="node10" class="node">
<title>ReviewsModule</title>
<polygon fill="#8dd3c7" stroke="black" points="708.77,-84.8 705.77,-88.8 684.77,-88.8 681.77,-84.8 601.23,-84.8 601.23,-48.8 708.77,-48.8 708.77,-84.8"/>
<text text-anchor="middle" x="655" y="-62.6" font-family="Times,serif" font-size="14.00">ReviewsModule</text>
</g>
<!-- ReviewsModule&#45;&gt;AppModule -->
<g id="edge10" class="edge">
<title>ReviewsModule&#45;&gt;AppModule</title>
<path fill="none" stroke="black" d="M655,-84.83C655,-101.86 655,-124.8 655,-124.8 655,-124.8 902.11,-124.8 902.11,-124.8"/>
<polygon fill="black" stroke="black" points="902.11,-128.3 912.11,-124.8 902.11,-121.3 902.11,-128.3"/>
</g>
<!-- TelegramModule -->
<g id="node11" class="node">
<title>TelegramModule</title>
<polygon fill="#8dd3c7" stroke="black" points="583.69,-84.8 580.69,-88.8 559.69,-88.8 556.69,-84.8 470.31,-84.8 470.31,-48.8 583.69,-48.8 583.69,-84.8"/>
<text text-anchor="middle" x="527" y="-62.6" font-family="Times,serif" font-size="14.00">TelegramModule</text>
</g>
<!-- TelegramModule&#45;&gt;AppModule -->
<g id="edge11" class="edge">
<title>TelegramModule&#45;&gt;AppModule</title>
<path fill="none" stroke="black" d="M527,-85.02C527,-103.63 527,-129.8 527,-129.8 527,-129.8 902.28,-129.8 902.28,-129.8"/>
<polygon fill="black" stroke="black" points="902.28,-133.3 912.28,-129.8 902.28,-126.3 902.28,-133.3"/>
</g>
<!-- UsersModule -->
<g id="node12" class="node">
<title>UsersModule</title>
<polygon fill="#8dd3c7" stroke="black" points="452.94,-84.8 449.94,-88.8 428.94,-88.8 425.94,-84.8 361.06,-84.8 361.06,-48.8 452.94,-48.8 452.94,-84.8"/>
<text text-anchor="middle" x="407" y="-62.6" font-family="Times,serif" font-size="14.00">UsersModule</text>
</g>
<!-- UsersModule&#45;&gt;AppModule -->
<g id="edge12" class="edge">
<title>UsersModule&#45;&gt;AppModule</title>
<path fill="none" stroke="black" d="M407,-85.02C407,-105.17 407,-134.8 407,-134.8 407,-134.8 901.99,-134.8 901.99,-134.8"/>
<polygon fill="black" stroke="black" points="901.99,-138.3 911.99,-134.8 901.99,-131.3 901.99,-138.3"/>
</g>
<!-- AppClusterService -->
<g id="node14" class="node">
<title>AppClusterService</title>
<ellipse fill="#fdb462" stroke="black" cx="252" cy="-66.8" rx="84.54" ry="18"/>
<text text-anchor="middle" x="252" y="-62.6" font-family="Times,serif" font-size="14.00">AppClusterService</text>
</g>
<!-- AppClusterService&#45;&gt;AppModule -->
<g id="edge13" class="edge">
<title>AppClusterService&#45;&gt;AppModule</title>
<path fill="none" stroke="black" d="M252,-84.84C252,-106.46 252,-139.8 252,-139.8 252,-139.8 902.19,-139.8 902.19,-139.8"/>
<polygon fill="black" stroke="black" points="902.19,-143.3 912.19,-139.8 902.19,-136.3 902.19,-143.3"/>
</g>
<!-- TasksService -->
<g id="node15" class="node">
<title>TasksService</title>
<ellipse fill="#fdb462" stroke="black" cx="87" cy="-66.8" rx="62.55" ry="18"/>
<text text-anchor="middle" x="87" y="-62.6" font-family="Times,serif" font-size="14.00">TasksService</text>
</g>
<!-- TasksService&#45;&gt;AppModule -->
<g id="edge14" class="edge">
<title>TasksService&#45;&gt;AppModule</title>
<path fill="none" stroke="black" d="M87,-84.89C87,-107.93 87,-144.8 87,-144.8 87,-144.8 902.18,-144.8 902.18,-144.8"/>
<polygon fill="black" stroke="black" points="902.18,-148.3 912.18,-144.8 902.18,-141.3 902.18,-148.3"/>
</g>
</g>
</svg>
