<?xml version="1.0" encoding="UTF-8" standalone="no"?>
<!DOCTYPE svg PUBLIC "-//W3C//DTD SVG 1.1//EN"
 "http://www.w3.org/Graphics/SVG/1.1/DTD/svg11.dtd">
<!-- Generated by graphviz version 5.0.0 (20220707.1540)
 -->
<!-- Title: dependencies Pages: 1 -->
<svg width="1620pt" height="174pt"
 viewBox="0.00 0.00 1620.00 173.80" xmlns="http://www.w3.org/2000/svg" xmlns:xlink="http://www.w3.org/1999/xlink">
<g id="graph0" class="graph" transform="scale(1 1) rotate(0) translate(4 169.8)">
<title>dependencies</title>
<polygon fill="white" stroke="transparent" points="-4,4 -4,-169.8 1616,-169.8 1616,4 -4,4"/>
<text text-anchor="middle" x="806" y="-8.2" font-family="sans-serif" font-size="14.00">dependencies</text>
<g id="clust1" class="cluster">
<title>cluster_AppModule</title>
<polygon fill="none" stroke="black" stroke-dasharray="1,5" points="8,-32.8 8,-157.8 1604,-157.8 1604,-32.8 8,-32.8"/>
</g>
<g id="clust3" class="cluster">
<title>cluster_AppModule_imports</title>
<polygon fill="none" stroke="black" points="210,-40.8 210,-92.8 1596,-92.8 1596,-40.8 210,-40.8"/>
</g>
<g id="clust6" class="cluster">
<title>cluster_AppModule_providers</title>
<polygon fill="none" stroke="black" points="16,-40.8 16,-92.8 202,-92.8 202,-40.8 16,-40.8"/>
</g>
<!-- AdminModule -->
<g id="node1" class="node">
<title>AdminModule</title>
<polygon fill="#8dd3c7" stroke="black" points="1588.44,-84.8 1585.44,-88.8 1564.44,-88.8 1561.44,-84.8 1489.56,-84.8 1489.56,-48.8 1588.44,-48.8 1588.44,-84.8"/>
<text text-anchor="middle" x="1539" y="-62.6" font-family="Times,serif" font-size="14.00">AdminModule</text>
</g>
<!-- AppModule -->
<g id="node13" class="node">
<title>AppModule</title>
<polygon fill="#8dd3c7" stroke="black" points="910.66,-149.8 907.66,-153.8 886.66,-153.8 883.66,-149.8 827.34,-149.8 827.34,-113.8 910.66,-113.8 910.66,-149.8"/>
<text text-anchor="middle" x="869" y="-127.6" font-family="Times,serif" font-size="14.00">AppModule</text>
</g>
<!-- AdminModule&#45;&gt;AppModule -->
<g id="edge1" class="edge">
<title>AdminModule&#45;&gt;AppModule</title>
<path fill="none" stroke="black" d="M1539,-84.89C1539,-107.93 1539,-144.8 1539,-144.8 1539,-144.8 920.91,-144.8 920.91,-144.8"/>
<polygon fill="black" stroke="black" points="920.91,-141.3 910.91,-144.8 920.91,-148.3 920.91,-141.3"/>
</g>
<!-- AuthModule -->
<g id="node2" class="node">
<title>AuthModule</title>
<polygon fill="#8dd3c7" stroke="black" points="1471.55,-84.8 1468.55,-88.8 1447.55,-88.8 1444.55,-84.8 1384.45,-84.8 1384.45,-48.8 1471.55,-48.8 1471.55,-84.8"/>
<text text-anchor="middle" x="1428" y="-62.6" font-family="Times,serif" font-size="14.00">AuthModule</text>
</g>
<!-- AuthModule&#45;&gt;AppModule -->
<g id="edge2" class="edge">
<title>AuthModule&#45;&gt;AppModule</title>
<path fill="none" stroke="black" d="M1428,-84.84C1428,-106.46 1428,-139.8 1428,-139.8 1428,-139.8 921.02,-139.8 921.02,-139.8"/>
<polygon fill="black" stroke="black" points="921.02,-136.3 911.02,-139.8 921.02,-143.3 921.02,-136.3"/>
</g>
<!-- CartModule -->
<g id="node3" class="node">
<title>CartModule</title>
<polygon fill="#8dd3c7" stroke="black" points="1365.66,-84.8 1362.66,-88.8 1341.66,-88.8 1338.66,-84.8 1282.34,-84.8 1282.34,-48.8 1365.66,-48.8 1365.66,-84.8"/>
<text text-anchor="middle" x="1324" y="-62.6" font-family="Times,serif" font-size="14.00">CartModule</text>
</g>
<!-- CartModule&#45;&gt;AppModule -->
<g id="edge3" class="edge">
<title>CartModule&#45;&gt;AppModule</title>
<path fill="none" stroke="black" d="M1324,-85.02C1324,-105.17 1324,-134.8 1324,-134.8 1324,-134.8 920.99,-134.8 920.99,-134.8"/>
<polygon fill="black" stroke="black" points="920.99,-131.3 910.99,-134.8 920.99,-138.3 920.99,-131.3"/>
</g>
<!-- CategoriesModule -->
<g id="node4" class="node">
<title>CategoriesModule</title>
<polygon fill="#8dd3c7" stroke="black" points="1263.92,-84.8 1260.92,-88.8 1239.92,-88.8 1236.92,-84.8 1144.08,-84.8 1144.08,-48.8 1263.92,-48.8 1263.92,-84.8"/>
<text text-anchor="middle" x="1204" y="-62.6" font-family="Times,serif" font-size="14.00">CategoriesModule</text>
</g>
<!-- CategoriesModule&#45;&gt;AppModule -->
<g id="edge4" class="edge">
<title>CategoriesModule&#45;&gt;AppModule</title>
<path fill="none" stroke="black" d="M1204,-85.02C1204,-103.63 1204,-129.8 1204,-129.8 1204,-129.8 920.75,-129.8 920.75,-129.8"/>
<polygon fill="black" stroke="black" points="920.75,-126.3 910.75,-129.8 920.75,-133.3 920.75,-126.3"/>
</g>
<!-- CoreModule -->
<g id="node5" class="node">
<title>CoreModule</title>
<polygon fill="#8dd3c7" stroke="black" points="1126.27,-84.8 1123.27,-88.8 1102.27,-88.8 1099.27,-84.8 1039.73,-84.8 1039.73,-48.8 1126.27,-48.8 1126.27,-84.8"/>
<text text-anchor="middle" x="1083" y="-62.6" font-family="Times,serif" font-size="14.00">CoreModule</text>
</g>
<!-- CoreModule&#45;&gt;AppModule -->
<g id="edge5" class="edge">
<title>CoreModule&#45;&gt;AppModule</title>
<path fill="none" stroke="black" d="M1083,-84.83C1083,-101.86 1083,-124.8 1083,-124.8 1083,-124.8 920.77,-124.8 920.77,-124.8"/>
<polygon fill="black" stroke="black" points="920.77,-121.3 910.77,-124.8 920.77,-128.3 920.77,-121.3"/>
</g>
<!-- MailModule -->
<g id="node6" class="node">
<title>MailModule</title>
<polygon fill="#8dd3c7" stroke="black" points="1021.99,-84.8 1018.99,-88.8 997.99,-88.8 994.99,-84.8 936.01,-84.8 936.01,-48.8 1021.99,-48.8 1021.99,-84.8"/>
<text text-anchor="middle" x="979" y="-62.6" font-family="Times,serif" font-size="14.00">MailModule</text>
</g>
<!-- MailModule&#45;&gt;AppModule -->
<g id="edge6" class="edge">
<title>MailModule&#45;&gt;AppModule</title>
<path fill="none" stroke="black" d="M979,-85.04C979,-100.37 979,-119.8 979,-119.8 979,-119.8 920.9,-119.8 920.9,-119.8"/>
<polygon fill="black" stroke="black" points="920.9,-116.3 910.9,-119.8 920.9,-123.3 920.9,-116.3"/>
</g>
<!-- OrdersModule -->
<g id="node7" class="node">
<title>OrdersModule</title>
<polygon fill="#8dd3c7" stroke="black" points="917.65,-84.8 914.65,-88.8 893.65,-88.8 890.65,-84.8 820.35,-84.8 820.35,-48.8 917.65,-48.8 917.65,-84.8"/>
<text text-anchor="middle" x="869" y="-62.6" font-family="Times,serif" font-size="14.00">OrdersModule</text>
</g>
<!-- OrdersModule&#45;&gt;AppModule -->
<g id="edge7" class="edge">
<title>OrdersModule&#45;&gt;AppModule</title>
<path fill="none" stroke="black" d="M869,-84.91C869,-84.91 869,-103.79 869,-103.79"/>
<polygon fill="black" stroke="black" points="865.5,-103.79 869,-113.79 872.5,-103.79 865.5,-103.79"/>
</g>
<!-- OwnerModule -->
<g id="node8" class="node">
<title>OwnerModule</title>
<polygon fill="#8dd3c7" stroke="black" points="801.65,-84.8 798.65,-88.8 777.65,-88.8 774.65,-84.8 704.35,-84.8 704.35,-48.8 801.65,-48.8 801.65,-84.8"/>
<text text-anchor="middle" x="753" y="-62.6" font-family="Times,serif" font-size="14.00">OwnerModule</text>
</g>
<!-- OwnerModule&#45;&gt;AppModule -->
<g id="edge8" class="edge">
<title>OwnerModule&#45;&gt;AppModule</title>
<path fill="none" stroke="black" d="M753,-85.04C753,-100.37 753,-119.8 753,-119.8 753,-119.8 817.12,-119.8 817.12,-119.8"/>
<polygon fill="black" stroke="black" points="817.12,-123.3 827.12,-119.8 817.12,-116.3 817.12,-123.3"/>
</g>
<!-- ProductModule -->
<g id="node9" class="node">
<title>ProductModule</title>
<polygon fill="#8dd3c7" stroke="black" points="686.6,-84.8 683.6,-88.8 662.6,-88.8 659.6,-84.8 583.4,-84.8 583.4,-48.8 686.6,-48.8 686.6,-84.8"/>
<text text-anchor="middle" x="635" y="-62.6" font-family="Times,serif" font-size="14.00">ProductModule</text>
</g>
<!-- ProductModule&#45;&gt;AppModule -->
<g id="edge9" class="edge">
<title>ProductModule&#45;&gt;AppModule</title>
<path fill="none" stroke="black" d="M635,-84.83C635,-101.86 635,-124.8 635,-124.8 635,-124.8 817.17,-124.8 817.17,-124.8"/>
<polygon fill="black" stroke="black" points="817.17,-128.3 827.17,-124.8 817.17,-121.3 817.17,-128.3"/>
</g>
<!-- ReviewsModule -->
<g id="node10" class="node">
<title>ReviewsModule</title>
<polygon fill="#8dd3c7" stroke="black" points="565.77,-84.8 562.77,-88.8 541.77,-88.8 538.77,-84.8 458.23,-84.8 458.23,-48.8 565.77,-48.8 565.77,-84.8"/>
<text text-anchor="middle" x="512" y="-62.6" font-family="Times,serif" font-size="14.00">ReviewsModule</text>
</g>
<!-- ReviewsModule&#45;&gt;AppModule -->
<g id="edge10" class="edge">
<title>ReviewsModule&#45;&gt;AppModule</title>
<path fill="none" stroke="black" d="M512,-85.02C512,-103.63 512,-129.8 512,-129.8 512,-129.8 817,-129.8 817,-129.8"/>
<polygon fill="black" stroke="black" points="817,-133.3 827,-129.8 817,-126.3 817,-133.3"/>
</g>
<!-- TelegramModule -->
<g id="node11" class="node">
<title>TelegramModule</title>
<polygon fill="#8dd3c7" stroke="black" points="440.69,-84.8 437.69,-88.8 416.69,-88.8 413.69,-84.8 327.31,-84.8 327.31,-48.8 440.69,-48.8 440.69,-84.8"/>
<text text-anchor="middle" x="384" y="-62.6" font-family="Times,serif" font-size="14.00">TelegramModule</text>
</g>
<!-- TelegramModule&#45;&gt;AppModule -->
<g id="edge11" class="edge">
<title>TelegramModule&#45;&gt;AppModule</title>
<path fill="none" stroke="black" d="M384,-85.02C384,-105.17 384,-134.8 384,-134.8 384,-134.8 817.23,-134.8 817.23,-134.8"/>
<polygon fill="black" stroke="black" points="817.23,-138.3 827.23,-134.8 817.23,-131.3 817.23,-138.3"/>
</g>
<!-- UsersModule -->
<g id="node12" class="node">
<title>UsersModule</title>
<polygon fill="#8dd3c7" stroke="black" points="309.94,-84.8 306.94,-88.8 285.94,-88.8 282.94,-84.8 218.06,-84.8 218.06,-48.8 309.94,-48.8 309.94,-84.8"/>
<text text-anchor="middle" x="264" y="-62.6" font-family="Times,serif" font-size="14.00">UsersModule</text>
</g>
<!-- UsersModule&#45;&gt;AppModule -->
<g id="edge12" class="edge">
<title>UsersModule&#45;&gt;AppModule</title>
<path fill="none" stroke="black" d="M264,-84.84C264,-106.46 264,-139.8 264,-139.8 264,-139.8 816.94,-139.8 816.94,-139.8"/>
<polygon fill="black" stroke="black" points="816.94,-143.3 826.94,-139.8 816.94,-136.3 816.94,-143.3"/>
</g>
<!-- AppClusterService -->
<g id="node14" class="node">
<title>AppClusterService</title>
<ellipse fill="#fdb462" stroke="black" cx="109" cy="-66.8" rx="84.54" ry="18"/>
<text text-anchor="middle" x="109" y="-62.6" font-family="Times,serif" font-size="14.00">AppClusterService</text>
</g>
<!-- AppClusterService&#45;&gt;AppModule -->
<g id="edge13" class="edge">
<title>AppClusterService&#45;&gt;AppModule</title>
<path fill="none" stroke="black" d="M109,-84.89C109,-107.93 109,-144.8 109,-144.8 109,-144.8 817.33,-144.8 817.33,-144.8"/>
<polygon fill="black" stroke="black" points="817.33,-148.3 827.33,-144.8 817.33,-141.3 817.33,-148.3"/>
</g>
</g>
</svg>
