<svg width="130" height="22" viewBox="0 0 130 22" fill="none" xmlns="http://www.w3.org/2000/svg">
<path d="M4.76 17H0.44V0.199999H4.76V6.8H6.92L10.664 0.199999H15.224L10.52 8.48L15.2 17H10.64L6.92 10.16H4.76V17ZM21.4588 13.88C22.3068 13.88 23.2668 13.72 24.3388 13.4V11.96H20.8588C20.6188 11.96 20.4188 12.04 20.2588 12.2C20.0988 12.36 20.0188 12.56 20.0188 12.8V13.04C20.0188 13.28 20.0988 13.48 20.2588 13.64C20.4188 13.8 20.6188 13.88 20.8588 13.88H21.4588ZM17.0188 4.52C19.9468 4.2 22.5868 4.04 24.9388 4.04C26.0268 4.04 26.8988 4.368 27.5547 5.024C28.2108 5.68 28.5388 6.552 28.5388 7.64V17H24.8188L24.5788 15.8C23.8268 16.296 23.0508 16.664 22.2508 16.904C21.4668 17.128 20.8028 17.24 20.2588 17.24H19.4188C18.3308 17.24 17.4588 16.912 16.8027 16.256C16.1468 15.6 15.8188 14.728 15.8188 13.64V12.56C15.8188 11.472 16.1468 10.6 16.8027 9.944C17.4588 9.288 18.3308 8.96 19.4188 8.96H24.3388V8C24.3388 7.76 24.2588 7.56 24.0988 7.4C23.9388 7.24 23.7388 7.16 23.4988 7.16C22.4588 7.16 21.3068 7.208 20.0428 7.304C18.7948 7.4 17.7868 7.472 17.0188 7.52V4.52ZM41.8522 7.52L35.2522 13.76H41.8522V17H29.9722V13.76L36.5722 7.52H29.9722V4.28H41.8522V7.52ZM48.4559 7.04C47.8159 7.04 47.4959 7.36 47.4959 8V9.32H51.5759V8C51.5759 7.36 51.2559 7.04 50.6159 7.04H48.4559ZM55.2959 16.76C52.2079 17.08 49.4079 17.24 46.8959 17.24C45.8079 17.24 44.9359 16.912 44.2799 16.256C43.6239 15.6 43.2959 14.728 43.2959 13.64V7.88C43.2959 6.68 43.6319 5.744 44.3039 5.072C44.9919 4.384 45.9359 4.04 47.1359 4.04H51.9359C53.1359 4.04 54.0719 4.384 54.7439 5.072C55.4319 5.744 55.7759 6.68 55.7759 7.88V12.32H47.4959V13.28C47.4959 13.52 47.5759 13.72 47.7359 13.88C47.8959 14.04 48.0959 14.12 48.3359 14.12C49.9199 14.12 52.2399 14 55.2959 13.76V16.76ZM64.6419 13.64C67.8899 13.88 70.4499 14 72.3219 14C72.5619 14 72.7619 13.92 72.9219 13.76C73.0819 13.6 73.1619 13.4 73.1619 13.16V12.32H68.0019C66.9139 12.32 66.0419 11.992 65.3859 11.336C64.7299 10.68 64.4019 9.808 64.4019 8.72V7.88C64.4019 6.792 64.7299 5.92 65.3859 5.264C66.0419 4.608 66.9139 4.28 68.0019 4.28H76.1619V7.4H69.4419C69.2019 7.4 69.0019 7.48 68.8419 7.64C68.6819 7.8 68.6019 8 68.6019 8.24C68.6019 8.48 68.6819 8.68 68.8419 8.84C69.0019 9 69.2019 9.08 69.4419 9.08H73.7619C74.8499 9.08 75.7219 9.408 76.3779 10.064C77.0339 10.72 77.3619 11.592 77.3619 12.68V13.64C77.3619 14.728 77.0339 15.6 76.3779 16.256C75.7219 16.912 74.8499 17.24 73.7619 17.24C70.9299 17.24 67.8899 17.08 64.6419 16.76V13.64ZM86.1238 7.52C85.2758 7.52 84.3158 7.68 83.2438 8V13.76H86.8438C87.4838 13.76 87.8038 13.44 87.8038 12.8V8.36C87.8038 8.12 87.7238 7.92 87.5638 7.76C87.4038 7.6 87.2038 7.52 86.9638 7.52H86.1238ZM83.2438 17V21.08H79.0438V4.28H82.7638L83.0038 5.48C83.7558 4.984 84.5238 4.624 85.3078 4.4C86.1078 4.16 86.7798 4.04 87.3238 4.04H88.4038C89.4918 4.04 90.3638 4.368 91.0198 5.024C91.6758 5.68 92.0038 6.552 92.0038 7.64V13.16C92.0038 14.36 91.6598 15.304 90.9718 15.992C90.2998 16.664 89.3637 17 88.1638 17H83.2438ZM107.121 13.4C107.121 14.6 106.777 15.544 106.089 16.232C105.417 16.904 104.481 17.24 103.281 17.24H97.7609C96.5609 17.24 95.6169 16.904 94.9289 16.232C94.2569 15.544 93.9209 14.6 93.9209 13.4V7.88C93.9209 6.68 94.2569 5.744 94.9289 5.072C95.6169 4.384 96.5609 4.04 97.7609 4.04H103.281C104.481 4.04 105.417 4.384 106.089 5.072C106.777 5.744 107.121 6.68 107.121 7.88V13.4ZM102.921 8.24C102.921 7.6 102.601 7.28 101.961 7.28H99.0809C98.4409 7.28 98.1209 7.6 98.1209 8.24V13.04C98.1209 13.68 98.4409 14 99.0809 14H101.961C102.601 14 102.921 13.68 102.921 13.04V8.24ZM116.598 7.76C115.59 7.76 114.55 8 113.478 8.48V17H109.278V4.28H112.998L113.238 5.84C114.614 4.64 116.054 4.04 117.558 4.04H118.638V7.76H116.598ZM129.197 17C127.645 17.16 126.125 17.24 124.637 17.24C123.549 17.24 122.677 16.912 122.021 16.256C121.365 15.6 121.037 14.728 121.037 13.64V7.52H119.597V4.28H121.037L121.517 1.4H125.237V4.28H128.237V7.52H125.237V13.04C125.237 13.28 125.317 13.48 125.477 13.64C125.637 13.8 125.837 13.88 126.077 13.88H129.197V17Z" fill="#0B0B0B"/>
</svg>
