<?xml version="1.0" encoding="UTF-8" standalone="no"?>
<!DOCTYPE svg PUBLIC "-//W3C//DTD SVG 1.1//EN"
 "http://www.w3.org/Graphics/SVG/1.1/DTD/svg11.dtd">
<!-- Generated by graphviz version 5.0.0 (20220707.1540)
 -->
<!-- Title: dependencies Pages: 1 -->
<svg width="671pt" height="174pt"
 viewBox="0.00 0.00 671.00 173.80" xmlns="http://www.w3.org/2000/svg" xmlns:xlink="http://www.w3.org/1999/xlink">
<g id="graph0" class="graph" transform="scale(1 1) rotate(0) translate(4 169.8)">
<title>dependencies</title>
<polygon fill="white" stroke="transparent" points="-4,4 -4,-169.8 667,-169.8 667,4 -4,4"/>
<text text-anchor="middle" x="331.5" y="-8.2" font-family="sans-serif" font-size="14.00">dependencies</text>
<g id="clust1" class="cluster">
<title>cluster_ProductModule</title>
<polygon fill="none" stroke="black" stroke-dasharray="1,5" points="8,-32.8 8,-157.8 655,-157.8 655,-32.8 8,-32.8"/>
</g>
<g id="clust6" class="cluster">
<title>cluster_ProductModule_providers</title>
<polygon fill="none" stroke="black" points="16,-40.8 16,-92.8 647,-92.8 647,-40.8 16,-40.8"/>
</g>
<!-- CategoriesService -->
<g id="node1" class="node">
<title>CategoriesService</title>
<ellipse fill="#fdb462" stroke="black" cx="558" cy="-66.8" rx="81.08" ry="18"/>
<text text-anchor="middle" x="558" y="-62.6" font-family="Times,serif" font-size="14.00">CategoriesService</text>
</g>
<!-- ProductModule -->
<g id="node5" class="node">
<title>ProductModule</title>
<polygon fill="#8dd3c7" stroke="black" points="365.6,-149.8 362.6,-153.8 341.6,-153.8 338.6,-149.8 262.4,-149.8 262.4,-113.8 365.6,-113.8 365.6,-149.8"/>
<text text-anchor="middle" x="314" y="-127.6" font-family="Times,serif" font-size="14.00">ProductModule</text>
</g>
<!-- CategoriesService&#45;&gt;ProductModule -->
<g id="edge1" class="edge">
<title>CategoriesService&#45;&gt;ProductModule</title>
<path fill="none" stroke="black" d="M558,-84.91C558,-104.14 558,-131.8 558,-131.8 558,-131.8 375.75,-131.8 375.75,-131.8"/>
<polygon fill="black" stroke="black" points="375.75,-128.3 365.75,-131.8 375.75,-135.3 375.75,-128.3"/>
</g>
<!-- ColoursService -->
<g id="node2" class="node">
<title>ColoursService</title>
<ellipse fill="#fdb462" stroke="black" cx="388" cy="-66.8" rx="70.65" ry="18"/>
<text text-anchor="middle" x="388" y="-62.6" font-family="Times,serif" font-size="14.00">ColoursService</text>
</g>
<!-- ColoursService&#45;&gt;ProductModule -->
<g id="edge2" class="edge">
<title>ColoursService&#45;&gt;ProductModule</title>
<path fill="none" stroke="black" d="M341.49,-80.58C341.49,-80.58 341.49,-103.35 341.49,-103.35"/>
<polygon fill="black" stroke="black" points="337.99,-103.35 341.49,-113.35 344.99,-103.35 337.99,-103.35"/>
</g>
<!-- FilesService -->
<g id="node3" class="node">
<title>FilesService</title>
<ellipse fill="#fdb462" stroke="black" cx="241" cy="-66.8" rx="58.55" ry="18"/>
<text text-anchor="middle" x="241" y="-62.6" font-family="Times,serif" font-size="14.00">FilesService</text>
</g>
<!-- FilesService&#45;&gt;ProductModule -->
<g id="edge3" class="edge">
<title>FilesService&#45;&gt;ProductModule</title>
<path fill="none" stroke="black" d="M281.11,-80.27C281.11,-80.27 281.11,-103.66 281.11,-103.66"/>
<polygon fill="black" stroke="black" points="277.61,-103.66 281.11,-113.66 284.61,-103.66 277.61,-103.66"/>
</g>
<!-- ProductService -->
<g id="node4" class="node">
<title>ProductService</title>
<ellipse fill="#fdb462" stroke="black" cx="94" cy="-66.8" rx="70.07" ry="18"/>
<text text-anchor="middle" x="94" y="-62.6" font-family="Times,serif" font-size="14.00">ProductService</text>
</g>
<!-- ProductService&#45;&gt;ProductModule -->
<g id="edge4" class="edge">
<title>ProductService&#45;&gt;ProductModule</title>
<path fill="none" stroke="black" d="M94,-84.91C94,-104.14 94,-131.8 94,-131.8 94,-131.8 252.42,-131.8 252.42,-131.8"/>
<polygon fill="black" stroke="black" points="252.42,-135.3 262.42,-131.8 252.42,-128.3 252.42,-135.3"/>
</g>
</g>
</svg>
