<?xml version="1.0" encoding="UTF-8" standalone="no"?>
<!DOCTYPE svg PUBLIC "-//W3C//DTD SVG 1.1//EN"
 "http://www.w3.org/Graphics/SVG/1.1/DTD/svg11.dtd">
<!-- Generated by graphviz version 5.0.0 (20220707.1540)
 -->
<!-- Title: dependencies Pages: 1 -->
<svg width="512pt" height="174pt"
 viewBox="0.00 0.00 512.00 173.80" xmlns="http://www.w3.org/2000/svg" xmlns:xlink="http://www.w3.org/1999/xlink">
<g id="graph0" class="graph" transform="scale(1 1) rotate(0) translate(4 169.8)">
<title>dependencies</title>
<polygon fill="white" stroke="transparent" points="-4,4 -4,-169.8 508,-169.8 508,4 -4,4"/>
<text text-anchor="middle" x="252" y="-8.2" font-family="sans-serif" font-size="14.00">dependencies</text>
<g id="clust1" class="cluster">
<title>cluster_ProductModule</title>
<polygon fill="none" stroke="black" stroke-dasharray="1,5" points="8,-32.8 8,-157.8 496,-157.8 496,-32.8 8,-32.8"/>
</g>
<g id="clust6" class="cluster">
<title>cluster_ProductModule_providers</title>
<polygon fill="none" stroke="black" points="16,-40.8 16,-92.8 488,-92.8 488,-40.8 16,-40.8"/>
</g>
<!-- CategoriesService -->
<g id="node1" class="node">
<title>CategoriesService</title>
<ellipse fill="#fdb462" stroke="black" cx="399" cy="-66.8" rx="81.08" ry="18"/>
<text text-anchor="middle" x="399" y="-62.6" font-family="Times,serif" font-size="14.00">CategoriesService</text>
</g>
<!-- ProductModule -->
<g id="node4" class="node">
<title>ProductModule</title>
<polygon fill="#8dd3c7" stroke="black" points="292.6,-149.8 289.6,-153.8 268.6,-153.8 265.6,-149.8 189.4,-149.8 189.4,-113.8 292.6,-113.8 292.6,-149.8"/>
<text text-anchor="middle" x="241" y="-127.6" font-family="Times,serif" font-size="14.00">ProductModule</text>
</g>
<!-- CategoriesService&#45;&gt;ProductModule -->
<g id="edge1" class="edge">
<title>CategoriesService&#45;&gt;ProductModule</title>
<path fill="none" stroke="black" d="M399,-84.91C399,-104.14 399,-131.8 399,-131.8 399,-131.8 302.74,-131.8 302.74,-131.8"/>
<polygon fill="black" stroke="black" points="302.74,-128.3 292.74,-131.8 302.74,-135.3 302.74,-128.3"/>
</g>
<!-- FilesService -->
<g id="node2" class="node">
<title>FilesService</title>
<ellipse fill="#fdb462" stroke="black" cx="241" cy="-66.8" rx="58.55" ry="18"/>
<text text-anchor="middle" x="241" y="-62.6" font-family="Times,serif" font-size="14.00">FilesService</text>
</g>
<!-- FilesService&#45;&gt;ProductModule -->
<g id="edge2" class="edge">
<title>FilesService&#45;&gt;ProductModule</title>
<path fill="none" stroke="black" d="M241,-84.91C241,-84.91 241,-103.79 241,-103.79"/>
<polygon fill="black" stroke="black" points="237.5,-103.79 241,-113.79 244.5,-103.79 237.5,-103.79"/>
</g>
<!-- ProductService -->
<g id="node3" class="node">
<title>ProductService</title>
<ellipse fill="#fdb462" stroke="black" cx="94" cy="-66.8" rx="70.07" ry="18"/>
<text text-anchor="middle" x="94" y="-62.6" font-family="Times,serif" font-size="14.00">ProductService</text>
</g>
<!-- ProductService&#45;&gt;ProductModule -->
<g id="edge3" class="edge">
<title>ProductService&#45;&gt;ProductModule</title>
<path fill="none" stroke="black" d="M94,-84.91C94,-104.14 94,-131.8 94,-131.8 94,-131.8 179.17,-131.8 179.17,-131.8"/>
<polygon fill="black" stroke="black" points="179.17,-135.3 189.17,-131.8 179.17,-128.3 179.17,-135.3"/>
</g>
</g>
</svg>
