<?xml version="1.0" encoding="UTF-8" standalone="no"?>
<!DOCTYPE svg PUBLIC "-//W3C//DTD SVG 1.1//EN"
 "http://www.w3.org/Graphics/SVG/1.1/DTD/svg11.dtd">
<!-- Generated by graphviz version 5.0.0 (20220707.1540)
 -->
<!-- Title: dependencies Pages: 1 -->
<svg width="540pt" height="174pt"
 viewBox="0.00 0.00 540.00 173.80" xmlns="http://www.w3.org/2000/svg" xmlns:xlink="http://www.w3.org/1999/xlink">
<g id="graph0" class="graph" transform="scale(1 1) rotate(0) translate(4 169.8)">
<title>dependencies</title>
<polygon fill="white" stroke="transparent" points="-4,4 -4,-169.8 536,-169.8 536,4 -4,4"/>
<text text-anchor="middle" x="266" y="-8.2" font-family="sans-serif" font-size="14.00">dependencies</text>
<g id="clust1" class="cluster">
<title>cluster_ReviewsModule</title>
<polygon fill="none" stroke="black" stroke-dasharray="1,5" points="8,-32.8 8,-157.8 524,-157.8 524,-32.8 8,-32.8"/>
</g>
<g id="clust6" class="cluster">
<title>cluster_ReviewsModule_providers</title>
<polygon fill="none" stroke="black" points="16,-40.8 16,-92.8 516,-92.8 516,-40.8 16,-40.8"/>
</g>
<!-- CategoriesService -->
<g id="node1" class="node">
<title>CategoriesService</title>
<ellipse fill="#fdb462" stroke="black" cx="427" cy="-66.8" rx="81.08" ry="18"/>
<text text-anchor="middle" x="427" y="-62.6" font-family="Times,serif" font-size="14.00">CategoriesService</text>
</g>
<!-- ReviewsModule -->
<g id="node4" class="node">
<title>ReviewsModule</title>
<polygon fill="#8dd3c7" stroke="black" points="311.77,-149.8 308.77,-153.8 287.77,-153.8 284.77,-149.8 204.23,-149.8 204.23,-113.8 311.77,-113.8 311.77,-149.8"/>
<text text-anchor="middle" x="258" y="-127.6" font-family="Times,serif" font-size="14.00">ReviewsModule</text>
</g>
<!-- CategoriesService&#45;&gt;ReviewsModule -->
<g id="edge1" class="edge">
<title>CategoriesService&#45;&gt;ReviewsModule</title>
<path fill="none" stroke="black" d="M427,-84.91C427,-104.14 427,-131.8 427,-131.8 427,-131.8 321.94,-131.8 321.94,-131.8"/>
<polygon fill="black" stroke="black" points="321.94,-128.3 311.94,-131.8 321.94,-135.3 321.94,-128.3"/>
</g>
<!-- ProductService -->
<g id="node2" class="node">
<title>ProductService</title>
<ellipse fill="#fdb462" stroke="black" cx="258" cy="-66.8" rx="70.07" ry="18"/>
<text text-anchor="middle" x="258" y="-62.6" font-family="Times,serif" font-size="14.00">ProductService</text>
</g>
<!-- ProductService&#45;&gt;ReviewsModule -->
<g id="edge2" class="edge">
<title>ProductService&#45;&gt;ReviewsModule</title>
<path fill="none" stroke="black" d="M258,-84.91C258,-84.91 258,-103.79 258,-103.79"/>
<polygon fill="black" stroke="black" points="254.5,-103.79 258,-113.79 261.5,-103.79 254.5,-103.79"/>
</g>
<!-- ReviewsService -->
<g id="node3" class="node">
<title>ReviewsService</title>
<ellipse fill="#fdb462" stroke="black" cx="97" cy="-66.8" rx="73" ry="18"/>
<text text-anchor="middle" x="97" y="-62.6" font-family="Times,serif" font-size="14.00">ReviewsService</text>
</g>
<!-- ReviewsService&#45;&gt;ReviewsModule -->
<g id="edge3" class="edge">
<title>ReviewsService&#45;&gt;ReviewsModule</title>
<path fill="none" stroke="black" d="M97,-84.91C97,-104.14 97,-131.8 97,-131.8 97,-131.8 193.94,-131.8 193.94,-131.8"/>
<polygon fill="black" stroke="black" points="193.94,-135.3 203.94,-131.8 193.94,-128.3 193.94,-135.3"/>
</g>
</g>
</svg>
