<?xml version="1.0" encoding="UTF-8" standalone="no"?>
<!DOCTYPE svg PUBLIC "-//W3C//DTD SVG 1.1//EN"
 "http://www.w3.org/Graphics/SVG/1.1/DTD/svg11.dtd">
<!-- Generated by graphviz version 5.0.0 (20220707.1540)
 -->
<!-- Title: dependencies Pages: 1 -->
<svg width="4740pt" height="269pt"
 viewBox="0.00 0.00 4740.00 268.80" xmlns="http://www.w3.org/2000/svg" xmlns:xlink="http://www.w3.org/1999/xlink">
<g id="graph0" class="graph" transform="scale(1 1) rotate(0) translate(4 264.8)">
<title>dependencies</title>
<polygon fill="white" stroke="transparent" points="-4,4 -4,-264.8 4736,-264.8 4736,4 -4,4"/>
<text text-anchor="middle" x="2366" y="-8.2" font-family="sans-serif" font-size="14.00">dependencies</text>
<g id="clust1" class="cluster">
<title>cluster_AdminModule</title>
<polygon fill="none" stroke="black" stroke-dasharray="1,5" points="3749,-32.8 3749,-252.8 4724,-252.8 4724,-32.8 3749,-32.8"/>
</g>
<g id="clust4" class="cluster">
<title>cluster_AdminModule_exports</title>
<polygon fill="none" stroke="black" points="3865,-192.8 3865,-244.8 4163,-244.8 4163,-192.8 3865,-192.8"/>
</g>
<g id="clust6" class="cluster">
<title>cluster_AdminModule_providers</title>
<polygon fill="none" stroke="black" points="3757,-40.8 3757,-92.8 4716,-92.8 4716,-40.8 3757,-40.8"/>
</g>
<g id="clust7" class="cluster">
<title>cluster_AppModule</title>
<polygon fill="none" stroke="black" stroke-dasharray="1,5" points="906,-32.8 906,-244.8 2204,-244.8 2204,-32.8 906,-32.8"/>
</g>
<g id="clust9" class="cluster">
<title>cluster_AppModule_imports</title>
<polygon fill="none" stroke="black" points="926,-116.8 926,-168.8 2196,-168.8 2196,-116.8 926,-116.8"/>
</g>
<g id="clust12" class="cluster">
<title>cluster_AppModule_providers</title>
<polygon fill="none" stroke="black" points="1149,-40.8 1149,-92.8 1335,-92.8 1335,-40.8 1149,-40.8"/>
</g>
<g id="clust13" class="cluster">
<title>cluster_AuthModule</title>
<polygon fill="none" stroke="black" stroke-dasharray="1,5" points="2370,-32.8 2370,-100.8 3189,-100.8 3189,-32.8 2370,-32.8"/>
</g>
<g id="clust16" class="cluster">
<title>cluster_AuthModule_exports</title>
<polygon fill="none" stroke="black" points="2895,-40.8 2895,-92.8 3181,-92.8 3181,-40.8 2895,-40.8"/>
</g>
<g id="clust18" class="cluster">
<title>cluster_AuthModule_providers</title>
<polygon fill="none" stroke="black" points="2378,-40.8 2378,-92.8 2887,-92.8 2887,-40.8 2378,-40.8"/>
</g>
<g id="clust19" class="cluster">
<title>cluster_CartModule</title>
<polygon fill="none" stroke="black" stroke-dasharray="1,5" points="2212,-32.8 2212,-100.8 2362,-100.8 2362,-32.8 2212,-32.8"/>
</g>
<g id="clust24" class="cluster">
<title>cluster_CartModule_providers</title>
<polygon fill="none" stroke="black" points="2220,-40.8 2220,-92.8 2354,-92.8 2354,-40.8 2220,-40.8"/>
</g>
<g id="clust25" class="cluster">
<title>cluster_CategoriesModule</title>
<polygon fill="none" stroke="black" stroke-dasharray="1,5" points="8,-32.8 8,-100.8 202,-100.8 202,-32.8 8,-32.8"/>
</g>
<g id="clust30" class="cluster">
<title>cluster_CategoriesModule_providers</title>
<polygon fill="none" stroke="black" points="16,-40.8 16,-92.8 194,-92.8 194,-40.8 16,-40.8"/>
</g>
<g id="clust31" class="cluster">
<title>cluster_CoreModule</title>
<polygon fill="none" stroke="black" stroke-dasharray="1,5" points="210,-32.8 210,-100.8 360,-100.8 360,-32.8 210,-32.8"/>
</g>
<g id="clust36" class="cluster">
<title>cluster_CoreModule_providers</title>
<polygon fill="none" stroke="black" points="218,-40.8 218,-92.8 352,-92.8 352,-40.8 218,-40.8"/>
</g>
<g id="clust37" class="cluster">
<title>cluster_MailModule</title>
<polygon fill="none" stroke="black" stroke-dasharray="1,5" points="440,-184.8 440,-252.8 560,-252.8 560,-184.8 440,-184.8"/>
</g>
<g id="clust40" class="cluster">
<title>cluster_MailModule_exports</title>
<polygon fill="none" stroke="black" points="448,-192.8 448,-244.8 552,-244.8 552,-192.8 448,-192.8"/>
</g>
<g id="clust43" class="cluster">
<title>cluster_OrdersModule</title>
<polygon fill="none" stroke="black" stroke-dasharray="1,5" points="368,-32.8 368,-100.8 532,-100.8 532,-32.8 368,-32.8"/>
</g>
<g id="clust48" class="cluster">
<title>cluster_OrdersModule_providers</title>
<polygon fill="none" stroke="black" points="376,-40.8 376,-92.8 524,-92.8 524,-40.8 376,-40.8"/>
</g>
<g id="clust49" class="cluster">
<title>cluster_OwnerModule</title>
<polygon fill="none" stroke="black" stroke-dasharray="1,5" points="3256,-108.8 3256,-176.8 3504,-176.8 3504,-108.8 3256,-108.8"/>
</g>
<g id="clust51" class="cluster">
<title>cluster_OwnerModule_imports</title>
<polygon fill="none" stroke="black" points="3388,-116.8 3388,-168.8 3496,-168.8 3496,-116.8 3388,-116.8"/>
</g>
<g id="clust52" class="cluster">
<title>cluster_OwnerModule_exports</title>
<polygon fill="none" stroke="black" points="3264,-116.8 3264,-168.8 3380,-168.8 3380,-116.8 3264,-116.8"/>
</g>
<g id="clust55" class="cluster">
<title>cluster_ProductModule</title>
<polygon fill="none" stroke="black" stroke-dasharray="1,5" points="540,-32.8 540,-100.8 712,-100.8 712,-32.8 540,-32.8"/>
</g>
<g id="clust60" class="cluster">
<title>cluster_ProductModule_providers</title>
<polygon fill="none" stroke="black" points="548,-40.8 548,-92.8 704,-92.8 704,-40.8 548,-40.8"/>
</g>
<g id="clust61" class="cluster">
<title>cluster_ReviewsModule</title>
<polygon fill="none" stroke="black" stroke-dasharray="1,5" points="720,-32.8 720,-100.8 898,-100.8 898,-32.8 720,-32.8"/>
</g>
<g id="clust66" class="cluster">
<title>cluster_ReviewsModule_providers</title>
<polygon fill="none" stroke="black" points="728,-40.8 728,-92.8 890,-92.8 890,-40.8 728,-40.8"/>
</g>
<g id="clust67" class="cluster">
<title>cluster_RolesModule</title>
<polygon fill="none" stroke="black" stroke-dasharray="1,5" points="3197,-32.8 3197,-100.8 3741,-100.8 3741,-32.8 3197,-32.8"/>
</g>
<g id="clust70" class="cluster">
<title>cluster_RolesModule_exports</title>
<polygon fill="none" stroke="black" points="3623,-40.8 3623,-92.8 3733,-92.8 3733,-40.8 3623,-40.8"/>
</g>
<g id="clust72" class="cluster">
<title>cluster_RolesModule_providers</title>
<polygon fill="none" stroke="black" points="3205,-40.8 3205,-92.8 3615,-92.8 3615,-40.8 3205,-40.8"/>
</g>
<g id="clust79" class="cluster">
<title>cluster_UsersModule</title>
<polygon fill="none" stroke="black" stroke-dasharray="1,5" points="568,-184.8 568,-252.8 898,-252.8 898,-184.8 568,-184.8"/>
</g>
<g id="clust82" class="cluster">
<title>cluster_UsersModule_exports</title>
<polygon fill="none" stroke="black" points="576,-192.8 576,-244.8 890,-244.8 890,-192.8 576,-192.8"/>
</g>
<!-- AdminJwtRefreshService  -->
<g id="node1" class="node">
<title>AdminJwtRefreshService </title>
<polygon fill="#fb8072" stroke="black" points="4036.86,-236.8 3873.14,-236.8 3873.14,-200.8 4036.86,-200.8 4036.86,-236.8"/>
<text text-anchor="middle" x="3955" y="-214.6" font-family="Times,serif" font-size="14.00">AdminJwtRefreshService </text>
</g>
<!-- AdminService  -->
<g id="node2" class="node">
<title>AdminService </title>
<polygon fill="#fb8072" stroke="black" points="4155.37,-236.8 4054.63,-236.8 4054.63,-200.8 4155.37,-200.8 4155.37,-236.8"/>
<text text-anchor="middle" x="4105" y="-214.6" font-family="Times,serif" font-size="14.00">AdminService </text>
</g>
<!-- AdminModule -->
<g id="node3" class="node">
<title>AdminModule</title>
<polygon fill="#8dd3c7" stroke="black" points="4154.44,-160.8 4151.44,-164.8 4130.44,-164.8 4127.44,-160.8 4055.56,-160.8 4055.56,-124.8 4154.44,-124.8 4154.44,-160.8"/>
<text text-anchor="middle" x="4105" y="-138.6" font-family="Times,serif" font-size="14.00">AdminModule</text>
</g>
<!-- AdminModule&#45;&gt;AdminJwtRefreshService  -->
<g id="edge1" class="edge">
<title>AdminModule&#45;&gt;AdminJwtRefreshService </title>
<path fill="none" stroke="black" stroke-dasharray="5,2" d="M4055.61,-156.8C4042.03,-156.8 4030.95,-156.8 4030.95,-156.8 4030.95,-156.8 4030.95,-190.53 4030.95,-190.53"/>
<polygon fill="black" stroke="black" points="4027.45,-190.53 4030.95,-200.53 4034.45,-190.53 4027.45,-190.53"/>
</g>
<!-- AdminModule&#45;&gt;AdminService  -->
<g id="edge2" class="edge">
<title>AdminModule&#45;&gt;AdminService </title>
<path fill="none" stroke="black" stroke-dasharray="5,2" d="M4105,-160.81C4105,-160.81 4105,-190.65 4105,-190.65"/>
<polygon fill="black" stroke="black" points="4101.5,-190.65 4105,-200.65 4108.5,-190.65 4101.5,-190.65"/>
</g>
<!-- AppModule -->
<g id="node21" class="node">
<title>AppModule</title>
<polygon fill="#8dd3c7" stroke="black" points="1621.66,-236.8 1618.66,-240.8 1597.66,-240.8 1594.66,-236.8 1538.34,-236.8 1538.34,-200.8 1621.66,-200.8 1621.66,-236.8"/>
<text text-anchor="middle" x="1580" y="-214.6" font-family="Times,serif" font-size="14.00">AppModule</text>
</g>
<!-- AdminModule&#45;&gt;AppModule -->
<g id="edge10" class="edge">
<title>AdminModule&#45;&gt;AppModule</title>
<path fill="none" stroke="black" d="M4055.59,-151.8C3983.49,-151.8 3857.92,-151.8 3857.92,-151.8 3857.92,-151.8 3857.92,-232.8 3857.92,-232.8 3857.92,-232.8 1631.98,-232.8 1631.98,-232.8"/>
<polygon fill="black" stroke="black" points="1631.98,-229.3 1621.98,-232.8 1631.97,-236.3 1631.98,-229.3"/>
</g>
<!-- AdminJwtRefreshService -->
<g id="node4" class="node">
<title>AdminJwtRefreshService</title>
<ellipse fill="#fdb462" stroke="black" cx="4295" cy="-66.8" rx="110.03" ry="18"/>
<text text-anchor="middle" x="4295" y="-62.6" font-family="Times,serif" font-size="14.00">AdminJwtRefreshService</text>
</g>
<!-- AdminJwtRefreshService&#45;&gt;AdminModule -->
<g id="edge3" class="edge">
<title>AdminJwtRefreshService&#45;&gt;AdminModule</title>
<path fill="none" stroke="black" d="M4331.76,-83.8C4331.76,-103.35 4331.76,-132.8 4331.76,-132.8 4331.76,-132.8 4164.48,-132.8 4164.48,-132.8"/>
<polygon fill="black" stroke="black" points="4164.48,-129.3 4154.48,-132.8 4164.48,-136.3 4164.48,-129.3"/>
</g>
<!-- AuthModule -->
<g id="node10" class="node">
<title>AuthModule</title>
<polygon fill="#8dd3c7" stroke="black" points="1967.55,-160.8 1964.55,-164.8 1943.55,-164.8 1940.55,-160.8 1880.45,-160.8 1880.45,-124.8 1967.55,-124.8 1967.55,-160.8"/>
<text text-anchor="middle" x="1924" y="-138.6" font-family="Times,serif" font-size="14.00">AuthModule</text>
</g>
<!-- AdminJwtRefreshService&#45;&gt;AuthModule -->
<g id="edge26" class="edge">
<title>AdminJwtRefreshService&#45;&gt;AuthModule</title>
<path fill="none" stroke="black" d="M4258.24,-83.88C4258.24,-95.51 4258.24,-108.8 4258.24,-108.8 4258.24,-108.8 1958.05,-108.8 1958.05,-108.8 1958.05,-108.8 1958.05,-114.61 1958.05,-114.61"/>
<polygon fill="black" stroke="black" points="1954.55,-114.61 1958.05,-124.61 1961.55,-114.61 1954.55,-114.61"/>
</g>
<!-- AdminService -->
<g id="node5" class="node">
<title>AdminService</title>
<ellipse fill="#fdb462" stroke="black" cx="4641" cy="-66.8" rx="66.64" ry="18"/>
<text text-anchor="middle" x="4641" y="-62.6" font-family="Times,serif" font-size="14.00">AdminService</text>
</g>
<!-- AdminService&#45;&gt;AdminModule -->
<g id="edge4" class="edge">
<title>AdminService&#45;&gt;AdminModule</title>
<path fill="none" stroke="black" d="M4641,-84.83C4641,-110.31 4641,-153.8 4641,-153.8 4641,-153.8 4164.46,-153.8 4164.46,-153.8"/>
<polygon fill="black" stroke="black" points="4164.46,-150.3 4154.46,-153.8 4164.46,-157.3 4164.46,-150.3"/>
</g>
<!-- AdminService&#45;&gt;AdminModule -->
<g id="edge5" class="edge">
<title>AdminService&#45;&gt;AdminModule</title>
<path fill="none" stroke="black" d="M4607.59,-82.61C4607.59,-105.92 4607.59,-146.8 4607.59,-146.8 4607.59,-146.8 4164.57,-146.8 4164.57,-146.8"/>
<polygon fill="black" stroke="black" points="4164.57,-143.3 4154.57,-146.8 4164.57,-150.3 4164.57,-143.3"/>
</g>
<!-- MailModule -->
<g id="node14" class="node">
<title>MailModule</title>
<polygon fill="#8dd3c7" stroke="black" points="2187.99,-160.8 2184.99,-164.8 2163.99,-164.8 2160.99,-160.8 2102.01,-160.8 2102.01,-124.8 2187.99,-124.8 2187.99,-160.8"/>
<text text-anchor="middle" x="2145" y="-138.6" font-family="Times,serif" font-size="14.00">MailModule</text>
</g>
<!-- AdminService&#45;&gt;MailModule -->
<g id="edge38" class="edge">
<title>AdminService&#45;&gt;MailModule</title>
<path fill="none" stroke="black" d="M4674.41,-82.58C4674.41,-110.99 4674.41,-167.8 4674.41,-167.8 4674.41,-167.8 2145,-167.8 2145,-167.8 2145,-167.8 2145,-167.12 2145,-167.12"/>
<polygon fill="black" stroke="black" points="2148.5,-170.97 2145,-160.97 2141.5,-170.97 2148.5,-170.97"/>
</g>
<!-- OwnerModule -->
<g id="node16" class="node">
<title>OwnerModule</title>
<polygon fill="#8dd3c7" stroke="black" points="2083.65,-160.8 2080.65,-164.8 2059.65,-164.8 2056.65,-160.8 1986.35,-160.8 1986.35,-124.8 2083.65,-124.8 2083.65,-160.8"/>
<text text-anchor="middle" x="2035" y="-138.6" font-family="Times,serif" font-size="14.00">OwnerModule</text>
</g>
<!-- AdminService&#45;&gt;OwnerModule -->
<g id="edge46" class="edge">
<title>AdminService&#45;&gt;OwnerModule</title>
<path fill="none" stroke="black" d="M4641,-48.74C4641,-37.36 4641,-24.8 4641,-24.8 4641,-24.8 1997.03,-24.8 1997.03,-24.8 1997.03,-24.8 1997.03,-114.62 1997.03,-114.62"/>
<polygon fill="black" stroke="black" points="1993.53,-114.62 1997.03,-124.62 2000.53,-114.62 1993.53,-114.62"/>
</g>
<!-- MailService -->
<g id="node6" class="node">
<title>MailService</title>
<ellipse fill="#fdb462" stroke="black" cx="3967" cy="-66.8" rx="58.46" ry="18"/>
<text text-anchor="middle" x="3967" y="-62.6" font-family="Times,serif" font-size="14.00">MailService</text>
</g>
<!-- MailService&#45;&gt;AdminModule -->
<g id="edge6" class="edge">
<title>MailService&#45;&gt;AdminModule</title>
<path fill="none" stroke="black" d="M4001.94,-81.45C4001.94,-103.54 4001.94,-142.8 4001.94,-142.8 4001.94,-142.8 4045.58,-142.8 4045.58,-142.8"/>
<polygon fill="black" stroke="black" points="4045.58,-146.3 4055.58,-142.8 4045.58,-139.3 4045.58,-146.3"/>
</g>
<!-- MailService&#45;&gt;AuthModule -->
<g id="edge29" class="edge">
<title>MailService&#45;&gt;AuthModule</title>
<path fill="none" stroke="black" d="M3932.06,-81.6C3932.06,-93.35 3932.06,-107.8 3932.06,-107.8 3932.06,-107.8 1948.32,-107.8 1948.32,-107.8 1948.32,-107.8 1948.32,-114.48 1948.32,-114.48"/>
<polygon fill="black" stroke="black" points="1944.82,-114.48 1948.32,-124.48 1951.82,-114.48 1944.82,-114.48"/>
</g>
<!-- MailService&#45;&gt;MailModule -->
<g id="edge39" class="edge">
<title>MailService&#45;&gt;MailModule</title>
<path fill="none" stroke="black" d="M3978.65,-84.57C3978.65,-98.94 3978.65,-116.8 3978.65,-116.8 3978.65,-116.8 2123.5,-116.8 2123.5,-116.8 2123.5,-116.8 2123.5,-117.59 2123.5,-117.59"/>
<polygon fill="black" stroke="black" points="2120,-114.74 2123.5,-124.74 2127,-114.74 2120,-114.74"/>
</g>
<!-- MailService&#45;&gt;OwnerModule -->
<g id="edge47" class="edge">
<title>MailService&#45;&gt;OwnerModule</title>
<path fill="none" stroke="black" d="M3955.35,-84.57C3955.35,-97.88 3955.35,-113.8 3955.35,-113.8 3955.35,-113.8 2051.27,-113.8 2051.27,-113.8 2051.27,-113.8 2051.27,-114.88 2051.27,-114.88"/>
<polygon fill="black" stroke="black" points="2047.77,-114.6 2051.27,-124.6 2054.77,-114.6 2047.77,-114.6"/>
</g>
<!-- OwnerService -->
<g id="node7" class="node">
<title>OwnerService</title>
<ellipse fill="#fdb462" stroke="black" cx="4490" cy="-66.8" rx="66.04" ry="18"/>
<text text-anchor="middle" x="4490" y="-62.6" font-family="Times,serif" font-size="14.00">OwnerService</text>
</g>
<!-- OwnerService&#45;&gt;AdminModule -->
<g id="edge7" class="edge">
<title>OwnerService&#45;&gt;AdminModule</title>
<path fill="none" stroke="black" d="M4512.09,-84.1C4512.09,-105.69 4512.09,-139.8 4512.09,-139.8 4512.09,-139.8 4164.51,-139.8 4164.51,-139.8"/>
<polygon fill="black" stroke="black" points="4164.51,-136.3 4154.51,-139.8 4164.51,-143.3 4164.51,-136.3"/>
</g>
<!-- OwnerService&#45;&gt;MailModule -->
<g id="edge40" class="edge">
<title>OwnerService&#45;&gt;MailModule</title>
<path fill="none" stroke="black" d="M4467.91,-83.83C4467.91,-98.99 4467.91,-118.8 4467.91,-118.8 4467.91,-118.8 2166.5,-118.8 2166.5,-118.8 2166.5,-118.8 2166.5,-119.38 2166.5,-119.38"/>
<polygon fill="black" stroke="black" points="2163,-114.61 2166.5,-124.61 2170,-114.61 2163,-114.61"/>
</g>
<!-- OwnerService&#45;&gt;OwnerModule -->
<g id="edge49" class="edge">
<title>OwnerService&#45;&gt;OwnerModule</title>
<path fill="none" stroke="black" d="M4490,-48.66C4490,-42.34 4490,-36.8 4490,-36.8 4490,-36.8 2007.88,-36.8 2007.88,-36.8 2007.88,-36.8 2007.88,-114.34 2007.88,-114.34"/>
<polygon fill="black" stroke="black" points="2004.38,-114.34 2007.88,-124.34 2011.38,-114.34 2004.38,-114.34"/>
</g>
<!-- TasksService -->
<g id="node8" class="node">
<title>TasksService</title>
<ellipse fill="#fdb462" stroke="black" cx="3828" cy="-66.8" rx="62.55" ry="18"/>
<text text-anchor="middle" x="3828" y="-62.6" font-family="Times,serif" font-size="14.00">TasksService</text>
</g>
<!-- TasksService&#45;&gt;AdminModule -->
<g id="edge8" class="edge">
<title>TasksService&#45;&gt;AdminModule</title>
<path fill="none" stroke="black" d="M3881.92,-76.09C3881.92,-97.37 3881.92,-147.8 3881.92,-147.8 3881.92,-147.8 4045.77,-147.8 4045.77,-147.8"/>
<polygon fill="black" stroke="black" points="4045.77,-151.3 4055.77,-147.8 4045.77,-144.3 4045.77,-151.3"/>
</g>
<!-- TasksService&#45;&gt;AuthModule -->
<g id="edge31" class="edge">
<title>TasksService&#45;&gt;AuthModule</title>
<path fill="none" stroke="black" d="M3811.7,-84.46C3811.7,-95.18 3811.7,-106.8 3811.7,-106.8 3811.7,-106.8 1938.59,-106.8 1938.59,-106.8 1938.59,-106.8 1938.59,-114.38 1938.59,-114.38"/>
<polygon fill="black" stroke="black" points="1935.09,-114.38 1938.59,-124.38 1942.09,-114.38 1935.09,-114.38"/>
</g>
<!-- CoreModule -->
<g id="node13" class="node">
<title>CoreModule</title>
<polygon fill="#8dd3c7" stroke="black" points="1520.27,-160.8 1517.27,-164.8 1496.27,-164.8 1493.27,-160.8 1433.73,-160.8 1433.73,-124.8 1520.27,-124.8 1520.27,-160.8"/>
<text text-anchor="middle" x="1477" y="-138.6" font-family="Times,serif" font-size="14.00">CoreModule</text>
</g>
<!-- TasksService&#45;&gt;CoreModule -->
<g id="edge36" class="edge">
<title>TasksService&#45;&gt;CoreModule</title>
<path fill="none" stroke="black" d="M3780.88,-78.67C3780.88,-82.97 3780.88,-86.8 3780.88,-86.8 3780.88,-86.8 1498.69,-86.8 1498.69,-86.8 1498.69,-86.8 1498.69,-114.77 1498.69,-114.77"/>
<polygon fill="black" stroke="black" points="1495.19,-114.77 1498.69,-124.77 1502.19,-114.77 1495.19,-114.77"/>
</g>
<!-- TasksService&#45;&gt;OwnerModule -->
<g id="edge50" class="edge">
<title>TasksService&#45;&gt;OwnerModule</title>
<path fill="none" stroke="black" d="M3827.1,-84.98C3827.1,-97.84 3827.1,-112.8 3827.1,-112.8 3827.1,-112.8 2040.42,-112.8 2040.42,-112.8 2040.42,-112.8 2040.42,-114.66 2040.42,-114.66"/>
<polygon fill="black" stroke="black" points="2036.93,-114.66 2040.42,-124.66 2043.93,-114.66 2036.93,-114.66"/>
</g>
<!-- UsersModule -->
<g id="node20" class="node">
<title>UsersModule</title>
<polygon fill="#8dd3c7" stroke="black" points="1731.94,-160.8 1728.94,-164.8 1707.94,-164.8 1704.94,-160.8 1640.06,-160.8 1640.06,-124.8 1731.94,-124.8 1731.94,-160.8"/>
<text text-anchor="middle" x="1686" y="-138.6" font-family="Times,serif" font-size="14.00">UsersModule</text>
</g>
<!-- TasksService&#45;&gt;UsersModule -->
<g id="edge67" class="edge">
<title>TasksService&#45;&gt;UsersModule</title>
<path fill="none" stroke="black" d="M3796.29,-82.52C3796.29,-88 3796.29,-92.8 3796.29,-92.8 3796.29,-92.8 1695.14,-92.8 1695.14,-92.8 1695.14,-92.8 1695.14,-114.75 1695.14,-114.75"/>
<polygon fill="black" stroke="black" points="1691.64,-114.75 1695.14,-124.75 1698.64,-114.75 1691.64,-114.75"/>
</g>
<!-- RolesModule -->
<g id="node33" class="node">
<title>RolesModule</title>
<polygon fill="#8dd3c7" stroke="black" points="3487.94,-160.8 3484.94,-164.8 3463.94,-164.8 3460.94,-160.8 3396.06,-160.8 3396.06,-124.8 3487.94,-124.8 3487.94,-160.8"/>
<text text-anchor="middle" x="3442" y="-138.6" font-family="Times,serif" font-size="14.00">RolesModule</text>
</g>
<!-- TasksService&#45;&gt;RolesModule -->
<g id="edge61" class="edge">
<title>TasksService&#45;&gt;RolesModule</title>
<path fill="none" stroke="black" d="M3842.51,-84.4C3842.51,-104.25 3842.51,-133.8 3842.51,-133.8 3842.51,-133.8 3497.94,-133.8 3497.94,-133.8"/>
<polygon fill="black" stroke="black" points="3497.94,-130.3 3487.94,-133.8 3497.94,-137.3 3497.94,-130.3"/>
</g>
<!-- UsersService -->
<g id="node9" class="node">
<title>UsersService</title>
<ellipse fill="#fdb462" stroke="black" cx="4105" cy="-66.8" rx="61.97" ry="18"/>
<text text-anchor="middle" x="4105" y="-62.6" font-family="Times,serif" font-size="14.00">UsersService</text>
</g>
<!-- UsersService&#45;&gt;AdminModule -->
<g id="edge9" class="edge">
<title>UsersService&#45;&gt;AdminModule</title>
<path fill="none" stroke="black" d="M4121.41,-84.43C4121.41,-84.43 4121.41,-114.74 4121.41,-114.74"/>
<polygon fill="black" stroke="black" points="4117.91,-114.74 4121.41,-124.74 4124.91,-114.74 4117.91,-114.74"/>
</g>
<!-- UsersService&#45;&gt;MailModule -->
<g id="edge41" class="edge">
<title>UsersService&#45;&gt;MailModule</title>
<path fill="none" stroke="black" d="M4048.92,-74.77C4048.92,-89.11 4048.92,-117.8 4048.92,-117.8 4048.92,-117.8 2145,-117.8 2145,-117.8 2145,-117.8 2145,-118.48 2145,-118.48"/>
<polygon fill="black" stroke="black" points="2141.5,-114.63 2145,-124.63 2148.5,-114.63 2141.5,-114.63"/>
</g>
<!-- UsersService&#45;&gt;OwnerModule -->
<g id="edge51" class="edge">
<title>UsersService&#45;&gt;OwnerModule</title>
<path fill="none" stroke="black" d="M4045.96,-72.31C4045.96,-84.91 4045.96,-114.8 4045.96,-114.8 4045.96,-114.8 2062.12,-114.8 2062.12,-114.8 2062.12,-114.8 2062.12,-115.78 2062.12,-115.78"/>
<polygon fill="black" stroke="black" points="2058.62,-114.59 2062.12,-124.59 2065.62,-114.59 2058.62,-114.59"/>
</g>
<!-- UsersService&#45;&gt;UsersModule -->
<g id="edge69" class="edge">
<title>UsersService&#45;&gt;UsersModule</title>
<path fill="none" stroke="black" d="M4088.59,-84.36C4088.59,-89.51 4088.59,-93.8 4088.59,-93.8 4088.59,-93.8 1713.43,-93.8 1713.43,-93.8 1713.43,-93.8 1713.43,-114.55 1713.43,-114.55"/>
<polygon fill="black" stroke="black" points="1709.93,-114.55 1713.43,-124.55 1716.93,-114.55 1709.93,-114.55"/>
</g>
<!-- UsersService&#45;&gt;RolesModule -->
<g id="edge63" class="edge">
<title>UsersService&#45;&gt;RolesModule</title>
<path fill="none" stroke="black" d="M4051.87,-76.21C4051.87,-95.73 4051.87,-138.8 4051.87,-138.8 4051.87,-138.8 3497.84,-138.8 3497.84,-138.8"/>
<polygon fill="black" stroke="black" points="3497.84,-135.3 3487.84,-138.8 3497.84,-142.3 3497.84,-135.3"/>
</g>
<!-- AuthModule&#45;&gt;AdminJwtRefreshService  -->
<g id="edge23" class="edge">
<title>AuthModule&#45;&gt;AdminJwtRefreshService </title>
<path fill="none" stroke="black" stroke-dasharray="5,2" d="M1938.59,-161.02C1938.59,-179.63 1938.59,-205.8 1938.59,-205.8 1938.59,-205.8 3863.14,-205.8 3863.14,-205.8"/>
<polygon fill="black" stroke="black" points="3863.14,-209.3 3873.14,-205.8 3863.14,-202.3 3863.14,-209.3"/>
</g>
<!-- AuthModule&#45;&gt;AppModule -->
<g id="edge11" class="edge">
<title>AuthModule&#45;&gt;AppModule</title>
<path fill="none" stroke="black" d="M1909.41,-160.81C1909.41,-183.29 1909.41,-218.8 1909.41,-218.8 1909.41,-218.8 1631.72,-218.8 1631.72,-218.8"/>
<polygon fill="black" stroke="black" points="1631.72,-215.3 1621.72,-218.8 1631.72,-222.3 1631.72,-215.3"/>
</g>
<!-- AuthService  -->
<g id="node23" class="node">
<title>AuthService </title>
<polygon fill="#fb8072" stroke="black" points="2992.98,-84.8 2903.02,-84.8 2903.02,-48.8 2992.98,-48.8 2992.98,-84.8"/>
<text text-anchor="middle" x="2948" y="-62.6" font-family="Times,serif" font-size="14.00">AuthService </text>
</g>
<!-- AuthModule&#45;&gt;AuthService  -->
<g id="edge24" class="edge">
<title>AuthModule&#45;&gt;AuthService </title>
<path fill="none" stroke="black" stroke-dasharray="5,2" d="M1889.95,-124.67C1889.95,-114.49 1889.95,-103.8 1889.95,-103.8 1889.95,-103.8 2948,-103.8 2948,-103.8 2948,-103.8 2948,-94.87 2948,-94.87"/>
<polygon fill="black" stroke="black" points="2951.5,-94.87 2948,-84.87 2944.5,-94.87 2951.5,-94.87"/>
</g>
<!-- OwnerJwtRefreshService  -->
<g id="node24" class="node">
<title>OwnerJwtRefreshService </title>
<polygon fill="#fb8072" stroke="black" points="3173.06,-84.8 3010.94,-84.8 3010.94,-48.8 3173.06,-48.8 3173.06,-84.8"/>
<text text-anchor="middle" x="3092" y="-62.6" font-family="Times,serif" font-size="14.00">OwnerJwtRefreshService </text>
</g>
<!-- AuthModule&#45;&gt;OwnerJwtRefreshService  -->
<g id="edge25" class="edge">
<title>AuthModule&#45;&gt;OwnerJwtRefreshService </title>
<path fill="none" stroke="black" stroke-dasharray="5,2" d="M1899.68,-124.69C1899.68,-114.9 1899.68,-104.8 1899.68,-104.8 1899.68,-104.8 3064.91,-104.8 3064.91,-104.8 3064.91,-104.8 3064.91,-94.91 3064.91,-94.91"/>
<polygon fill="black" stroke="black" points="3068.41,-94.91 3064.91,-84.91 3061.41,-94.91 3068.41,-94.91"/>
</g>
<!-- CartModule -->
<g id="node11" class="node">
<title>CartModule</title>
<polygon fill="#8dd3c7" stroke="black" points="1621.66,-160.8 1618.66,-164.8 1597.66,-164.8 1594.66,-160.8 1538.34,-160.8 1538.34,-124.8 1621.66,-124.8 1621.66,-160.8"/>
<text text-anchor="middle" x="1580" y="-138.6" font-family="Times,serif" font-size="14.00">CartModule</text>
</g>
<!-- CartModule&#45;&gt;AppModule -->
<g id="edge12" class="edge">
<title>CartModule&#45;&gt;AppModule</title>
<path fill="none" stroke="black" d="M1580,-160.81C1580,-160.81 1580,-190.65 1580,-190.65"/>
<polygon fill="black" stroke="black" points="1576.5,-190.65 1580,-200.65 1583.5,-190.65 1576.5,-190.65"/>
</g>
<!-- CategoriesModule -->
<g id="node12" class="node">
<title>CategoriesModule</title>
<polygon fill="#8dd3c7" stroke="black" points="1053.92,-160.8 1050.92,-164.8 1029.92,-164.8 1026.92,-160.8 934.08,-160.8 934.08,-124.8 1053.92,-124.8 1053.92,-160.8"/>
<text text-anchor="middle" x="994" y="-138.6" font-family="Times,serif" font-size="14.00">CategoriesModule</text>
</g>
<!-- CategoriesModule&#45;&gt;AppModule -->
<g id="edge13" class="edge">
<title>CategoriesModule&#45;&gt;AppModule</title>
<path fill="none" stroke="black" d="M994,-160.81C994,-186.82 994,-231.8 994,-231.8 994,-231.8 1528.33,-231.8 1528.33,-231.8"/>
<polygon fill="black" stroke="black" points="1528.33,-235.3 1538.33,-231.8 1528.33,-228.3 1528.33,-235.3"/>
</g>
<!-- CoreModule&#45;&gt;AppModule -->
<g id="edge14" class="edge">
<title>CoreModule&#45;&gt;AppModule</title>
<path fill="none" stroke="black" d="M1477,-160.97C1477,-179.89 1477,-206.8 1477,-206.8 1477,-206.8 1528.11,-206.8 1528.11,-206.8"/>
<polygon fill="black" stroke="black" points="1528.11,-210.3 1538.11,-206.8 1528.11,-203.3 1528.11,-210.3"/>
</g>
<!-- MailModule&#45;&gt;AppModule -->
<g id="edge15" class="edge">
<title>MailModule&#45;&gt;AppModule</title>
<path fill="none" stroke="black" d="M2166.5,-160.83C2166.5,-185.78 2166.5,-227.8 2166.5,-227.8 2166.5,-227.8 1631.71,-227.8 1631.71,-227.8"/>
<polygon fill="black" stroke="black" points="1631.71,-224.3 1621.71,-227.8 1631.71,-231.3 1631.71,-224.3"/>
</g>
<!-- MailService  -->
<g id="node31" class="node">
<title>MailService </title>
<polygon fill="#fb8072" stroke="black" points="543.92,-236.8 456.08,-236.8 456.08,-200.8 543.92,-200.8 543.92,-236.8"/>
<text text-anchor="middle" x="500" y="-214.6" font-family="Times,serif" font-size="14.00">MailService </text>
</g>
<!-- MailModule&#45;&gt;MailService  -->
<g id="edge37" class="edge">
<title>MailModule&#45;&gt;MailService </title>
<path fill="none" stroke="black" stroke-dasharray="5,2" d="M2123.5,-161.04C2123.5,-168.23 2123.5,-174.8 2123.5,-174.8 2123.5,-174.8 530.12,-174.8 530.12,-174.8 530.12,-174.8 530.12,-190.65 530.12,-190.65"/>
<polygon fill="black" stroke="black" points="526.62,-190.65 530.12,-200.65 533.62,-190.65 526.62,-190.65"/>
</g>
<!-- OrdersModule -->
<g id="node15" class="node">
<title>OrdersModule</title>
<polygon fill="#8dd3c7" stroke="black" points="1289.65,-160.8 1286.65,-164.8 1265.65,-164.8 1262.65,-160.8 1192.35,-160.8 1192.35,-124.8 1289.65,-124.8 1289.65,-160.8"/>
<text text-anchor="middle" x="1241" y="-138.6" font-family="Times,serif" font-size="14.00">OrdersModule</text>
</g>
<!-- OrdersModule&#45;&gt;AppModule -->
<g id="edge16" class="edge">
<title>OrdersModule&#45;&gt;AppModule</title>
<path fill="none" stroke="black" d="M1241,-161.12C1241,-184.46 1241,-221.8 1241,-221.8 1241,-221.8 1528.09,-221.8 1528.09,-221.8"/>
<polygon fill="black" stroke="black" points="1528.09,-225.3 1538.09,-221.8 1528.09,-218.3 1528.09,-225.3"/>
</g>
<!-- OwnerModule&#45;&gt;AppModule -->
<g id="edge17" class="edge">
<title>OwnerModule&#45;&gt;AppModule</title>
<path fill="none" stroke="black" d="M2051.27,-161.18C2051.27,-185.08 2051.27,-223.8 2051.27,-223.8 2051.27,-223.8 1631.82,-223.8 1631.82,-223.8"/>
<polygon fill="black" stroke="black" points="1631.82,-220.3 1621.82,-223.8 1631.82,-227.3 1631.82,-220.3"/>
</g>
<!-- OwnerModule&#45;&gt;OwnerJwtRefreshService  -->
<g id="edge44" class="edge">
<title>OwnerModule&#45;&gt;OwnerJwtRefreshService </title>
<path fill="none" stroke="black" stroke-dasharray="5,2" d="M2018.73,-124.77C2018.73,-117.95 2018.73,-111.8 2018.73,-111.8 2018.73,-111.8 3119.09,-111.8 3119.09,-111.8 3119.09,-111.8 3119.09,-94.84 3119.09,-94.84"/>
<polygon fill="black" stroke="black" points="3122.59,-94.84 3119.09,-84.84 3115.59,-94.84 3122.59,-94.84"/>
</g>
<!-- OwnerService  -->
<g id="node34" class="node">
<title>OwnerService </title>
<polygon fill="#fb8072" stroke="black" points="3371.58,-160.8 3272.42,-160.8 3272.42,-124.8 3371.58,-124.8 3371.58,-160.8"/>
<text text-anchor="middle" x="3322" y="-138.6" font-family="Times,serif" font-size="14.00">OwnerService </text>
</g>
<!-- OwnerModule&#45;&gt;OwnerService  -->
<g id="edge45" class="edge">
<title>OwnerModule&#45;&gt;OwnerService </title>
<path fill="none" stroke="black" stroke-dasharray="5,2" d="M2018.73,-160.91C2018.73,-170.7 2018.73,-180.8 2018.73,-180.8 2018.73,-180.8 3322,-180.8 3322,-180.8 3322,-180.8 3322,-170.91 3322,-170.91"/>
<polygon fill="black" stroke="black" points="3325.5,-170.91 3322,-160.91 3318.5,-170.91 3325.5,-170.91"/>
</g>
<!-- ProductModule -->
<g id="node17" class="node">
<title>ProductModule</title>
<polygon fill="#8dd3c7" stroke="black" points="1174.6,-160.8 1171.6,-164.8 1150.6,-164.8 1147.6,-160.8 1071.4,-160.8 1071.4,-124.8 1174.6,-124.8 1174.6,-160.8"/>
<text text-anchor="middle" x="1123" y="-138.6" font-family="Times,serif" font-size="14.00">ProductModule</text>
</g>
<!-- ProductModule&#45;&gt;AppModule -->
<g id="edge18" class="edge">
<title>ProductModule&#45;&gt;AppModule</title>
<path fill="none" stroke="black" d="M1123,-161.03C1123,-185.73 1123,-226.8 1123,-226.8 1123,-226.8 1528.23,-226.8 1528.23,-226.8"/>
<polygon fill="black" stroke="black" points="1528.23,-230.3 1538.23,-226.8 1528.23,-223.3 1528.23,-230.3"/>
</g>
<!-- ReviewsModule -->
<g id="node18" class="node">
<title>ReviewsModule</title>
<polygon fill="#8dd3c7" stroke="black" points="1415.77,-160.8 1412.77,-164.8 1391.77,-164.8 1388.77,-160.8 1308.23,-160.8 1308.23,-124.8 1415.77,-124.8 1415.77,-160.8"/>
<text text-anchor="middle" x="1362" y="-138.6" font-family="Times,serif" font-size="14.00">ReviewsModule</text>
</g>
<!-- ReviewsModule&#45;&gt;AppModule -->
<g id="edge19" class="edge">
<title>ReviewsModule&#45;&gt;AppModule</title>
<path fill="none" stroke="black" d="M1362,-160.93C1362,-181.37 1362,-211.8 1362,-211.8 1362,-211.8 1528.23,-211.8 1528.23,-211.8"/>
<polygon fill="black" stroke="black" points="1528.23,-215.3 1538.23,-211.8 1528.23,-208.3 1528.23,-215.3"/>
</g>
<!-- TelegramModule -->
<g id="node19" class="node">
<title>TelegramModule</title>
<polygon fill="#8dd3c7" stroke="black" points="1862.69,-160.8 1859.69,-164.8 1838.69,-164.8 1835.69,-160.8 1749.31,-160.8 1749.31,-124.8 1862.69,-124.8 1862.69,-160.8"/>
<text text-anchor="middle" x="1806" y="-138.6" font-family="Times,serif" font-size="14.00">TelegramModule</text>
</g>
<!-- TelegramModule&#45;&gt;AppModule -->
<g id="edge20" class="edge">
<title>TelegramModule&#45;&gt;AppModule</title>
<path fill="none" stroke="black" d="M1806,-160.97C1806,-182.3 1806,-214.8 1806,-214.8 1806,-214.8 1631.72,-214.8 1631.72,-214.8"/>
<polygon fill="black" stroke="black" points="1631.72,-211.3 1621.72,-214.8 1631.72,-218.3 1631.72,-211.3"/>
</g>
<!-- UsersModule&#45;&gt;AppModule -->
<g id="edge21" class="edge">
<title>UsersModule&#45;&gt;AppModule</title>
<path fill="none" stroke="black" d="M1708.86,-161.11C1708.86,-180.95 1708.86,-209.8 1708.86,-209.8 1708.86,-209.8 1631.84,-209.8 1631.84,-209.8"/>
<polygon fill="black" stroke="black" points="1631.84,-206.3 1621.84,-209.8 1631.84,-213.3 1631.84,-206.3"/>
</g>
<!-- UserJwtRefreshTokenService  -->
<g id="node40" class="node">
<title>UserJwtRefreshTokenService </title>
<polygon fill="#fb8072" stroke="black" points="882.17,-236.8 695.83,-236.8 695.83,-200.8 882.17,-200.8 882.17,-236.8"/>
<text text-anchor="middle" x="789" y="-214.6" font-family="Times,serif" font-size="14.00">UserJwtRefreshTokenService </text>
</g>
<!-- UsersModule&#45;&gt;UserJwtRefreshTokenService  -->
<g id="edge64" class="edge">
<title>UsersModule&#45;&gt;UserJwtRefreshTokenService </title>
<path fill="none" stroke="black" stroke-dasharray="5,2" d="M1686,-160.99C1686,-175.98 1686,-194.8 1686,-194.8 1686,-194.8 784.58,-194.8 784.58,-194.8 784.58,-194.8 784.58,-195.38 784.58,-195.38"/>
<polygon fill="black" stroke="black" points="781.08,-190.61 784.58,-200.61 788.08,-190.61 781.08,-190.61"/>
</g>
<!-- UsersService  -->
<g id="node41" class="node">
<title>UsersService </title>
<polygon fill="#fb8072" stroke="black" points="677.86,-236.8 584.14,-236.8 584.14,-200.8 677.86,-200.8 677.86,-236.8"/>
<text text-anchor="middle" x="631" y="-214.6" font-family="Times,serif" font-size="14.00">UsersService </text>
</g>
<!-- UsersModule&#45;&gt;UsersService  -->
<g id="edge65" class="edge">
<title>UsersModule&#45;&gt;UsersService </title>
<path fill="none" stroke="black" stroke-dasharray="5,2" d="M1663.14,-160.84C1663.14,-173.36 1663.14,-187.8 1663.14,-187.8 1663.14,-187.8 631,-187.8 631,-187.8 631,-187.8 631,-190.77 631,-190.77"/>
<polygon fill="black" stroke="black" points="627.5,-190.77 631,-200.77 634.5,-190.77 627.5,-190.77"/>
</g>
<!-- AppClusterService -->
<g id="node22" class="node">
<title>AppClusterService</title>
<ellipse fill="#fdb462" stroke="black" cx="1242" cy="-66.8" rx="84.54" ry="18"/>
<text text-anchor="middle" x="1242" y="-62.6" font-family="Times,serif" font-size="14.00">AppClusterService</text>
</g>
<!-- AppClusterService&#45;&gt;CoreModule -->
<g id="edge34" class="edge">
<title>AppClusterService&#45;&gt;CoreModule</title>
<path fill="none" stroke="black" d="M1321.89,-72.8C1390.02,-72.8 1477,-72.8 1477,-72.8 1477,-72.8 1477,-114.77 1477,-114.77"/>
<polygon fill="black" stroke="black" points="1473.5,-114.77 1477,-124.77 1480.5,-114.77 1473.5,-114.77"/>
</g>
<!-- AppClusterService&#45;&gt;AppModule -->
<g id="edge22" class="edge">
<title>AppClusterService&#45;&gt;AppModule</title>
<path fill="none" stroke="black" d="M1298.97,-80.11C1298.97,-116.82 1298.97,-216.8 1298.97,-216.8 1298.97,-216.8 1528.23,-216.8 1528.23,-216.8"/>
<polygon fill="black" stroke="black" points="1528.23,-220.3 1538.23,-216.8 1528.23,-213.3 1528.23,-220.3"/>
</g>
<!-- AppListener -->
<g id="node25" class="node">
<title>AppListener</title>
<ellipse fill="#fdb462" stroke="black" cx="2582" cy="-66.8" rx="59.11" ry="18"/>
<text text-anchor="middle" x="2582" y="-62.6" font-family="Times,serif" font-size="14.00">AppListener</text>
</g>
<!-- AppListener&#45;&gt;AuthModule -->
<g id="edge27" class="edge">
<title>AppListener&#45;&gt;AuthModule</title>
<path fill="none" stroke="black" d="M2582,-85.12C2582,-93.59 2582,-101.8 2582,-101.8 2582,-101.8 1919.14,-101.8 1919.14,-101.8 1919.14,-101.8 1919.14,-114.7 1919.14,-114.7"/>
<polygon fill="black" stroke="black" points="1915.64,-114.7 1919.14,-124.7 1922.64,-114.7 1915.64,-114.7"/>
</g>
<!-- AuthService -->
<g id="node26" class="node">
<title>AuthService</title>
<ellipse fill="#fdb462" stroke="black" cx="2445" cy="-66.8" rx="59.11" ry="18"/>
<text text-anchor="middle" x="2445" y="-62.6" font-family="Times,serif" font-size="14.00">AuthService</text>
</g>
<!-- AuthService&#45;&gt;AuthModule -->
<g id="edge28" class="edge">
<title>AuthService&#45;&gt;AuthModule</title>
<path fill="none" stroke="black" d="M2445,-84.84C2445,-92.55 2445,-99.8 2445,-99.8 2445,-99.8 1909.41,-99.8 1909.41,-99.8 1909.41,-99.8 1909.41,-114.31 1909.41,-114.31"/>
<polygon fill="black" stroke="black" points="1905.91,-114.31 1909.41,-124.31 1912.91,-114.31 1905.91,-114.31"/>
</g>
<!-- AuthService&#45;&gt;UsersModule -->
<g id="edge66" class="edge">
<title>AuthService&#45;&gt;UsersModule</title>
<path fill="none" stroke="black" d="M2415.35,-82.52C2415.35,-86.57 2415.35,-89.8 2415.35,-89.8 2415.35,-89.8 1658.57,-89.8 1658.57,-89.8 1658.57,-89.8 1658.57,-114.56 1658.57,-114.56"/>
<polygon fill="black" stroke="black" points="1655.07,-114.56 1658.57,-124.56 1662.07,-114.56 1655.07,-114.56"/>
</g>
<!-- AuthService&#45;&gt;RolesModule -->
<g id="edge59" class="edge">
<title>AuthService&#45;&gt;RolesModule</title>
<path fill="none" stroke="black" d="M2474.65,-82.79C2474.65,-86.2 2474.65,-88.8 2474.65,-88.8 2474.65,-88.8 3430.81,-88.8 3430.81,-88.8 3430.81,-88.8 3430.81,-114.52 3430.81,-114.52"/>
<polygon fill="black" stroke="black" points="3427.31,-114.52 3430.81,-124.52 3434.31,-114.52 3427.31,-114.52"/>
</g>
<!-- OwnerJwtRefreshService -->
<g id="node27" class="node">
<title>OwnerJwtRefreshService</title>
<ellipse fill="#fdb462" stroke="black" cx="2769" cy="-66.8" rx="109.94" ry="18"/>
<text text-anchor="middle" x="2769" y="-62.6" font-family="Times,serif" font-size="14.00">OwnerJwtRefreshService</text>
</g>
<!-- OwnerJwtRefreshService&#45;&gt;AuthModule -->
<g id="edge30" class="edge">
<title>OwnerJwtRefreshService&#45;&gt;AuthModule</title>
<path fill="none" stroke="black" d="M2732.43,-83.96C2732.43,-93.23 2732.43,-102.8 2732.43,-102.8 2732.43,-102.8 1928.86,-102.8 1928.86,-102.8 1928.86,-102.8 1928.86,-114.67 1928.86,-114.67"/>
<polygon fill="black" stroke="black" points="1925.36,-114.67 1928.86,-124.67 1932.36,-114.67 1925.36,-114.67"/>
</g>
<!-- OwnerJwtRefreshService&#45;&gt;OwnerModule -->
<g id="edge48" class="edge">
<title>OwnerJwtRefreshService&#45;&gt;OwnerModule</title>
<path fill="none" stroke="black" d="M2805.57,-83.79C2805.57,-95.81 2805.57,-109.8 2805.57,-109.8 2805.57,-109.8 2029.58,-109.8 2029.58,-109.8 2029.58,-109.8 2029.58,-114.76 2029.58,-114.76"/>
<polygon fill="black" stroke="black" points="2026.08,-114.76 2029.58,-124.76 2033.08,-114.76 2026.08,-114.76"/>
</g>
<!-- CardService -->
<g id="node28" class="node">
<title>CardService</title>
<ellipse fill="#fdb462" stroke="black" cx="2287" cy="-66.8" rx="58.53" ry="18"/>
<text text-anchor="middle" x="2287" y="-62.6" font-family="Times,serif" font-size="14.00">CardService</text>
</g>
<!-- CardService&#45;&gt;CartModule -->
<g id="edge32" class="edge">
<title>CardService&#45;&gt;CartModule</title>
<path fill="none" stroke="black" d="M2231.52,-60.8C2064.85,-60.8 1580,-60.8 1580,-60.8 1580,-60.8 1580,-114.6 1580,-114.6"/>
<polygon fill="black" stroke="black" points="1576.5,-114.6 1580,-124.6 1583.5,-114.6 1576.5,-114.6"/>
</g>
<!-- CategoriesService -->
<g id="node29" class="node">
<title>CategoriesService</title>
<ellipse fill="#fdb462" stroke="black" cx="105" cy="-66.8" rx="81.08" ry="18"/>
<text text-anchor="middle" x="105" y="-62.6" font-family="Times,serif" font-size="14.00">CategoriesService</text>
</g>
<!-- CategoriesService&#45;&gt;CategoriesModule -->
<g id="edge33" class="edge">
<title>CategoriesService&#45;&gt;CategoriesModule</title>
<path fill="none" stroke="black" d="M145.64,-82.55C145.64,-104.81 145.64,-142.8 145.64,-142.8 145.64,-142.8 924.01,-142.8 924.01,-142.8"/>
<polygon fill="black" stroke="black" points="924.01,-146.3 934.01,-142.8 924.01,-139.3 924.01,-146.3"/>
</g>
<!-- CategoriesService&#45;&gt;ProductModule -->
<g id="edge52" class="edge">
<title>CategoriesService&#45;&gt;ProductModule</title>
<path fill="none" stroke="black" d="M64.36,-82.68C64.36,-99.54 64.36,-123.8 64.36,-123.8 64.36,-123.8 1092.96,-123.8 1092.96,-123.8 1092.96,-123.8 1092.96,-123.88 1092.96,-123.88"/>
<polygon fill="black" stroke="black" points="1089.46,-114.62 1092.96,-124.62 1096.46,-114.62 1089.46,-114.62"/>
</g>
<!-- CategoriesService&#45;&gt;ReviewsModule -->
<g id="edge55" class="edge">
<title>CategoriesService&#45;&gt;ReviewsModule</title>
<path fill="none" stroke="black" d="M105,-84.83C105,-91.65 105,-97.8 105,-97.8 105,-97.8 1312.72,-97.8 1312.72,-97.8 1312.72,-97.8 1312.72,-114.76 1312.72,-114.76"/>
<polygon fill="black" stroke="black" points="1309.22,-114.76 1312.72,-124.76 1316.22,-114.76 1309.22,-114.76"/>
</g>
<!-- FilesService -->
<g id="node30" class="node">
<title>FilesService</title>
<ellipse fill="#fdb462" stroke="black" cx="285" cy="-66.8" rx="58.55" ry="18"/>
<text text-anchor="middle" x="285" y="-62.6" font-family="Times,serif" font-size="14.00">FilesService</text>
</g>
<!-- FilesService&#45;&gt;CoreModule -->
<g id="edge35" class="edge">
<title>FilesService&#45;&gt;CoreModule</title>
<path fill="none" stroke="black" d="M304.59,-84.14C304.59,-86.32 304.59,-87.8 304.59,-87.8 304.59,-87.8 1455.31,-87.8 1455.31,-87.8 1455.31,-87.8 1455.31,-114.79 1455.31,-114.79"/>
<polygon fill="black" stroke="black" points="1451.81,-114.79 1455.31,-124.79 1458.81,-114.79 1451.81,-114.79"/>
</g>
<!-- FilesService&#45;&gt;ProductModule -->
<g id="edge53" class="edge">
<title>FilesService&#45;&gt;ProductModule</title>
<path fill="none" stroke="black" d="M265.41,-83.91C265.41,-100.37 265.41,-122.8 265.41,-122.8 265.41,-122.8 1114.46,-122.8 1114.46,-122.8 1114.46,-122.8 1114.46,-122.98 1114.46,-122.98"/>
<polygon fill="black" stroke="black" points="1110.96,-114.65 1114.46,-124.65 1117.96,-114.65 1110.96,-114.65"/>
</g>
<!-- OrdersService -->
<g id="node32" class="node">
<title>OrdersService</title>
<ellipse fill="#fdb462" stroke="black" cx="450" cy="-66.8" rx="66.04" ry="18"/>
<text text-anchor="middle" x="450" y="-62.6" font-family="Times,serif" font-size="14.00">OrdersService</text>
</g>
<!-- OrdersService&#45;&gt;OrdersModule -->
<g id="edge42" class="edge">
<title>OrdersService&#45;&gt;OrdersModule</title>
<path fill="none" stroke="black" d="M486.16,-82.05C486.16,-90.29 486.16,-98.8 486.16,-98.8 486.16,-98.8 1241,-98.8 1241,-98.8 1241,-98.8 1241,-114.65 1241,-114.65"/>
<polygon fill="black" stroke="black" points="1237.5,-114.65 1241,-124.65 1244.5,-114.65 1237.5,-114.65"/>
</g>
<!-- RolesModule&#45;&gt;OwnerModule -->
<g id="edge43" class="edge">
<title>RolesModule&#45;&gt;OwnerModule</title>
<path fill="none" stroke="black" d="M3413.55,-124.68C3413.55,-121.83 3413.55,-119.8 3413.55,-119.8 3413.55,-119.8 2072.97,-119.8 2072.97,-119.8 2072.97,-119.8 2072.97,-120.29 2072.97,-120.29"/>
<polygon fill="black" stroke="black" points="2069.47,-114.68 2072.97,-124.68 2076.47,-114.68 2069.47,-114.68"/>
</g>
<!-- RolesService  -->
<g id="node37" class="node">
<title>RolesService </title>
<polygon fill="#fb8072" stroke="black" points="3724.87,-84.8 3631.13,-84.8 3631.13,-48.8 3724.87,-48.8 3724.87,-84.8"/>
<text text-anchor="middle" x="3678" y="-62.6" font-family="Times,serif" font-size="14.00">RolesService </text>
</g>
<!-- RolesModule&#45;&gt;RolesService  -->
<g id="edge58" class="edge">
<title>RolesModule&#45;&gt;RolesService </title>
<path fill="none" stroke="black" stroke-dasharray="5,2" d="M3487.78,-129.8C3556.41,-129.8 3678,-129.8 3678,-129.8 3678,-129.8 3678,-95.02 3678,-95.02"/>
<polygon fill="black" stroke="black" points="3681.5,-95.02 3678,-85.02 3674.5,-95.02 3681.5,-95.02"/>
</g>
<!-- ProductService -->
<g id="node35" class="node">
<title>ProductService</title>
<ellipse fill="#fdb462" stroke="black" cx="626" cy="-66.8" rx="70.07" ry="18"/>
<text text-anchor="middle" x="626" y="-62.6" font-family="Times,serif" font-size="14.00">ProductService</text>
</g>
<!-- ProductService&#45;&gt;ProductModule -->
<g id="edge54" class="edge">
<title>ProductService&#45;&gt;ProductModule</title>
<path fill="none" stroke="black" d="M683.68,-77.15C683.68,-93.08 683.68,-121.8 683.68,-121.8 683.68,-121.8 1135.97,-121.8 1135.97,-121.8 1135.97,-121.8 1135.97,-122.09 1135.97,-122.09"/>
<polygon fill="black" stroke="black" points="1132.47,-114.72 1135.97,-124.72 1139.47,-114.72 1132.47,-114.72"/>
</g>
<!-- ProductService&#45;&gt;ReviewsModule -->
<g id="edge56" class="edge">
<title>ProductService&#45;&gt;ReviewsModule</title>
<path fill="none" stroke="black" d="M689.67,-74.37C689.67,-83.26 689.67,-96.8 689.67,-96.8 689.67,-96.8 1317.32,-96.8 1317.32,-96.8 1317.32,-96.8 1317.32,-114.62 1317.32,-114.62"/>
<polygon fill="black" stroke="black" points="1313.82,-114.62 1317.32,-124.62 1320.82,-114.62 1313.82,-114.62"/>
</g>
<!-- ReviewsService -->
<g id="node36" class="node">
<title>ReviewsService</title>
<ellipse fill="#fdb462" stroke="black" cx="809" cy="-66.8" rx="73" ry="18"/>
<text text-anchor="middle" x="809" y="-62.6" font-family="Times,serif" font-size="14.00">ReviewsService</text>
</g>
<!-- ReviewsService&#45;&gt;ReviewsModule -->
<g id="edge57" class="edge">
<title>ReviewsService&#45;&gt;ReviewsModule</title>
<path fill="none" stroke="black" d="M833.42,-84.05C833.42,-89.82 833.42,-94.8 833.42,-94.8 833.42,-94.8 1321.92,-94.8 1321.92,-94.8 1321.92,-94.8 1321.92,-114.65 1321.92,-114.65"/>
<polygon fill="black" stroke="black" points="1318.42,-114.65 1321.92,-124.65 1325.42,-114.65 1318.42,-114.65"/>
</g>
<!-- RolesService -->
<g id="node38" class="node">
<title>RolesService</title>
<ellipse fill="#fdb462" stroke="black" cx="3545" cy="-66.8" rx="61.98" ry="18"/>
<text text-anchor="middle" x="3545" y="-62.6" font-family="Times,serif" font-size="14.00">RolesService</text>
</g>
<!-- RolesService&#45;&gt;RolesModule -->
<g id="edge60" class="edge">
<title>RolesService&#45;&gt;RolesModule</title>
<path fill="none" stroke="black" d="M3482.86,-66.8C3477.57,-66.8 3474.18,-66.8 3474.18,-66.8 3474.18,-66.8 3474.18,-114.79 3474.18,-114.79"/>
<polygon fill="black" stroke="black" points="3470.68,-114.79 3474.18,-124.79 3477.68,-114.79 3470.68,-114.79"/>
</g>
<!-- UserJwtRefreshTokenService -->
<g id="node39" class="node">
<title>UserJwtRefreshTokenService</title>
<ellipse fill="#fdb462" stroke="black" cx="3339" cy="-66.8" rx="126.19" ry="18"/>
<text text-anchor="middle" x="3339" y="-62.6" font-family="Times,serif" font-size="14.00">UserJwtRefreshTokenService</text>
</g>
<!-- UserJwtRefreshTokenService&#45;&gt;UsersModule -->
<g id="edge68" class="edge">
<title>UserJwtRefreshTokenService&#45;&gt;UsersModule</title>
<path fill="none" stroke="black" d="M3242.43,-78.42C3242.43,-84.95 3242.43,-91.8 3242.43,-91.8 3242.43,-91.8 1676.86,-91.8 1676.86,-91.8 1676.86,-91.8 1676.86,-114.68 1676.86,-114.68"/>
<polygon fill="black" stroke="black" points="1673.36,-114.68 1676.86,-124.68 1680.36,-114.68 1673.36,-114.68"/>
</g>
<!-- UserJwtRefreshTokenService&#45;&gt;RolesModule -->
<g id="edge62" class="edge">
<title>UserJwtRefreshTokenService&#45;&gt;RolesModule</title>
<path fill="none" stroke="black" d="M3448.08,-76.12C3448.08,-76.12 3448.08,-114.69 3448.08,-114.69"/>
<polygon fill="black" stroke="black" points="3444.58,-114.69 3448.08,-124.69 3451.58,-114.69 3444.58,-114.69"/>
</g>
</g>
</svg>
